<svg width="42" height="53" fill="none" xmlns="http://www.w3.org/2000/svg"><path d="M30.686 12.982c-.006 0-.012-.004-.018-.004-4.882.161-9.189-2.89-10.504-7.389-.003-.011-.011-.019-.015-.029a.39.39 0 00-.073-.114.348.348 0 00-.113-.075c-.01-.004-.016-.011-.025-.014-.01-.003-.019 0-.028-.003a.347.347 0 00-.145-.002c-.01.002-.02 0-.029.003-.01.003-.016.01-.026.014a.341.341 0 00-.19.184c-.005.01-.013.017-.016.028a10.495 10.495 0 01-8.019 7.104c-.006.001-.012.006-.018.007a.3.3 0 00-.065.027c-.02.01-.04.018-.057.03a.357.357 0 00-.043.044.351.351 0 00-.046.056c-.003.006-.01.01-.013.016-2.804 5.417-.688 11.867 4.824 14.688 1.548.746 3.187 1.1 4.802 1.1 4.105 0 8.057-2.281 9.966-6.189 1.537-2.896 1.594-6.282.156-9.289a.342.342 0 00-.305-.193zm-.467 9.171c-2.499 5.115-8.713 7.26-13.844 4.786-5.114-2.616-7.102-8.574-4.582-13.621A11.173 11.173 0 0019.818 6.7c1.65 4.18 5.81 6.97 10.509 6.97l.122-.002c1.248 2.76 1.176 5.835-.23 8.485z" fill="#A88F6B" stroke="#A88F6B" stroke-width="1.2"/><path d="M16.325 36.453c-7.3 1.779-12.929 7.33-14.747 14.51L1 50.469c1.968-7.269 7.725-12.87 15.165-14.683 11.07-2.56 21.867 3.887 24.835 14.715l-.582.488c-2.748-10.656-13.29-17.034-24.093-14.535z" fill="#A88F6B"/><path d="M40.421 51l-.003-.011m0 0c-2.748-10.656-13.29-17.034-24.093-14.535-7.3 1.778-12.929 7.328-14.747 14.51L1 50.468C2.968 43.2 8.725 37.599 16.165 35.786c11.07-2.56 21.867 3.887 24.835 14.715l-.582.488z" stroke="#A88F6B" stroke-width="1.2"/><path d="M6.124 35.822c.19 0 .345-.154.345-.343V16.015c0-8.035 6.4-14.33 14.568-14.33 8.087 0 14.42 6.295 14.42 14.33v19.464c0 .19.155.343.346.343.19 0 .345-.154.345-.343V16.015C36.148 7.735 29.369 1 21.037 1 12.481 1 5.779 7.595 5.779 16.015v19.464c0 .19.154.343.345.343z" fill="#A88F6B" stroke="#A88F6B" stroke-width="1.2"/><path d="M28.348 46.3h6.584" stroke="#A88F6B" stroke-width="1.2"/></svg>