<svg width="52" height="52" fill="none" xmlns="http://www.w3.org/2000/svg"><path d="M23.194 12.446a13.477 13.477 0 00-5.604 2.359l-.62.473-.307.238-.269.25-.536.503-.134.125-.086.083-.063.072-.251.288c-.336.384-.68.76-.958 1.188l-.44.624c-.138.213-.255.44-.383.66-1.673 2.95-2.21 6.455-1.545 9.674a13.847 13.847 0 001.297 3.66.324.324 0 00-.134.05c-.753.473-1.426 1.046-2.062 1.664-.318.31-.626.63-.93.954-.338.358-.67.814-.889 1.286a4.703 4.703 0 00-.258 3.341c.164.547.415 1.04.775 1.499.336.425.753.792 1.226 1.067.789.45 1.688.625 2.532.53a4.234 4.234 0 002.263-.956c.32-.255.569-.559.842-.845.268-.287.542-.57.822-.847a22.81 22.81 0 011.784-1.595c.048-.038.056-.088.05-.136 2 1.014 4.23 1.552 6.48 1.517 3.2-.022 6.4-1.242 8.906-3.415.56-.482.546-.814.065-.476l-.805.575c-.28.178-.57.337-.852.508-.274.18-.58.321-.886.467-.306.143-.599.314-.926.42-1.257.54-2.635.87-4.05 1.013-2.826.283-5.892-.29-8.443-1.909-.336-.171-.618-.428-.931-.637-.317-.207-.595-.465-.878-.716l-.428-.375-.027-.023-.007-.006c-.008-.008.043.046.018.02l-.012-.014-.05-.054-.103-.11-.205-.22c-.263-.294-.573-.584-.771-.88a12.57 12.57 0 01-2.159-3.935c-.955-2.85-.91-5.96.044-8.522a13.01 13.01 0 013-4.803c.362-.325.715-.678 1.085-.981.385-.273.738-.583 1.147-.829.807-.506 1.656-.955 2.556-1.27a13.198 13.198 0 015.626-.754c1.904.16 3.764.771 5.416 1.735 3.31 1.928 5.755 5.351 6.413 9.173.694 3.805-.276 7.91-2.702 10.948-.874 1.021-.897 1.74.206.636a13.183 13.183 0 002.908-4.691c.638-1.769.907-3.69.782-5.594a14.1 14.1 0 00-1.509-5.487c-.21-.428-.476-.826-.713-1.239-.254-.405-.57-.79-.855-1.183-.293-.38-.602-.678-.903-1.021l-.114-.124-.028-.031-.033-.036-.009-.007-.016-.015-.066-.059-.263-.238-.528-.473c-3.131-2.712-7.485-3.817-11.502-3.094zm-9.648 20.651a14.208 14.208 0 003.38 4.034c.667.534 1.384.998 2.134 1.397-.663.22-1.28.578-1.86 1.025-.297.23-.584.483-.864.752-.14.135-.277.273-.413.415l-.203.214-.05.055-.012.014.026-.026-.001.001-.003.004-.007.006-.027.027-.105.104c-.152.164-.246.225-.353.33-.13.09-.256.199-.4.276a3.166 3.166 0 01-.905.387c-.639.175-1.34.143-1.913-.099a3.469 3.469 0 01-1.082-.702l-.248-.267c-.071-.087-.127-.17-.193-.255a3.654 3.654 0 01-.325-.58 3.709 3.709 0 01-.134-2.63c.137-.427.352-.83.63-1.184.273-.337.65-.7.966-1.053a55.511 55.511 0 001.922-2.179c.019-.02.028-.043.04-.066z" fill="#A88F6B" stroke="#A88F6B" stroke-width=".5"/><path d="M31.657 18.174a9.872 9.872 0 00-1.192-.713c-.474-.178-.925-.403-1.406-.538l-.727-.175-.362-.079c-.122-.015-.248-.02-.37-.028-1.658-.134-3.116.342-4.674.399-.09-.002-.06.253.024.311.372.26.747.376 1.119.395.194-.002.356.023.52.02.165-.003.329-.024.494-.058.323-.091.69-.115 1.041-.191a3.05 3.05 0 011.024-.055c.22.026.448.038.666.09l.649.188c.443.104.84.33 1.254.513l.31.143.289.179c.194.118.39.233.589.346.398.226.745.524 1.157.758.14.085.512-.2.431-.388a3.233 3.233 0 00-.836-1.117z" fill="#A88F6B" stroke="#A88F6B" stroke-width=".5"/><path d="M48.298 3.113a8.315 8.315 0 00-3.009-1.716c-.275-.092-.562-.147-.842-.22-.286-.063-.595-.092-.891-.135-.292-.033-.536-.025-.807-.04-.338-.01-.589.028-.887.041-2.306.195-4.461 1.425-5.893 3.223a10.007 10.007 0 00-.827-.46C30.03 1.318 23.847.92 18.254 2.63c-2.806.853-5.425 2.259-7.758 4.09l-.873.702c-.273.24-.523.488-.786.732l-.39.367-.194.184-.097.091-.025.023c-.052.05-.027.029-.045.047l-.045.052-.733.827-.73.827c-.25.27-.44.59-.664.882l-.644.897c-.105.15-.217.297-.318.45l-.277.478a24.916 24.916 0 00-3.341 8.984 25.2 25.2 0 00.273 9.584 24.714 24.714 0 003.844 8.747l.72.974.36.485c.12.16.259.292.387.44l.785.864.392.432.098.108.068.073.055.05.222.2c.596.523 1.164 1.08 1.785 1.572.643.462 1.27.946 1.927 1.386 2.218 1.427 4.653 2.441 7.154 3.083l.943.221c.314.076.627.152.949.183l1.911.255 1.92.07c.32.023.64.007.959-.018l.956-.057c2.539-.206 5.045-.763 7.387-1.737a25.885 25.885 0 006.45-3.95c3.838-3.274 6.664-7.763 7.916-12.722 1.28-4.953.977-10.348-.904-15.256-.209-.533-.4-.852-.51-.942a8.38 8.38 0 00.994-.878c1.337-1.367 2.193-3.225 2.382-5.215.043-.437-.203-.576-.294-.233-.373 1.527-1.028 3.01-2.108 4.255-1.058 1.235-2.503 2.236-4.163 2.638a7.08 7.08 0 01-1.26.207l-.322.028-.02.002h-.005l.03.001h-.054l-.088-.002-.177-.003c-.229-.008-.488.005-.676-.03a7.05 7.05 0 01-2.448-.66c-1.545-.732-2.813-2-3.469-3.441a7.566 7.566 0 01-.733-3.204c.015-.288.016-.588.045-.867.047-.27.064-.54.132-.81.125-.544.29-1.081.531-1.585a7.816 7.816 0 012.003-2.652 7.587 7.587 0 012.931-1.542c2.147-.586 4.546-.203 6.382 1.088 1.846 1.27 3.145 3.355 3.42 5.637.068.786.544 1.114.582.162.072-2.232-.948-4.554-2.698-6.09zM35.588 4.76A8.376 8.376 0 0034.2 8.227c-.035.312-.105.659-.099.937l-.013.437-.003.109-.001.083.004.058.015.233c.022.31.036.62.101.924.047.307.107.61.2.906.552 1.984 1.828 3.695 3.476 4.755a8.328 8.328 0 005.509 1.276 8.407 8.407 0 003.896-1.563c.002.09.031.236.1.449a26.686 26.686 0 011.114 13.108c-.757 4.613-2.912 9.215-6.302 12.789l-.284.315-.349.324-.697.648-.696.65-.723.55-.722.55c-.238.188-.48.372-.749.523l-1.568.967a24.664 24.664 0 01-6.837 2.471l-1.776.29-1.78.115-.444.029-.442-.012-.88-.03-.877-.029c-.29-.023-.577-.072-.865-.106-2.309-.228-4.497-.899-6.487-1.762a23.541 23.541 0 01-7.434-5.216l-.78-.867c-.251-.295-.542-.567-.75-.885-.44-.623-.918-1.217-1.33-1.863-.381-.668-.797-1.319-1.15-2.002-.315-.703-.663-1.392-.952-2.107-2.283-5.744-2.209-12.401.192-18.104a24.16 24.16 0 015.093-7.65c1.132-1.089 2.273-2.1 3.559-2.942.32-.21.633-.436.96-.636l1.003-.564.502-.283c.17-.086.347-.162.52-.244l1.044-.483c2.824-1.198 5.878-1.81 8.937-1.878 3.062-.035 6.123.535 8.988 1.627.516.222.956.38 1.29.473-.04.056-.086.108-.125.164z" fill="#A88F6B" stroke="#A88F6B" stroke-width=".5"/><path d="M42.85 4.179c.082.01.118.032.184.04.062.027.13.053.194.085.251.142.465.385.577.71.04.1.506.19.575-.01.18-.47 0-1.062-.398-1.421a1.346 1.346 0 00-.326-.237 1.453 1.453 0 00-.403-.162 2.943 2.943 0 00-.234-.05c-.07-.01-.09-.003-.139-.006h-.143l-.076-.003h-.004l-.011.002-.05.006-.096.015a1.927 1.927 0 00-1.361.88c-.072.116-.123.245-.176.368a2.401 2.401 0 00-.09.44l.003.138.002.07v.016l-.001.065.002.012.008.048c.029.129.039.258.096.375.15.4.453.706.792.862.172.072.346.126.54.142.098.019.157-.004.235-.005l.129-.01.121-.029c.638-.16 1.111-.634 1.335-1.308.028-.066-.222-.111-.301-.065-.173.1-.323.244-.447.243a2.09 2.09 0 00-.16.034c-.05.013-.084.03-.13.034-.152.034-.224.078-.327.139-.075.067-.319.114-.42.133-.171 0-.378-.086-.468-.245-.036-.052-.052-.114-.082-.172-.01-.031-.012-.064-.02-.096l-.008-.049-.005-.024-.002-.012-.001-.006v-.002c-.002.015 0-.036-.003.034v-.005c.006-.086.007-.191.02-.262.023-.052.02-.1.052-.16a.94.94 0 01.59-.519c.061-.032.133-.022.2-.039.005-.002.06-.006.025-.007l.067.005.135.008zm-2.616 2.408a2.138 2.138 0 00-.592-.245 5.896 5.896 0 00-.333-.08c-.102-.02-.159-.013-.24-.02l-.228-.01-.028-.002h-.007l-.076-.003h-.007l-.018.002-.075.01-.148.02a2.972 2.972 0 00-2.118 1.314c-.116.176-.197.377-.288.565-.061.217-.13.468-.152.658l-.008.251-.004.126-.001.031-.003.071.003.02.01.076c.04.203.045.41.129.598.21.644.66 1.17 1.203 1.463.14.07.284.124.42.183.14.057.306.075.452.109.157.043.277.016.415.024.075-.002.116.005.22-.003l.212-.038c1.121-.197 2.028-1.103 2.262-2.291.034-.123-.214-.185-.298-.093a3.06 3.06 0 00-.255.314c-.074.118-.18.166-.248.237l-.103.093-.122.095c-.077.062-.135.132-.22.178-.292.22-.573.416-.918.525-.313.12-.815.132-1.127.04-.381-.111-.757-.376-.932-.735-.07-.12-.099-.257-.155-.386-.018-.068-.02-.14-.032-.208l-.015-.105-.008-.053-.004-.026-.002-.013v-.003c.013-.155.017-.327.043-.465.05-.123.058-.249.128-.375a1.987 1.987 0 011.258-1.083c.133-.061.282-.044.422-.073l.08-.01.124.01.247.02c.157.02.262.074.4.1.129.063.265.123.392.196.495.318.872.845 1.01 1.47.05.206.52.332.578.017.163-.74-.145-1.6-.751-2.14a2.03 2.03 0 00-.492-.356zm7.596 4.546c.067.007.09.024.14.027l.156.064c.202.107.382.292.49.558.037.079.502.16.574-.015.183-.415.03-.955-.327-1.278a1.212 1.212 0 00-.292-.213 1.314 1.314 0 00-.366-.145 2.228 2.228 0 00-.214-.044c-.063-.008-.077-.001-.118-.003l-.104.002h-.016l-.075-.004h-.003l-.01.002-.044.005-.088.013a1.718 1.718 0 00-1.21.795c-.063.103-.107.218-.153.328-.037.13-.073.295-.077.397l.016.303c.026.113.039.227.09.33a1.346 1.346 0 001.183.854c.087.014.133-.008.2-.01l.11-.012.104-.027c.54-.153.927-.539 1.149-1.11.027-.055-.223-.097-.301-.06-.35.249-.574.169-.694.19-.125-.004-.154.01-.209.06-.027.058-.22.11-.278.152-.13.023-.302-.028-.376-.146-.03-.039-.042-.086-.068-.13-.009-.023-.01-.048-.016-.073l-.009-.037-.004-.019-.002-.01-.002-.004v-.001l-.002.034v0-.005c.005-.071.005-.161.014-.217.02-.037.013-.071.038-.118a.728.728 0 01.455-.405c.049-.025.104-.017.156-.031.002-.002.053-.007.014-.007l.056.003.113.007zm-6.158 1.622c.109.013.17.048.262.062.086.04.179.078.266.125.338.206.61.55.732.984.044.138.51.24.576 0 .174-.567-.052-1.256-.525-1.68a1.648 1.648 0 00-.386-.28 1.7 1.7 0 00-.471-.192 4.242 4.242 0 00-.27-.061c-.08-.013-.115-.006-.175-.01l-.161-.005h-.026l-.076-.004h-.004l-.014.002-.058.007-.116.017a2.304 2.304 0 00-1.633 1.036c-.088.138-.15.293-.217.439-.048.17-.1.376-.112.52v.288l-.002.068.002.014.01.059c.032.155.04.312.106.454.173.488.528.874.941 1.079.208.096.422.17.659.195.12.028.2.004.3.006.055-.002.076 0 .161-.007l.155-.033c.811-.173 1.44-.802 1.668-1.661.03-.087-.218-.138-.3-.076-.175.136-.329.319-.466.354l-.184.09c-.06.03-.102.066-.162.086-.203.1-.35.2-.54.278-.16.087-.497.12-.674.098-.247-.039-.514-.19-.635-.42-.049-.077-.07-.166-.109-.25-.012-.044-.014-.09-.023-.136l-.011-.069-.006-.034-.003-.018-.002-.008v-.002c.008-.108.01-.227.027-.317.032-.077.033-.154.079-.239.152-.346.466-.616.83-.72.087-.043.187-.031.28-.052.012-.002.074-.01.045-.009l.088.007.174.014zm4.951-6.832c.072.008.097.026.153.03l.164.07c.214.115.403.315.511.596.039.084.505.168.575-.015.182-.428.022-.982-.344-1.314a1.249 1.249 0 00-.3-.218 1.348 1.348 0 00-.377-.15 2.537 2.537 0 00-.219-.045c-.064-.008-.08-.002-.123-.004l-.108.001h-.017l-.076-.003h-.003l-.011.001-.045.006-.09.014a1.77 1.77 0 00-1.246.816c-.066.106-.112.225-.16.338a2.149 2.149 0 00-.08.408l.016.314c.027.117.039.234.09.34a1.4 1.4 0 00.731.772c.156.063.314.109.49.12.09.014.14-.007.208-.01l.116-.01.108-.028c.564-.155.973-.564 1.195-1.16.027-.058-.223-.101-.302-.062-.17.085-.32.214-.438.197-.1-.003-.204.027-.266.024-.132.006-.172.028-.238.08-.039.06-.245.112-.314.147-.14.018-.32-.042-.4-.17-.03-.042-.044-.093-.07-.141-.01-.025-.012-.052-.017-.078l-.008-.039-.005-.02-.002-.01-.002-.005v-.001 0l-.002.033v-.003c.005-.076.005-.17.015-.23.02-.041.015-.078.042-.128a.783.783 0 01.488-.433c.052-.028.112-.02.167-.034.002-.002.055-.006.016-.006l.06.003.118.007zm-2.136 2.69c.09.01.134.037.208.047.069.032.145.06.216.098.277.162.509.435.623.794.041.111.508.205.576-.007.178-.5-.015-1.122-.436-1.501a1.434 1.434 0 00-.344-.25 1.523 1.523 0 00-.424-.17 2.923 2.923 0 00-.245-.054c-.074-.011-.098-.005-.15-.008h-.157l-.076-.004h-.003l-.012.001-.052.007-.103.015a2.044 2.044 0 00-1.444.928c-.077.122-.13.26-.188.39a2.587 2.587 0 00-.097.464l.002.15.001.075v.019l-.002.065.002.013.01.052c.029.136.039.274.097.399.158.427.476.757.838.928.183.08.368.14.575.158.106.022.171-.001.256-.001l.139-.009.131-.03c.69-.165 1.212-.685 1.437-1.416.029-.072-.22-.12-.3-.068-.174.11-.325.267-.453.276-.053.015-.11.031-.167.052-.053.018-.09.04-.14.049-.168.054-.263.116-.392.181-.101.074-.373.116-.497.123-.195-.012-.42-.118-.52-.3-.04-.059-.056-.129-.09-.195-.011-.035-.012-.072-.02-.108l-.01-.054-.006-.028-.002-.013-.002-.007v-.002c.006-.089.008-.187.02-.259.028-.06.025-.116.061-.184a1.06 1.06 0 01.663-.58c.07-.035.15-.025.224-.043.008-.002.065-.007.032-.007l.073.005.148.009z" fill="#A88F6B" stroke="#A88F6B" stroke-width=".5"/></svg>