<svg width="45" height="45" fill="none" xmlns="http://www.w3.org/2000/svg"><rect x=".5" y=".5" width="44" height="44" rx="22" stroke="#F6F1EB"/><path d="M26.126 16.718h1.761v-3.216h-3.2c-.268-.011-3.523-.073-4.366 3.144-.012.033-.282.799-.282 2.586l-2.927.009v3.372l2.93-.008V31.5h4.477v-8.887h2.963V19.23h-2.963v-1.064c0-.661.279-1.45 1.607-1.45zm.615 3.253v1.9h-2.963v8.888h-2.995v-8.897l-2.93.008v-1.89l2.938-.01-.008-.376c-.038-1.893.232-2.69.244-2.728.728-2.77 3.508-2.631 3.627-2.624l2.492.001v1.734h-1.02c-1.73 0-2.347 1.131-2.347 2.19v1.804h2.962z" fill="#F6F1EB" stroke="#F6F1EB" stroke-width=".3"/></svg>