<svg xmlns="http://www.w3.org/2000/svg" width="355.64" height="99.791" viewBox="0 0 44235.18 12412.24" shape-rendering="geometricPrecision" text-rendering="geometricPrecision" image-rendering="optimizeQuality" fill-rule="evenodd" clip-rule="evenodd"><g fill-rule="nonzero"><path d="M8162.53 4081.22L4081.17-.05 0 4081.17l4953.55 4953.41 695.19-695.05-4258.26-4258.36 2690.7-2690.79 2690.88 2690.84-563.23 563.42 695.05 695.19 1258.66-1258.61zM0 8331.02l4081.31 4081.22 4081.22-4081.03-4961.77-4945.32-695.24 695.14 4266.54 4250.18-2690.74 2690.6-2690.84-2690.79 563.28-563.23-695.19-695.33L0 8331.03z" fill="#bca888"/><path d="M13007.82 5034.83l-202.71-27.92c-825.08-125.85-957.89-363.72-957.89-601.36 0-300.63 223.72-531.45 1076.78-531.45 236.51 0 543.77 60.46 813.61 178.31l-124.15 258.93 725.33 347.69 493.28-1028.92 7.66-7.52c-496.38-412.56-1111.66-636.29-1915.73-636.29-1293.54 0-2083.46 559.24-2083.46 1461.09 0 881.12 503.2 1258.61 1838.72 1440.36l195.8 27.92c818.12 105.02 1118.57 279.76 1118.57 650.3 0 398.56-349.52 636.33-1230.36 636.33-303.92 0-684.38-83.21-1002.45-241.49l130.97-273.08-725.37-347.69-493.85 1030.05c440.54 517.4 1307.46 727.21 2090.7 727.21 1433.26 0 2237.33-629.33 2237.33-1594.13 0-902.09-587.44-1286.58-1992.78-1468.33zm29430.43 377.64h-1692V3986.12h1692c517.4 0 790.06 244.74 790.06 727.07 0 503.34-300.77 699.28-790.06 699.28zm853.1 754.99c580.35-230.68 943.83-748.08 943.83-1454.27 0-999.82-699.28-1615.14-1705.97-1615.14h-3188.3v888.08h405.61v3104.29h-405.61v894.89h1803.84v-894.89h-398.51v-783.1h1559.25l754.99 1677.99h1174.7v-894.89h-510.49l-433.34-922.96zm-6557.22-2181.38h398.56v1664.08c0 1055.76-496.38 1545.05-1230.55 1545.05-776.19 0-1230.55-489.29-1230.55-1545.05V3986.08h398.46v-887.94h-1803.94v887.94h398.65v1664.08c0 1419.2 776 2439.94 2237.37 2439.94 1454.22 0 2237.33-1020.74 2237.33-2439.94V3986.08h398.51v-887.94h-1803.84v887.94zm-5228.98 1824.81c0 1055.76-482.47 1384.32-1307.41 1384.32-1048.81 0-1677.99-671.17-1677.99-1649.88 0-1013.92 608.36-1664.08 1671.04-1664.08 601.22 0 1055.76 209.67 1342.34 573.25l762.23-559.38c-482.47-559.19-1216.63-908.9-2104.57-908.9-1538.23 0-2677.86 1083.88-2677.86 2566.07 0 1419.2 1104.75 2537.82 2684.82 2537.82 650.34 0 1041.85-202.76 1272.53-559.24h14.06l244.6 454.4h783.2V5538.09h-1006.97v272.8zm-7438.2 1391.42c-1048.76 0-1677.95-678.22-1677.95-1657.12 0-1013.74 608.32-1663.94 1671.04-1663.94 1069.77 0 1678.09 685.08 1678.09 1670.9 0 999.87-622.33 1650.16-1671.18 1650.16zm-6.91-4209.14c-1545.05 0-2677.86 1083.88-2677.86 2558.97 0 1419.34 1104.75 2545.06 2684.77 2545.06 1594.17 0 2677.86-1118.76 2677.86-2538.1 0-1468.14-1104.7-2565.93-2684.77-2565.93zm1810.89-1678.04h-1412.29l-874.16 1202.58h1020.88l1265.57-1202.58zm-7144.57 3873.39l1104.89-1195.48h510.11v-894.89h-985.67l-2139.5 2419.07V3993.04h398.51v-894.89h-1796.84v894.89h398.32v3097.34h-398.32v894.89h1796.84v-894.89h-398.51v-251.65l859.96-929.96 1377.41 2076.5h1027.65v-894.89h-426.57l-1328.28-1901.86zm-7517.03 6384.39v-1657.4h1195.2v277.79h-875.38v399.17h450.55c185.17 0 324.47 43.58 417.83 130.74 93.41 87.16 140.09 203.88 140.09 350.13 0 98.06-20.26 184.42-60.69 259.12-40.48 74.7-100.41 133.46-179.77 176.24-79.35 42.83-179.72 64.22-301.15 64.22h-786.67zm319.81-277.79h422.53c62.24 0 112.03-11.28 149.4-33.85 37.33-22.57 64.59-51.38 81.7-86.41 17.11-34.98 25.67-71.97 25.67-110.85 0-38.92-7.38-75.12-22.19-108.55-14.76-33.47-40.85-60.69-78.18-81.7-37.37-21.01-91.06-31.54-161.06-31.54h-417.88v452.9zm1479.52 277.79v-1657.4h702.62c76.3 0 146.3 15.56 210.14 46.68 63.79 31.12 119.41 73.15 166.89 126.04 47.48 52.93 84.43 112.07 110.9 177.42 26.42 65.34 39.68 132.29 39.68 200.78 0 93.36-21.81 182.07-65.39 266.08-43.53 84.05-103.47 152.55-179.72 205.44-76.25 52.93-166.51 79.4-270.78 79.4h-392.21v555.57h-322.12zm322.12-838.06h373.5c38.92 0 73.95-10.91 105.07-32.67 31.12-21.81 56.04-53.31 74.7-94.54 18.66-41.23 28.02-88.33 28.02-141.22 0-57.59-10.53-106.62-31.5-147.1-21.01-40.48-48.28-70.8-81.7-91.01-33.47-20.26-69.67-30.37-108.59-30.37h-359.49v536.91zm2527.66 555.62v282.44h-1150.87v-1657.4h1129.85v282.44h-807.74v399.17h698.01v261.47h-698.01v431.89h828.75zm1890.34-1374.96v1657.4h-319.81v-707.32h-751.7v707.32h-322.12v-1657.4h322.12v669.95h751.7v-669.95h319.81zm487.36 1974.87v-599.9h88.71c42.03 0 78.55-16.36 109.72-49.03 31.12-32.67 57.54-84.81 79.35-156.4 21.77-71.6 39.3-164.58 52.51-278.96 13.26-114.42 22.19-253.29 26.84-416.7l14.01-473.87h1104.18v1374.96h219.45v599.9h-282.49v-317.46h-1129.85v317.46h-282.44zm473.87-599.9h681.65v-1092.52h-492.58l-4.65 233.45c-4.65 161.86-13.63 299.55-26.84 413.18-13.21 113.62-31.92 206.99-56.04 280.14-24.12 73.15-57.96 128.39-101.54 165.76zm3176.64-779.72v1062.16h-319.81v-1657.4h249.77l863.72 1087.82V9917.82h319.81v1655.1h-259.12l-854.37-1062.16zm1720.44 270.78c-91.81 0-170.04-20.21-234.63-60.69s-114.38-94.16-149.4-161.06c-35.02-66.94-52.51-138.49-52.51-214.79 0-77.8 17.49-149.78 52.51-215.92 35.02-66.14 85.23-119.45 150.57-159.88 65.34-40.48 143.19-60.69 233.45-60.69 90.26 0 167.69 20.21 232.28 60.69 64.55 40.43 114.38 93.74 149.4 159.88 35.02 66.14 52.51 138.12 52.51 215.92 0 76.3-17.11 147.85-51.38 214.79-34.22 66.9-84.01 120.58-149.4 161.06-65.34 40.48-143.15 60.69-233.41 60.69zm-203.09-434.19c0 45.13 8.93 85.98 26.84 122.56 17.86 36.57 41.98 64.97 72.35 85.23 30.37 20.21 64.97 30.32 103.89 30.32 37.33 0 71.17-10.48 101.54-31.5 30.32-21.01 54.44-49.83 72.35-86.41 17.91-36.57 26.84-77.43 26.84-122.56 0-48.23-8.93-89.84-26.84-124.86-17.91-35.02-42.03-62.67-72.35-82.88-30.37-20.21-64.22-30.37-101.54-30.37-37.37 0-71.6 10.15-102.72 30.37-31.12 20.21-55.66 48.61-73.52 85.18-17.91 36.57-26.84 78.23-26.84 124.91zm5165 798.38c0 93.36-24.12 171.59-72.35 234.58-48.23 63.04-113.2 110.9-194.91 143.57-81.7 32.67-170.84 49.03-267.3 49.03h-800.68v-1657.4h887.04c77.85 0 145.12 20.59 201.96 61.82 56.79 41.28 100.37 94.16 130.69 158.75 30.37 64.59 45.55 131.91 45.55 201.91 0 79.4-20.26 154.85-60.69 226.45-40.48 71.6-99.62 124.53-177.42 158.75 94.91 28.02 169.99 78.6 225.27 151.75 55.24 73.1 82.83 163.41 82.83 270.78zm-324.47-60.69c0-42.03-8.56-79.78-25.67-113.25-17.11-33.42-40.1-59.89-68.87-79.35-28.77-19.46-61.87-29.19-99.19-29.19h-494.93v436.54h478.57c38.92 0 74.32-9.73 106.2-29.19 31.92-19.42 57.21-45.51 75.88-78.18 18.66-32.67 28.02-68.49 28.02-107.37zm-688.66-894.09v417.88h429.54c35.82 0 68.49-8.56 98.06-25.71 29.57-17.11 53.31-41.23 71.17-72.35 17.91-31.12 26.84-68.49 26.84-112.03 0-42.03-8.13-78.6-24.49-109.72-16.36-31.12-38.13-55.28-65.34-72.4-27.27-17.11-58.01-25.67-92.23-25.67h-443.54zm2635.08 1381.97v-1657.4h319.81v667.6h163.41l492.58-667.6h359.49l-602.3 803.03 648.98 854.37h-389.86l-513.54-697.97h-158.75v697.97h-319.81zm2296.51-1657.4h326.82l609.3 1657.4h-331.47l-154.1-413.18h-578.93l-151.7 413.18h-331.52l611.61-1657.4zm392.21 1017.78l-228.8-684-238.11 684h466.91zm970.63 639.63v-1657.4h702.62c76.3 0 146.3 15.56 210.14 46.68 63.79 31.12 119.41 73.15 166.89 126.04 47.48 52.93 84.43 112.07 110.9 177.42 26.42 65.34 39.68 132.29 39.68 200.78 0 93.36-21.81 182.07-65.39 266.08-43.53 84.05-103.47 152.55-179.72 205.44-76.25 52.93-166.51 79.4-270.78 79.4h-392.21v555.57h-322.12zm322.12-838.06h373.5c38.92 0 73.95-10.91 105.07-32.67 31.12-21.81 56.04-53.31 74.7-94.54 18.66-41.23 28.02-88.33 28.02-141.22 0-57.59-10.53-106.62-31.5-147.1-21.01-40.48-48.28-70.8-81.7-91.01-33.47-20.26-69.67-30.37-108.59-30.37h-359.49v536.91zm1381.45 838.06v-1657.4h1342.29v1657.4h-319.81v-1374.96h-702.67v1374.96h-319.81zm2387.57-1657.4h326.82l609.3 1657.4h-331.47l-154.1-413.18h-578.93l-151.7 413.18h-331.52l611.61-1657.4zm392.21 1017.78l-228.8-684-238.11 684h466.91zm2058.4-735.34h-529.9v1374.96h-319.81v-1374.96h-529.9v-282.44h1379.62v282.44zm748.83-282.44h326.82l609.3 1657.4h-331.47l-154.1-413.18h-578.93l-151.7 413.18h-331.52l611.61-1657.4zm392.21 1017.78l-228.8-684-238.11 684h466.91zm1143.34-1017.78l410.87 611.61 408.52-611.61h350.13l-574.23 840.36 555.57 817.04h-350.13l-389.86-588.29-392.21 588.29h-352.49l555.62-817.04-574.28-840.36h352.49zm-17690.25 396.82l-331.47 291.79-198.43-228.75 539.26-455.2h326.82v1652.75h-336.17v-1260.59z" fill="#fff"/></g></svg>