<svg width="200" height="100" fill="none" xmlns="http://www.w3.org/2000/svg"><g clip-path="url(#clip0)"><path d="M18.443 96.47H16.27l-2.224-7.808h-.163l-2.18 7.808h-2.15l-2.89-10.588h2.12l1.875 8.075h.156l2.202-8.075h2.008l2.18 8.09h.17l1.883-8.09h2.098L18.443 96.47zm4.143-5.309c0-3.418 1.905-5.502 5.004-5.502 3.098 0 4.996 2.084 4.996 5.502 0 3.419-1.898 5.517-4.996 5.517-3.099 0-5.004-2.076-5.004-5.517zm7.85 0c0-2.299-1.03-3.64-2.846-3.64s-2.847 1.327-2.847 3.64c0 2.314 1.023 3.656 2.847 3.656 1.823 0 2.846-1.342 2.846-3.656zm4.144 0c0-3.418 1.905-5.502 5.003-5.502 3.099 0 4.997 2.084 4.997 5.502 0 3.419-1.898 5.517-4.997 5.517-3.098 0-5.003-2.076-5.003-5.517zm7.842 0c0-2.299-1.03-3.64-2.839-3.64-1.808 0-2.846 1.341-2.846 3.64 0 2.299 1.023 3.656 2.846 3.656 1.824 0 2.84-1.342 2.84-3.656zm4.144 0c0-3.351 1.72-5.472 4.396-5.472a3.49 3.49 0 013.254 1.861h.178v-5.828h2.075V96.47h-2.008v-1.69h-.163a3.707 3.707 0 01-3.336 1.854c-2.691.014-4.396-2.106-4.396-5.473zm2.157 0c0 2.225 1.06 3.604 2.84 3.604 1.778 0 2.83-1.372 2.83-3.589 0-2.217-1.104-3.604-2.853-3.604-1.75 0-2.817 1.357-2.817 3.59zm19.851 2.447c-.474 1.898-2.172 3.07-4.596 3.07-3.039 0-4.9-2.084-4.9-5.48 0-3.396 1.906-5.539 4.893-5.539s4.73 2.017 4.73 5.346v.742h-7.488v.119c.067 1.86 1.15 3.032 2.825 3.032 1.267 0 2.135-.452 2.52-1.282l2.016-.008zm-7.36-3.418h5.359c-.052-1.669-1.06-2.751-2.61-2.751a2.72 2.72 0 00-2.75 2.75zm9.999-4.308h2.024v1.683h.148a3.18 3.18 0 013.165-1.891c2.365 0 3.707 1.424 3.707 3.945v6.866h-2.143v-6.34c0-1.705-.741-2.55-2.283-2.55a2.431 2.431 0 00-2.535 2.684v6.206h-2.098l.015-10.603zm24.351 3.448a2.365 2.365 0 00-2.506-1.802c-1.75 0-2.824 1.35-2.824 3.603 0 2.255 1.082 3.708 2.824 3.708a2.304 2.304 0 002.505-1.75h2.032c-.267 2.136-1.906 3.619-4.522 3.619-3.091 0-4.981-2.084-4.981-5.547 0-3.463 1.882-5.472 4.966-5.472 2.661 0 4.27 1.55 4.537 3.707l-2.031-.066zm3.899 1.831c0-3.418 1.905-5.502 5.003-5.502 3.099 0 4.996 2.084 4.996 5.502 0 3.419-1.897 5.517-4.996 5.517-3.098 0-5.003-2.076-5.003-5.517zm7.85 0c0-2.299-1.031-3.64-2.847-3.64s-2.839 1.341-2.839 3.64c0 2.299 1.023 3.656 2.839 3.656s2.847-1.342 2.847-3.656zm4.662-5.279h2.016v1.624h.156a2.879 2.879 0 012.861-1.802 4.45 4.45 0 01.942.089v2.061a6.33 6.33 0 00-1.172-.126 2.491 2.491 0 00-2.713 2.499v6.258h-2.09V85.882zm18.028 5.279c0 3.374-1.705 5.487-4.381 5.487a3.468 3.468 0 01-3.269-1.787h-.163v5.11h-2.091V85.88h2.017v1.75h.155a3.712 3.712 0 013.328-1.927c2.721-.015 4.404 2.09 4.404 5.457zm-2.158 0c0-2.224-1.06-3.589-2.831-3.589-1.772 0-2.861 1.38-2.861 3.604 0 2.225 1.104 3.589 2.853 3.589 1.75 0 2.862-1.35 2.862-3.604h-.023zm4.656 4.027a1.425 1.425 0 01.918-1.285 1.43 1.43 0 11.512 2.768 1.405 1.405 0 01-1.343-.916 1.389 1.389 0 01-.087-.567zM17.724 22.268h13.898v8.942H17.724v43.838H6.664V31.21H-.007v-8.942h6.671V18.16c0-5.399 1.653-9.773 4.96-13.125A16.463 16.463 0 0123.823 0c4.822 0 9.453 1.883 12.906 5.25l-4.537 7.793c-2.268-2.261-4.544-3.403-6.812-3.403a7.293 7.293 0 00-5.604 2.224c-1.374 1.483-2.058 3.493-2.053 6.029v4.375zM53.467 52.35v22.698H42.4v-52.78h11.067v10.5a22.673 22.673 0 017.302-8.09 17.935 17.935 0 019.71-3.256l.148 11.204h-.57c-5.387 0-9.498 1.75-12.335 5.25-2.837 3.5-4.255 8.325-4.255 14.475zm146.526-3.692c-.035 7.949-2.526 14.511-7.472 19.687-4.947 5.176-10.823 7.746-17.628 7.712-6.71-.03-12.7-2.996-17.968-8.898l-.289 29.956-10.919-.059.378-74.788 11.06.059-.052 9.224c4.477-6.698 10.215-10.027 17.212-9.988a24.84 24.84 0 0118.332 7.608c4.936 5.052 7.385 11.548 7.346 19.487zm-27.598 17.455a15.489 15.489 0 0011.579-4.835c3.187-3.247 4.793-7.378 4.818-12.39.025-5.013-1.534-9.183-4.677-12.51a15.248 15.248 0 00-11.393-5.02 14.487 14.487 0 00-11.223 4.976 17.848 17.848 0 00-4.603 12.398c0 5.013 1.482 9.15 4.447 12.435a14.51 14.51 0 0011.052 4.946z" fill="#000"/><path d="M108.343 21.563a26.613 26.613 0 00-22.608 12.502 26.634 26.634 0 00-1.357 25.805c1.994 3.626 5.063 2.402 6.404 1.616a6.42 6.42 0 00.66-.43l.037-.141c2.506-2.32 2.202-7.845 2.202-7.845h-.037a8.003 8.003 0 00-.786-3.893c-.942-1.35-2.068-2.358-2.965-3.826a3.885 3.885 0 011.067-5.443c2.44-1.483 6.19-.793 6.939 2.7.637 2.92-1.275 3.64-2.106 5.776-.6 1.483-.674 4.723.082 6.191 1.482 2.966 4.536-.415 5.93-1.802 2.402-2.402 5.396-5.405 6.301-8.853.674-2.514.148-5.443 2.965-6.793 3.224-1.483 8.999 1.127 6.975 5.295a8.542 8.542 0 01-4.766 4.234c-.489.126-.984.227-1.483.304a6.759 6.759 0 00-3.476 1.846c-3.751 3.634-10.615 12.413-3.151 12.376a22.058 22.058 0 009.637-2.625c1.349-.742 1.831-2.224 3.069-3.189 1.727-1.275 4.581-1.653 6.374-.259 2.328 1.757 1.579 4.872-.37 6.674a5.41 5.41 0 01-5.886.904 17.509 17.509 0 00-2.743-1.43c-1.312-.26-4.447.904-5.737 1.482-1.949.934-5.982 3.218-7.413 4.864a7.821 7.821 0 00-1.897 2.559c-.438 1.357.741 3.655 3.387 4.256a26.624 26.624 0 0020.886-5.004 26.637 26.637 0 0010.404-18.793 26.66 26.66 0 00-6.84-20.364 26.638 26.638 0 00-19.639-8.694h-.059z" fill="#02A64D"/></g><defs><clipPath id="clip0"><path fill="#fff" d="M0 0h200v100H0z"/></clipPath></defs></svg>