<svg xmlns="http://www.w3.org/2000/svg" width="104" height="13" fill="none"><path d="M17.969 12.684V.027h3.433v12.657H17.97zM32.659 2.37v10.314h-3.133L27.78 9.78c-.187-.309-.825-1.634-1.106-2.306.056.4.187 1.834.187 2.27v2.941H23.86V2.37h2.983l1.727 2.87c.243.399.975 1.87 1.238 2.414a21.06 21.06 0 01-.15-2.052V2.37h3.002z" fill="#00557B"/><path d="M41.08 12.684h-3.02L33.613.027h3.696l1.727 5.484c.168.563.375 1.108.544 2.107h.019c.224-1.144.469-1.852.693-2.47L42.15.028h3.546L41.08 12.683zm5.01 0V2.37h6.848l-.226 2.324h-3.49V6.22h2.852v2.233h-2.851v1.889h3.921v2.342H46.09zM63.649 2.37v10.314h-3.133L58.77 9.78c-.188-.309-.826-1.634-1.107-2.306.056.4.187 1.834.187 2.27v2.941h-3V2.37h2.983l1.725 2.87c.245.399.976 1.87 1.239 2.414a21.06 21.06 0 01-.15-2.052V2.37h3.002zm9.474 2.343h-2.664v7.971h-3.171V4.713h-2.682V2.37h8.892l-.375 2.343zm10.28-2.343v7.1c0 .509.018 1.108-.3 1.707-.357.672-1.52 1.689-4.128 1.689-2.083 0-3.19-.617-3.715-1.162-.675-.69-.713-1.398-.713-2.343v-6.99h3.17v6.7c0 .58.132.908.3 1.107.283.327.695.363.977.363.562 0 .863-.163 1.013-.345.206-.254.263-.762.263-1.07V2.37h3.133zm6.453 4.25c.187 0 .637-.019.92-.237.318-.254.336-.617.336-.799 0-.2-.018-.454-.225-.654-.262-.253-.73-.272-1.05-.272h-.732V6.62h.75zm1.65 6.064l-1.219-2.941c-.206-.49-.375-.854-.657-.999a1.173 1.173 0 00-.525-.127v4.067h-3.152V2.37h4.072c1.782 0 2.758.327 3.34.69.918.581 1.219 1.38 1.219 2.306 0 .89-.245 1.598-.845 2.125a3.06 3.06 0 01-1.52.69c.32.109.751.345 1.126 1.053l1.802 3.45h-3.64zm5.066 0V2.37h6.849l-.226 2.324h-3.49V6.22h2.852v2.233h-2.852v1.889h3.922v2.342h-7.055z" fill="#518FBA"/><path d="M4.191.019v12.66H.02V.02h4.17zm9.588 0v6.987c-.034-.039-.051-.056-.066-.076L8.374.038c-.005-.006-.007-.013-.01-.02h5.415z" fill="#D91920"/><path fill-rule="evenodd" clip-rule="evenodd" d="M8.387 12.68V5.748c.04.045.064.07.086.098l5.24 6.753.066.08H8.387z" fill="#00557B"/></svg>