<svg xmlns="http://www.w3.org/2000/svg" width="106" height="23" fill="none"><path d="M44.76 7.595a7.474 7.474 0 00-.648-2.913 7.636 7.636 0 00-1.743-2.45A7.864 7.864 0 0039.797.618a8.022 8.022 0 00-3.01-.53h-2.494a8.027 8.027 0 00-5.507 2.337 7.621 7.621 0 00-2.243 5.43l.134 7.464a7.59 7.59 0 002.387 5.378 7.995 7.995 0 005.585 2.173h2.45a7.983 7.983 0 005.52-2.326 7.577 7.577 0 002.23-5.442l-.09-7.507zm-8.151 10.719h-1.782a3.02 3.02 0 01-2.094-.837 2.872 2.872 0 01-.89-2.028l-.134-8.071a2.869 2.869 0 01.843-2.069 3.023 3.023 0 012.097-.882h1.782a3.07 3.07 0 012.11.833c.566.535.895 1.263.918 2.03l.09 8.073a2.8 2.8 0 01-.199 1.122 2.857 2.857 0 01-.63.96 2.943 2.943 0 01-.965.642c-.363.15-.753.227-1.146.227z" fill="#ED3237"/><path fill-rule="evenodd" clip-rule="evenodd" d="M9.353.087h5.523v1.649h3.206a6.544 6.544 0 014.523 1.843 6.213 6.213 0 011.89 4.406v5.251a6.17 6.17 0 01-1.893 4.39 6.5 6.5 0 01-4.52 1.816h-3.206v3.402H9.353v-3.402h-2.94a6.5 6.5 0 01-4.519-1.815A6.17 6.17 0 010 13.236V7.985a6.213 6.213 0 011.891-4.406 6.544 6.544 0 014.522-1.843h2.94V.086zm0 5.598H8.106a3.145 3.145 0 00-1.19.215 3.082 3.082 0 00-1.012.647 2.939 2.939 0 00-.916 2.132v3.863c0 .396.081.79.238 1.156a3.062 3.062 0 001.69 1.623c.378.148.783.22 1.19.215h1.247V5.685zm5.523 9.851h1.247c.407.006.811-.067 1.19-.215a3.08 3.08 0 001.012-.647c.29-.278.52-.61.677-.976.157-.367.238-.76.238-1.156V8.679c0-.397-.08-.79-.238-1.156a2.991 2.991 0 00-.677-.976 3.082 3.082 0 00-1.013-.647 3.145 3.145 0 00-1.19-.215h-1.246v9.851z" fill="#ED3237"/><path d="M82.04.087l-4.32 9.98-4.944-9.98h-5.968l8.328 15.97-2.895 6.683h5.968L87.83.087h-5.79zM66.54 22.74l-8.596-12.368L65.605.087h-5.968l-6.68 9.807V0h-5.523v22.74h5.522V11.804l7.66 10.936h5.924zm33.76-6.9a2.797 2.797 0 01-.964 1.773 2.94 2.94 0 01-1.931.7h-1.781c-.784 0-1.536-.3-2.095-.836a2.872 2.872 0 01-.89-2.028l-.133-8.072a2.87 2.87 0 01.843-2.068 3.024 3.024 0 012.096-.883h1.782c.69.006 1.359.241 1.893.668a2.938 2.938 0 011.046 1.676h5.3a7.583 7.583 0 00-2.632-4.808 7.963 7.963 0 00-5.25-1.875h-2.495a8.027 8.027 0 00-5.507 2.338 7.621 7.621 0 00-2.242 5.43l.133 7.464a7.59 7.59 0 002.387 5.378 7.995 7.995 0 005.585 2.173h2.45a7.95 7.95 0 005.235-2.046 7.566 7.566 0 002.47-4.941l-5.3-.043z" fill="#ED3237"/></svg>