<svg xmlns="http://www.w3.org/2000/svg" width="105" height="30" fill="none"><g clip-path="url(#clip0_590_3070)"><path d="M71.845 29.9h-2.818l.613-2.709h2.817l-.612 2.71zm2.529-.216l2.318-11.523h2.625l-.306 2.709h.061a2.97 2.97 0 011.47-1.409 4.767 4.767 0 012.267-.641 2.83 2.83 0 011.222.17 2.9 2.9 0 011.044.679c.463.555.704 1.272.674 2.005 0 .379-.062.731-.062.984l-1.408 7.224H81.53l1.286-6.556c.054-.236.075-.48.062-.722a1.367 1.367 0 00-.093-.593 1.328 1.328 0 00-.336-.49 1.373 1.373 0 00-.5-.305 1.342 1.342 0 00-.576-.066 2.788 2.788 0 00-1.75.632 3.883 3.883 0 00-1.278 2.249l-1.164 5.87h-2.808v-.217zm14.875-4.362c0 .19.06.253.06.443a2 2 0 00.234.857c.142.263.34.49.58.66a3.42 3.42 0 001.996.569 5.6 5.6 0 001.75-.253c.55-.127 1.05-.316 1.662-.506l-.429 2.15a10.222 10.222 0 01-3.613.695 5.625 5.625 0 01-3.614-1.138 4.284 4.284 0 01-.983-1.533 4.395 4.395 0 01-.268-1.818 6.655 6.655 0 011.75-4.614 6.54 6.54 0 012.13-1.494 6.368 6.368 0 012.525-.53 3.657 3.657 0 011.56.247c.498.194.95.496 1.326.884.376.389.668.855.857 1.368.189.514.27 1.063.238 1.61a13.956 13.956 0 01-.184 1.68l-.122.795h-7.455v-.072zm4.9-1.743c.06-.903.06-.614.06-.903a2.154 2.154 0 00-.367-1.355 1.658 1.658 0 00-.603-.47 1.608 1.608 0 00-.744-.144 2.264 2.264 0 00-.982.284 2.344 2.344 0 00-.768.692 4.816 4.816 0 00-.919 1.86h4.288l.035.036zm3.85-2.817l.262-2.601h1.654l.49-2.05 2.756-.56-.612 2.61h2.45l-.368 2.709h-2.45l-.98 5.102a4.361 4.361 0 00-.122.903 1.027 1.027 0 00.245.75c.236.161.512.249.796.253a4.99 4.99 0 001.164-.19l-.429 2.023c-.665.146-1.342.231-2.021.253a2.998 2.998 0 01-2.022-.632 2.206 2.206 0 01-.518-.778 2.267 2.267 0 01-.155-.93c.003-.343.044-.685.122-1.02l1.103-5.77h-1.365v-.072z" fill="#E04D29"/><path d="M36.12 14.549L33.25 29.9h-5.399l2.083-11.74h-2.625l-.49 2.88c-.735 3.613-1.287 8.526-6.615 8.526a9.543 9.543 0 01-2.704-.29l.735-3.684c.384.08.773.128 1.164.145.3-.008.592-.096.849-.254a1.78 1.78 0 00.62-.65c.307-.442.736-1.462 1.47-5.318l.98-4.94H36.12v-.027zm7.411 0H38.15l-.796 3.612h5.451l.726-3.612zM35.57 28.095l-.306 1.806h5.39l1.968-10.385c-4.593.605-6.256 4.235-7.052 8.534v.045zM67.314 29.9h-5.696l-.368-2.71h-4.288l-1.53 2.71h-5.4l7.876-15.352h7.288L67.314 29.9zm-6.003-7.224l-.551-4.516h-.061l-2.389 4.515h3.001zm-7.595-4.516l2.205-3.612h-10.36L42.682 29.9h5.39l2.083-11.74h3.561z" fill="#1A1F3B"/><path d="M8.121 20.13a9.282 9.282 0 01-3.185-1.201c2.45-.127 5.942-1.138 6.493-3.983a2.448 2.448 0 000-.948c2.389-.063 6.186-1.075 6.676-4.046.429-2.655-2.756-3.54-3.552-5.626-.245-.759-.245-2.15.367-2.71a10.025 10.025 0 013.848 4.458c.82 1.85 1.08 3.913.746 5.92-.502 2.613-1.97 4.924-4.093 6.44a9.696 9.696 0 01-7.282 1.687l-.018.009zm-3.43-1.328a10.098 10.098 0 01-4.16-5.359A10.457 10.457 0 01.63 6.577a10.072 10.072 0 014.31-5.23A9.575 9.575 0 0111.49.145a10.41 10.41 0 013.124 1.2c-2.363.11-5.863 1.148-6.37 3.992a2.795 2.795 0 000 1.012c-2.45.063-6.186 1.011-6.676 3.982-.43 2.71 2.756 3.54 3.552 5.627.162.473.207.981.132 1.478a3.095 3.095 0 01-.56 1.366zM8.305 6.475c.429 1.806 2.879 2.782 3.5 4.516.245.758.245 2.212-.429 2.781-.428-1.806-2.878-2.781-3.5-4.515a2.724 2.724 0 01-.174-1.455c.076-.492.285-.952.603-1.327z" fill="#E04D29"/></g><defs><clipPath id="clip0_590_3070"><path fill="#fff" d="M0 0h105v30H0z"/></clipPath></defs></svg>