<svg width="48" height="32" fill="none" xmlns="http://www.w3.org/2000/svg"><path d="M11.304 17.9c.165-.38-.018-.846-.56-1.424-2.237-2.385-4.638-3.844-4.74-3.904l-.364-.22-.086.417c-.07.344-.661 3.4.51 4.513.688.654 2.68 1.181 3.869 1.181.748 0 1.21-.189 1.371-.563h0zm-5.236-4.572c.762.505 2.565 1.779 4.236 3.56.423.45.48.698.448.772-.03.07-.24.2-.819.2-1.159 0-2.935-.521-3.453-1.015-.678-.644-.567-2.477-.412-3.517h0z" fill="#A88F6B" stroke="#A88F6B"/><path d="M46.863 15.083c-.182-2.604-1.196-3.048-2.876-3.783a23.454 23.454 0 01-1.555-.733c2.45-.198 3.118-1.027 3.292-1.548.198-.597-.076-1.267-.717-1.748-1.005-.754-2.402-.805-3.172-.42-.442.221-.686.579-.686 1.008 0 .544-.399.782-.673.88-.853-1.358-2.429-3.669-4.212-5.315-2.513-2.319-9.027-2.319-11.168-2.319L24 1.108l-1.098-.003c-2.141 0-8.655 0-11.167 2.32C9.95 5.07 8.374 7.381 7.52 8.738c-.273-.098-.673-.335-.673-.88 0-.429-.244-.787-.686-1.008-.77-.385-2.167-.333-3.172.42-.641.48-.915 1.15-.716 1.748.173.52.84 1.35 3.291 1.548a24.13 24.13 0 01-1.556.733c-1.679.736-2.694 1.18-2.875 3.783-.259 3.706-.324 6.165-.252 9.4.023.995.203 1.73.452 2.27v2.937c0 .664.541 1.205 1.206 1.205h4.297c.665 0 1.206-.541 1.206-1.205v-1.054c8.335.591 15.855.861 15.945.864h.023c.09-.003 7.611-.273 15.945-.864v1.053c0 .664.541 1.205 1.206 1.205h4.297c.665 0 1.206-.54 1.206-1.205v-2.937c.25-.54.43-1.274.453-2.27.072-3.237.006-5.697-.253-9.4h0zm-5.11-7.224c0-.193.118-.351.351-.468.597-.298 1.76-.223 2.54.363.335.25.644.665.507 1.075-.09.27-.63 1.143-3.704 1.175a16.32 16.32 0 01-.337-.213c-.054-.094-.16-.28-.313-.532.46-.205.956-.632.956-1.4zm-38.908.97c-.136-.41.173-.824.507-1.075.781-.586 1.945-.66 2.54-.363.233.117.352.274.352.468 0 .768.495 1.196.957 1.4-.153.252-.26.438-.314.532a12.85 12.85 0 01-.337.213C3.476 9.972 2.936 9.1 2.845 8.83zm4.596 19.764v1.097c0 .332-.27.602-.604.602H2.54a.604.604 0 01-.603-.602v-2.06c.572.565 1.17.621 1.218.625h0l.331.028.62.052.608.05.383.03.582.046.429.032c.194.016.391.03.59.045l.407.03.336.024h0zm16.558.305a505.804 505.804 0 01-17.19-.956l-.571-.044a86.68 86.68 0 00-.477-.036l-.584-.046-.376-.03a201.145 201.145 0 01-1.62-.135l-.01-.001-.029-.006c-.197-.041-.811-.232-1.235-1.103l-.029-.057c-.214-.465-.374-1.11-.393-2.015-.073-3.215-.008-5.66.25-9.345.157-2.239.896-2.563 2.515-3.272.68-.298 1.503-.66 2.464-1.242h.006v-.003c.182-.11.367-.226.56-.353l.06-.04.035-.064c.022-.04 2.22-3.932 4.767-6.283 2.338-2.159 8.675-2.159 10.757-2.159l1.098.003 1.098-.003c2.082 0 8.42 0 10.758 2.16 2.547 2.35 4.744 6.243 4.766 6.282l.035.064.061.04c.192.127.377.242.559.352v.004h.007c.96.582 1.783.944 2.463 1.242 1.62.709 2.36 1.033 2.515 3.272.258 3.682.324 6.128.25 9.344-.02.905-.18 1.55-.392 2.014l-.03.058c-.43.886-1.06 1.07-1.245 1.106l-.013.003a1.17 1.17 0 00-.04.005 170.816 170.816 0 01-1.367.114 327.519 327.519 0 01-1.061.084l-.725.056-.374.027-.669.05c-8.45.616-16.256.9-16.595.913h0zm21.457 1.394h-4.297a.604.604 0 01-.603-.602v-1.097l.342-.025.389-.029c.202-.014.403-.03.602-.046.138-.01.278-.02.417-.032.2-.014.4-.03.597-.046l.349-.028.637-.052.234-.019.714-.06h.003c.06-.006.652-.067 1.219-.626v2.06c0 .332-.27.602-.603.602h0z" fill="#A88F6B" stroke="#A88F6B"/><path d="M24 9.852c5.93 0 15.195.447 15.288.452l.569.027-.297-.486c-2.639-4.322-5.512-6.455-5.633-6.543l-.056-.041-.07-.012c-4.094-.724-9.734-.933-9.811-.935-.057.002-5.697.21-9.791.935l-.07.012-.056.041c-.12.089-2.992 2.22-5.632 6.543l-.296.486.568-.027c.093-.005 9.36-.452 15.288-.452h0zm-9.624-6.023c4.046-.706 9.58-.91 9.614-.912.055.001 5.588.206 9.635.912.391.302 2.824 2.26 5.117 5.845-2.123-.097-9.655-.425-14.741-.425-5.088 0-12.619.328-14.741.425 2.292-3.585 4.724-5.542 5.116-5.845h0zm22.881 12.647c-.542.578-.725 1.044-.56 1.425.162.374.623.563 1.371.563 1.19 0 3.181-.527 3.869-1.181 1.173-1.114.581-4.169.51-4.514l-.085-.416-.365.22c-.102.06-2.503 1.518-4.74 3.904h0zm4.676-3.148c.156 1.04.267 2.873-.411 3.517-.519.494-2.294 1.015-3.454 1.015-.578 0-.788-.13-.818-.2-.032-.074.025-.321.447-.772 1.668-1.779 3.473-3.054 4.236-3.56h0zm-4.511 8.161c-.314-.011-.732.002-1.154.035-5.947.47-12.18.622-12.244.624h-.046c-.063-.002-6.297-.154-12.242-.624a10.364 10.364 0 00-1.156-.035l-.754.027.566.5c.641.569 1.773 1.304 2.853 1.665 2.656.889 8.864 1.958 10.757 1.958 1.891 0 8.1-1.07 10.757-1.958 1.079-.361 2.21-1.096 2.853-1.665l.566-.502-.756-.025zm-2.855 1.62c-2.615.875-8.712 1.927-10.566 1.927-1.854 0-7.95-1.052-10.565-1.927-.675-.226-1.371-.61-1.937-.997l.187.012c5.965.473 12.215.625 12.275.626l.049.001h.03c.062-.002 6.313-.154 12.276-.627l.188-.012c-.567.387-1.264.771-1.938.997h0zM29.938 12.55c-.153.133-.295.293-.444.458-.305.329-.585.699-.937 1.02a3.432 3.432 0 01-1.265.72c-.489.162-1.03.237-1.586.292a18.79 18.79 0 01-1.705.063 19.07 19.07 0 01-1.705-.064c-.555-.056-1.098-.13-1.585-.291a3.443 3.443 0 01-1.266-.722c-.352-.321-.63-.688-.937-1.02-.147-.161-.285-.318-.442-.455a5.907 5.907 0 00-.433-.38 7.542 7.542 0 00-.748-.55c-.432-.279-.699-.4-.699-.4s.242.165.627.497a9.912 9.912 0 011.429 1.51c.26.332.522.748.89 1.122.37.375.855.712 1.402.898a7.2 7.2 0 001.704.37c.584.064 1.179.078 1.763.088 1.173-.019 2.374-.062 3.466-.458a3.68 3.68 0 001.401-.898c.37-.375.631-.79.891-1.124.13-.17.255-.333.388-.476.127-.15.25-.289.377-.41.244-.251.472-.458.665-.623.385-.33.626-.497.626-.497s-.266.122-.698.402a7.622 7.622 0 00-.748.549c-.142.11-.283.24-.43.379h0z" fill="#A88F6B" stroke="#A88F6B"/></svg>