<svg width="52" height="52" fill="none" xmlns="http://www.w3.org/2000/svg"><path d="M6.493 40.66a.39.39 0 00.397.383h5.459a.39.39 0 00.397-.384V29.074h5.095c.15 0 .287-.082.354-.211a.373.373 0 00-.036-.402l-5.165-6.708h4.852c.21.005.402-.17.402-.384a.378.378 0 00-.134-.288l-4.767-6.189h4.499c.21 0 .402-.17.402-.383a.378.378 0 00-.134-.288L9.937 3.602c-.15-.194-.486-.194-.636 0L1.081 14.28a.374.374 0 00-.037.402.4.4 0 00.354.212H5.89L1.08 21.14a.374.374 0 00-.037.402c.067.13.205.212.354.212h4.847l-5.166 6.708a.374.374 0 00-.036.401c.067.13.205.212.354.212h5.096v11.584h.001zM2.188 28.306l5.166-6.708a.375.375 0 00.036-.402.399.399 0 00-.354-.212H2.19L7 14.737a.374.374 0 00.037-.402.399.399 0 00-.354-.212H2.189l7.43-9.65 7.431 9.65h-4.492a.398.398 0 00-.354.213.374.374 0 00.036.401l4.811 6.248h-4.847a.397.397 0 00-.355.212.373.373 0 00.037.401l5.166 6.708h-4.703a.39.39 0 00-.397.384v11.585H7.287V28.69a.39.39 0 00-.397-.383H2.188zm17.285-9.081a.4.4 0 00.354.212h3.509v8.128a.39.39 0 00.397.384h3.881a.39.39 0 00.397-.384v-8.128h3.51a.397.397 0 00.353-.212.374.374 0 00-.035-.402l-3.537-4.593h3.228a.39.39 0 00.397-.383.377.377 0 00-.133-.288l-3.241-4.208h2.977a.39.39 0 00.397-.383.377.377 0 00-.133-.288l-5.802-7.534c-.15-.195-.487-.195-.636 0L19.51 8.739a.375.375 0 00-.037.401.4.4 0 00.355.212h2.966l-3.285 4.266a.373.373 0 00-.036.402.398.398 0 00.354.211h3.219l-3.537 4.593a.373.373 0 00-.036.401zm4.682-5.149a.375.375 0 00.036-.401.4.4 0 00-.354-.212h-3.219l3.285-4.266a.373.373 0 00.036-.401.399.399 0 00-.354-.212H20.62l5.056-6.566 5.057 6.566h-2.968a.398.398 0 00-.354.212.373.373 0 00.036.401l3.286 4.266h-3.22a.398.398 0 00-.353.212.373.373 0 00.036.402l3.537 4.593h-3.116a.39.39 0 00-.397.384v8.128h-3.088v-8.129a.39.39 0 00-.397-.384H20.62l3.536-4.593z" fill="#A88F6B" stroke="#A88F6B"/><path d="M36.604 24.637c2.32-8.452-2.706-16.288-2.758-16.366a.404.404 0 00-.546-.12.376.376 0 00-.124.53c.05.075 4.893 7.627 2.661 15.76-1.435 5.232-5.453 9.576-11.94 12.912L2.556 48.325a.377.377 0 00-.164.52.405.405 0 00.537.159l21.34-10.974c6.69-3.44 10.84-7.947 12.334-13.393z" fill="#A88F6B" stroke="#A88F6B"/><path d="M42.14 8.267a.405.405 0 00-.55-.113.376.376 0 00-.116.53c.03.046 3.038 4.6 3.565 10.63.704 8.05-3.117 14.782-11.356 20.009C17.95 49.302 12.552 50.229 12.5 50.237a.386.386 0 00-.331.438.393.393 0 00.452.32c.219-.032 5.549-.915 21.496-11.031 20.305-12.88 8.147-31.51 8.022-31.697zm8.463 33.486c-1.514 0-2.643.002-3.572.385-.103-.967-.518-1.89-1.25-2.75-.004-.005-.01-.008-.014-.011-.02-.021-.043-.036-.067-.053-.019-.012-.036-.027-.056-.037-.022-.01-.047-.013-.07-.02-.028-.007-.053-.014-.08-.015-.007 0-.012-.004-.019-.004-2.177 0-3.975 1.864-4.213 4.253-.633-.185-1.39-.267-2.38-.267a.39.39 0 00-.397.384c0 3.484 3.506 6.32 7.814 6.32 2.636 0 4.701-3.427 4.701-7.8a.391.391 0 00-.397-.385zm-5.316-1.727c.64.806.968 1.663.977 2.556-.75.58-1.378 1.576-2.019 3.26-.79-.966-1.418-1.62-2.21-2.031.1-2.04 1.503-3.674 3.252-3.785zm1.012 9.143c-3.705 0-6.74-2.282-6.997-5.16 2.542.071 3.145.823 4.76 2.855.007.008.017.011.025.02a.38.38 0 00.082.065c.02.01.037.024.058.032.009.003.014.01.023.013.042.013.084.02.126.02l.015-.003a.438.438 0 00.107-.016l.034-.017a.366.366 0 00.078-.04l.007-.004c.007-.005.01-.012.016-.018a.39.39 0 00.074-.081.368.368 0 00.023-.044c.007-.013.016-.025.021-.039 1.404-4.053 2.402-4.223 5.443-4.23-.115 3.64-1.85 6.647-3.895 6.647z" fill="#A88F6B" stroke="#A88F6B"/></svg>