<svg width="188" height="60" fill="none" xmlns="http://www.w3.org/2000/svg"><path d="M38 19.733L19 0 0 19.733 23.059 43.68l3.237-3.362L6.474 19.733 19 6.724l12.526 13.009-2.615 2.715 3.237 3.362L38 19.733z" fill="#A88F6B"/><path d="M0 40.267L19 60l19-19.733L14.916 16.37l-3.237 3.362 19.847 20.535L19 53.276 6.474 40.267l2.615-2.716-3.212-3.361L0 40.267z" fill="#A88F6B"/><path d="M57.748 31.44l-.847-.117c-3.436-.567-3.994-1.607-3.994-2.646 0-1.323.937-2.338 4.484-2.338.982 0 2.276.26 3.39.78l-.512 1.133 3.034 1.535 2.052-4.535.022-.024c-2.074-1.819-4.64-2.81-7.986-2.81-5.398 0-8.7 2.48-8.7 6.448 0 3.898 2.097 5.551 7.674 6.355l.825.118c3.413.472 4.663 1.228 4.663 2.882 0 1.748-1.45 2.81-5.131 2.81-1.271 0-2.855-.377-4.171-1.062l.535-1.205-3.034-1.536L48 41.788C49.83 44.078 53.443 45 56.722 45c5.978 0 9.324-2.787 9.324-7.04.023-4.015-2.431-5.716-8.298-6.52zm23.847.686l4.618-5.291h2.119V22.89h-4.105l-8.923 10.677v-6.732h1.651V22.89H69.46v3.945h1.673v13.677H69.46v3.945h7.495v-3.945h-1.65v-1.11l3.59-4.11 5.734 9.165h4.283v-3.945h-1.785l-5.532-8.386zM111.397 15h-5.889l-3.658 5.315h4.26L111.397 15zm-7.518 26.008c-4.372 0-7.005-3-7.005-7.323 0-4.488 2.543-7.347 6.96-7.347 4.462 0 7.005 3.024 7.005 7.37 0 4.418-2.588 7.3-6.96 7.3zm-.045-18.59c-6.446 0-11.176 4.795-11.176 11.29 0 6.26 4.617 11.245 11.198 11.245 6.648 0 11.176-4.937 11.176-11.22 0-6.473-4.595-11.316-11.198-11.316zm31.05 12.448c0 4.654-2.007 6.118-5.443 6.118-4.372 0-7.004-2.952-7.004-7.275 0-4.488 2.543-7.347 6.96-7.347 2.498 0 4.395.922 5.599 2.528l3.168-2.48c-2.008-2.48-5.065-4.016-8.767-4.016-6.425 0-11.176 4.795-11.176 11.338 0 6.26 4.618 11.197 11.198 11.197 2.722 0 4.35-.897 5.309-2.48h.067l1.026 2.008h3.257V33.638h-4.194v1.228zm21.818-8.055h1.65v7.347c0 4.654-2.074 6.827-5.131 6.827-3.234 0-5.13-2.173-5.13-6.827V26.81h1.651v-3.92h-7.518v3.92h1.651v7.347c0 6.26 3.235 10.772 9.324 10.772 6.068 0 9.325-4.512 9.325-10.772V26.81h1.65v-3.92h-7.517v3.92h.045zm23.781 6.284h-7.05v-6.307h7.05c2.164 0 3.301 1.086 3.301 3.212 0 2.245-1.249 3.095-3.301 3.095zm3.569 3.354c2.41-1.015 3.927-3.307 3.927-6.425 0-4.417-2.923-7.134-7.117-7.134h-13.295v3.921h1.696v13.701h-1.696v3.945h7.517v-3.945h-1.651v-3.449h6.514l3.145 7.418H188v-3.945h-2.119l-1.829-4.087z" fill="#171717"/></svg>