<svg width="752" height="240" fill="none" xmlns="http://www.w3.org/2000/svg"><path d="M152 78.931L76 0 0 78.931l92.236 95.794 12.948-13.448-79.286-82.346L76 26.897l50.102 52.034-10.459 10.862 12.949 13.449L152 78.932z" fill="#A88F6B"/><path d="M0 161.068l76 78.931 76-78.931-92.336-95.587L46.715 78.93l79.387 82.138L76 213.103l-50.102-52.035 10.458-10.862-12.849-13.448L0 161.068z" fill="#A88F6B"/><path d="M230.993 125.764l-3.391-.473c-13.741-2.268-15.972-6.425-15.972-10.582 0-5.292 3.748-9.355 17.935-9.355 3.926 0 9.101 1.039 13.563 3.118l-2.052 4.536 12.135 6.142 8.209-18.142.089-.095c-8.298-7.275-18.56-11.244-31.944-11.244-21.593 0-34.799 9.922-34.799 25.795 0 15.591 8.388 22.205 30.695 25.418l3.301.473c13.652 1.889 18.649 4.913 18.649 11.527 0 6.992-5.8 11.244-20.523 11.244-5.086 0-11.421-1.512-16.686-4.252l2.142-4.819-12.135-6.141L192 167.15c7.317 9.165 21.771 12.851 34.888 12.851 23.914 0 37.298-11.15 37.298-28.158.089-16.063-9.726-22.867-33.193-26.079zm95.386 2.74l18.471-21.166h8.476v-15.78h-16.417l-35.692 42.71v-26.93h6.603v-15.78h-29.981v15.78h6.692v54.709h-6.692v15.78h29.981v-15.78h-6.603v-4.441l14.366-16.44 22.932 36.661h17.132v-15.78h-7.139l-22.129-33.543zM445.588 60h-23.555l-14.634 21.26h17.042L445.588 60zm-30.074 104.032c-17.487 0-28.016-12-28.016-29.292 0-17.953 10.169-29.386 27.836-29.386 17.848 0 28.021 12.094 28.021 29.481 0 17.669-10.353 29.197-27.841 29.197zm-.18-74.363c-25.784 0-44.702 19.181-44.702 45.166 0 25.039 18.468 44.976 44.793 44.976 26.589 0 44.703-19.748 44.703-44.882 0-25.89-18.379-45.26-44.794-45.26zm124.203 49.796c0 18.615-8.03 24.473-21.773 24.473-17.488 0-28.017-11.811-28.017-29.103 0-17.952 10.173-29.385 27.841-29.385 9.993 0 17.578 3.684 22.395 10.11l12.671-9.922c-8.03-9.92-20.256-16.063-35.066-16.063-25.698 0-44.703 19.181-44.703 45.355 0 25.039 18.469 44.788 44.789 44.788 10.889 0 17.402-3.591 21.237-9.921h.27l4.101 8.031h13.032v-43.276h-16.777v4.913zm87.271-32.22h6.599v29.387c0 18.614-8.296 27.307-20.521 27.307-12.937 0-20.522-8.693-20.522-27.307v-29.387h6.603V91.56h-30.069v15.685h6.603v29.387c0 25.039 12.938 43.087 37.295 43.087 24.271 0 37.298-18.048 37.298-43.087v-29.387h6.604V91.56h-30.07v15.685h.18zm95.123 25.135h-28.197v-25.229h28.197c8.656 0 13.207 4.347 13.207 12.851 0 8.976-4.997 12.378-13.207 12.378zm14.278 13.417c9.637-4.063 15.705-13.228 15.705-25.701 0-17.669-11.69-28.536-28.466-28.536h-53.18v15.685h6.784v54.804h-6.784v15.78h30.069v-15.78h-6.603v-13.795h26.054l12.581 29.669H752v-15.779h-8.476l-7.315-16.347z" fill="#EDEDED"/></svg>