<svg width="1386" height="177" fill="none" xmlns="http://www.w3.org/2000/svg"><path d="M363.508 27.722l-.406-10.842h.103l6.483 11.855 25.835 42.148h12.867V4.013h-10.03v43.161l.405 10.941h-.101l-6.586-12.055-25.735-42.047h-12.765v66.87h9.93V27.722zm71.563 13.98h29.383v-9.117h-29.383v-19.25h37.588V4.013h-48.428v66.87h49.846V61.56h-39.006V41.702zm96.327 2.231c0 6.282-1.353 10.943-4.054 13.98-2.702 3.04-6.855 4.56-12.46 4.56s-9.662-1.52-12.361-4.56c-2.702-3.039-4.052-7.7-4.052-13.98V4.013h-10.843V45.25c0 8.849 2.348 15.501 7.041 19.96 4.695 4.459 11.431 6.687 20.215 6.687s15.703-2.228 20.364-6.687c4.661-4.459 6.99-11.111 6.99-19.96V4.013h-10.84v39.92zm76.048 17.628H568.44V41.702h29.383v-9.117H568.44v-19.25h37.588V4.013H557.6v66.87h49.846V61.56zm91.267-57.548l-15.602 44.579-4.052 13.171-4.054-13.273-15.602-44.477h-11.55l24.822 66.87h12.665l24.822-66.87h-11.449zm31.931 0h-10.84v66.87h10.84V4.013zm65.624 58.46c2.228-3.04 3.342-6.618 3.342-10.74 0-4.458-1.35-8.138-4.052-11.042-2.701-2.904-7.295-5.065-13.778-6.485l-13.576-3.039c-3.988-.877-6.705-2.093-8.157-3.648-1.454-1.552-2.178-3.376-2.178-5.471 0-1.824.489-3.46 1.47-4.914.979-1.452 2.513-2.616 4.61-3.496 2.091-.878 4.762-1.316 8.004-1.316 4.389 0 8.191.861 11.398 2.584 3.209 1.723 6.094 4.543 8.664 8.46l7.296-6.99c-3.039-4.39-6.756-7.716-11.146-9.981-4.389-2.26-9.59-3.393-15.602-3.393-5.405 0-10.064.93-13.98 2.786-3.919 1.859-6.906 4.323-8.966 7.395-2.063 3.076-3.092 6.501-3.092 10.284 0 2.906.643 5.523 1.925 7.852 1.282 2.33 3.244 4.305 5.878 5.927 2.635 1.62 5.978 2.87 10.032 3.748l14.69 3.343c3.579.81 6.03 1.96 7.346 3.445 1.319 1.487 1.976 3.21 1.976 5.167 0 1.957-.593 3.767-1.774 5.219-1.183 1.454-2.905 2.55-5.168 3.292-2.263.744-4.948 1.114-8.054 1.114-3.514 0-6.705-.506-9.574-1.52-2.874-1.014-5.387-2.447-7.549-4.306a25.788 25.788 0 01-5.37-6.333l-7.498 7.498c1.826 2.702 4.155 5.102 6.99 7.195 2.837 2.094 6.145 3.748 9.93 4.964 3.782 1.215 8.038 1.824 12.768 1.824 5.334 0 9.981-.811 13.93-2.433 3.951-1.62 7.041-3.951 9.271-6.99h-.006zm28.551-58.46h-10.84v66.87h10.84V4.013zm60.994 3.14C881.083 4.385 875.478 3 868.993 3c-6.484 0-11.988 1.385-16.718 4.153-4.728 2.77-8.377 6.724-10.941 11.854-2.568 5.134-3.852 11.28-3.852 18.44 0 7.161 1.282 13.308 3.852 18.44 2.564 5.134 6.213 9.085 10.941 11.853 4.727 2.77 10.298 4.154 16.718 4.154s12.088-1.383 16.82-4.154c4.725-2.768 8.375-6.721 10.941-11.853 2.566-5.132 3.85-11.279 3.85-18.44 0-7.16-1.282-13.306-3.85-18.44-2.566-5.132-6.216-9.083-10.941-11.854zm1.011 43.82c-1.62 3.75-3.935 6.605-6.94 8.562-3.007 1.96-6.636 2.938-10.891 2.938-4.254 0-7.785-.979-10.789-2.938-3.007-1.96-5.32-4.813-6.942-8.562-1.62-3.748-2.431-8.258-2.431-13.525 0-5.268.809-9.862 2.431-13.576 1.622-3.715 3.935-6.55 6.942-8.511 3.004-1.958 6.6-2.938 10.789-2.938 4.19 0 7.884.98 10.891 2.938 3.005 1.961 5.32 4.796 6.94 8.51 1.622 3.717 2.432 8.243 2.432 13.577s-.808 9.776-2.432 13.525zm72.305-3.799l.402 10.941h-.101l-6.586-12.055-25.733-42.047h-12.765v66.87h9.931V27.722l-.407-10.842h.101l6.485 11.855 25.834 42.148h12.866V4.013h-10.027v43.161zM408.39 105.187h-13.273l-30.699 33.285v-33.285h-10.84v66.87h10.84v-20.595l10.824-11.645 20.991 32.24h12.765l-25.904-39.509 25.296-27.361zm55.338 34.397c4.222-3.409 6.331-8.258 6.331-14.538 0-6.281-2.111-10.907-6.331-14.488-4.224-3.579-9.913-5.371-17.073-5.371h-27.253v66.87h10.739v-26.748h14.379l17.03 26.748h12.46l-18.474-28.443c3.159-.845 5.899-2.177 8.192-4.03zm-33.587-25.176h15.703c4.39 0 7.65.912 9.777 2.735 2.127 1.824 3.193 4.56 3.193 8.208 0 3.648-1.066 6.469-3.193 8.258-2.127 1.79-5.387 2.685-9.777 2.685h-15.703v-21.886zm66.599 28.468h29.382v-9.117H496.74v-19.25h37.588v-9.322H485.9v66.87h49.845v-9.322H496.74v-19.859zm72.721-37.689l-25.227 66.87h11.144l6.383-17.528h28.064l6.382 17.528h11.449l-25.227-66.87h-12.97.002zm-4.661 40.526l11.045-31.206 10.941 31.206H564.8zm40.221-31.204h22.898v57.548h10.84v-57.548h22.896v-9.322h-56.634v9.322zm80.139-9.322h-10.841v66.87h10.841v-66.87zm63.116 3.14c-4.729-2.768-10.335-4.153-16.819-4.153-6.485 0-11.989 1.385-16.719 4.153-4.727 2.77-8.377 6.724-10.941 11.853-2.568 5.134-3.852 11.282-3.852 18.442s1.282 13.307 3.852 18.439c2.564 5.134 6.214 9.085 10.941 11.853 4.728 2.77 10.299 4.154 16.719 4.154 6.42 0 12.088-1.384 16.819-4.154 4.726-2.768 8.376-6.721 10.942-11.853 2.566-5.132 3.85-11.279 3.85-18.439s-1.282-13.308-3.85-18.442c-2.566-5.132-6.216-9.083-10.942-11.853zm1.011 43.82c-1.619 3.749-3.935 6.604-6.939 8.562-3.007 1.959-6.637 2.938-10.891 2.938-4.255 0-7.785-.979-10.79-2.938-3.007-1.96-5.32-4.813-6.942-8.562-1.619-3.749-2.43-8.258-2.43-13.525 0-5.268.809-9.862 2.43-13.576 1.622-3.715 3.935-6.55 6.942-8.511 3.005-1.958 6.6-2.938 10.79-2.938 4.189 0 7.884.98 10.891 2.938 3.004 1.961 5.32 4.796 6.939 8.511 1.622 3.716 2.433 8.241 2.433 13.576 0 5.334-.809 9.776-2.433 13.525zm73.757-3.799l.402 10.941h-.101l-6.584-12.055-25.734-42.047h-12.766v66.87h9.931v-43.161l-.407-10.841h.101l6.485 11.854 25.836 42.148h12.864v-66.87h-10.027v43.161zm36.393-5.472h29.383v-9.117h-29.383v-19.25h37.588v-9.322h-48.428v66.87h49.846v-9.322h-39.006v-19.859zm94.424 5.472l.405 10.941h-.101l-6.586-12.055-25.735-42.047h-12.763v66.87h9.928v-43.161l-.404-10.841h.101l6.483 11.854 25.835 42.148h12.867v-66.87h-10.03v43.161zm81.139-1.925h19.45v1.925c0 2.635-.46 4.913-1.37 6.838-.91 1.925-2.18 3.515-3.8 4.762-1.62 1.252-3.51 2.196-5.67 2.837-2.16.643-4.49.963-6.99.963-4.59 0-8.46-.979-11.6-2.938-3.14-1.96-5.49-4.813-7.04-8.562-1.56-3.749-2.33-8.29-2.33-13.626 0-5.337.88-9.777 2.63-13.526 1.76-3.749 4.21-6.6 7.35-8.561 3.14-1.958 6.8-2.938 10.99-2.938s7.75.93 10.69 2.786c2.94 1.858 5.05 4.645 6.33 8.357l10.03-4.76c-2.56-5.403-5.99-9.388-10.28-11.956-4.29-2.566-9.91-3.85-16.87-3.85-6.35 0-11.97 1.403-16.87 4.204-4.9 2.804-8.68 6.774-11.35 11.904-2.67 5.134-4 11.246-4 18.338 0 7.091 1.28 13.39 3.85 18.489 2.57 5.1 6.15 9.035 10.74 11.803 4.59 2.77 10.03 4.153 16.31 4.153 5.68 0 10.39-1.18 14.14-3.546 2.6-1.642 4.66-3.771 6.24-6.325l.39 8.856h8.11v-34.447H1035v8.82zm87.84-6.839c4.22-3.409 6.33-8.258 6.33-14.538 0-6.281-2.11-10.907-6.33-14.488-4.23-3.579-9.91-5.371-17.07-5.371h-27.26v66.87h10.74v-26.748h14.38l17.03 26.748h12.46l-18.47-28.443c3.16-.845 5.9-2.177 8.19-4.03zm-33.59-25.176h15.71c4.39 0 7.65.912 9.77 2.735 2.13 1.824 3.2 4.56 3.2 8.208 0 3.648-1.07 6.469-3.2 8.258-2.12 1.79-5.38 2.685-9.77 2.685h-15.71v-21.886zm98.41 30.699c0 6.282-1.35 10.943-4.05 13.98-2.7 3.039-6.85 4.56-12.46 4.56-5.61 0-9.66-1.521-12.36-4.56-2.7-3.039-4.05-7.7-4.05-13.98v-39.92h-10.85v41.236c0 8.848 2.35 15.501 7.05 19.96 4.69 4.458 11.43 6.687 20.21 6.687 8.78 0 15.7-2.229 20.36-6.687 4.67-4.459 6.99-11.112 6.99-19.96v-41.236h-10.84v39.92zm64.83-37.386c-3.48-1.689-7.62-2.534-12.41-2.534h-25.74v66.87h10.84v-24.924h14.9c4.79 0 8.93-.844 12.41-2.534 3.48-1.686 6.19-4.103 8.15-7.243 1.96-3.142 2.94-6.873 2.94-11.196 0-4.323-.98-8.139-2.94-11.245s-4.67-5.504-8.15-7.194zm-3.55 27.101c-2.26 1.994-5.79 2.989-10.59 2.989h-13.17v-23.403h13.17c4.8 0 8.33.996 10.59 2.988 2.27 1.994 3.4 4.914 3.4 8.764 0 3.85-1.13 6.671-3.4 8.662zm65.96-27.101c-3.48-1.689-7.62-2.534-12.41-2.534h-25.74v66.87h10.84v-24.924h14.9c4.79 0 8.93-.844 12.41-2.534 3.48-1.686 6.19-4.103 8.16-7.243 1.95-3.142 2.93-6.873 2.93-11.196 0-4.323-.98-8.139-2.93-11.245-1.97-3.106-4.68-5.504-8.16-7.194zm-3.55 27.101c-2.26 1.994-5.79 2.989-10.59 2.989h-13.17v-23.403h13.17c4.8 0 8.33.996 10.59 2.988 2.27 1.994 3.4 4.914 3.4 8.764 0 3.85-1.13 6.671-3.4 8.662zm35.64 27.913v-19.859h29.39v-9.117h-29.39v-19.25h37.59v-9.322h-48.43v66.87H1386v-9.322h-39.01zm.39-112.545c3.73 2.155 8.07 3.232 13.01 3.232 4.94 0 9.21-1.077 12.97-3.233 3.75-2.153 6.68-5.098 8.79-8.828 2.11-3.729 3.16-7.945 3.16-12.644 0-4.7-1.05-8.984-3.16-12.717-2.11-3.729-5.04-6.659-8.79-8.792-3.76-2.131-8.08-3.197-12.97-3.197-4.89 0-9.28 1.078-13.01 3.234-3.73 2.155-6.65 5.085-8.75 8.791-2.11 3.707-3.16 7.933-3.16 12.68 0 4.749 1.05 8.914 3.16 12.645 2.1 3.73 5.02 6.672 8.75 8.828zm-3.96-31.462c1.62-2.979 3.9-5.316 6.83-7.013 2.93-1.694 6.31-2.541 10.14-2.541 3.83 0 7.27.847 10.17 2.541 2.91 1.697 5.16 4.034 6.76 7.013 1.6 2.978 2.4 6.31 2.4 9.99 0 3.681-.8 7.013-2.4 9.992-1.6 2.978-3.85 5.316-6.76 7.012-2.9 1.697-6.3 2.544-10.17 2.544-3.88 0-7.21-.847-10.14-2.544-2.93-1.694-5.2-4.034-6.83-7.012-1.62-2.979-2.43-6.309-2.43-9.991 0-3.682.81-7.013 2.43-9.991z" fill="#101010"/><path d="M1355.59 32.569h4.05l5.98 9.517h6.47l-6.88-10.05c1.31-.38 2.47-.958 3.46-1.758 1.89-1.527 2.84-3.622 2.84-6.285 0-1.791-.43-3.318-1.27-4.578-.85-1.26-2.02-2.252-3.49-2.98-1.48-.726-3.21-1.09-5.2-1.09H1350v26.744h5.59v-9.52zm0-12.79h5.38c1.55 0 2.75.354 3.6 1.054.84.701 1.27 1.805 1.27 3.306 0 1.5-.43 2.604-1.27 3.306-.85.703-2.05 1.053-3.6 1.053h-5.38V19.78z" fill="#101010"/><path d="M256.26 18.702v22.799c0 1.017-1.329 1.393-1.862.526C243.02 23.56 225.007 8.727 203.165 0v15.728c0 .705-.7 1.187-1.359.938-17.222-6.491-36.759-9.95-57.016-9.95-20.257 0-39.803 3.459-57.024 9.958a1.003 1.003 0 01-1.361-.938V0C64.575 8.727 46.56 23.561 35.184 42.019c-.534.865-1.862.49-1.862-.526v-22.79C12.773 36.261 0 60.84 0 88.032c0 27.192 12.773 51.77 33.322 69.34v-22.791c0-1.017 1.328-1.393 1.862-.525 11.378 18.457 29.39 33.291 51.22 42.028v-15.737c0-.706.7-1.187 1.362-.939 17.232 6.499 36.769 9.961 57.024 9.961 20.255 0 39.794-3.46 57.016-9.951a1.002 1.002 0 011.359.939v15.727c21.84-8.745 39.855-23.571 51.231-42.036.533-.866 1.862-.492 1.862.525v22.799c20.548-17.57 33.311-42.138 33.311-69.34 0-27.203-12.763-51.771-33.311-69.33h.002zm-33.119 101.552c-3.009 2.756-6.422 5.383-10.22 7.825-.05.031-.101.061-.141.091-18.035 11.583-42.158 17.975-67.988 17.975s-49.953-6.392-67.978-17.975c-.05-.03-.101-.06-.141-.091-3.798-2.442-7.22-5.069-10.22-7.825-10.42-9.522-16.025-20.66-16.025-32.222 0-11.562 5.603-22.7 16.025-32.221 3.009-2.756 6.422-5.373 10.22-7.815.04-.03.09-.061.141-.081C94.84 36.322 118.972 29.94 144.792 29.94c25.819 0 49.953 6.381 67.988 17.974.04.02.091.05.141.08 3.798 2.445 7.211 5.06 10.22 7.816 10.411 9.522 16.024 20.67 16.024 32.221 0 11.553-5.613 22.7-16.024 32.222z" fill="#FFAD28"/></svg>