<svg xmlns="http://www.w3.org/2000/svg" width="106" height="29" fill="none"><g clip-path="url(#clip0_590_3057)" fill-rule="evenodd" clip-rule="evenodd"><path d="M36.864 22.039c-1.76 1.523-4.084 2.284-6.973 2.284-2.89 0-5.218-.761-6.982-2.284-1.764-1.524-2.645-3.555-2.645-6.092V4.201h7.19v11.774c0 .7.223 1.27.668 1.712.444.44 1.034.661 1.769.661.734 0 1.323-.22 1.768-.661.444-.442.667-1.012.667-1.712V4.2h7.176v11.746c0 2.537-.879 4.569-2.638 6.092zM19.24 23.904h-7.921l-4.564-7.488v7.488H0V4.201h6.755v7.172l4.166-7.172h7.92l-6.413 9.687 6.811 10.016zM48.93 9.808v3.737h1.71c.681 0 1.22-.176 1.614-.529.394-.352.592-.804.592-1.353 0-.55-.198-.996-.592-1.34-.395-.343-.933-.515-1.615-.515H48.93zm4.12 14.097l-2.688-5.345H48.93v5.345h-6.94V4.202h9.774c2.455 0 4.451.686 5.99 2.061 1.54 1.374 2.309 3.174 2.309 5.4 0 1.127-.254 2.146-.76 3.056-.507.912-1.223 1.675-2.147 2.289l3.652 6.897H53.05zm17.393.503c-2.818 0-5.017-.594-6.595-1.782-1.578-1.188-2.367-2.834-2.367-4.939h7.498c0 .424.132.759.396 1.002.264.244.62.367 1.068.367.408 0 .74-.098.993-.292a.943.943 0 00.381-.792.95.95 0 00-.224-.624c-.149-.18-.371-.331-.665-.454a9.05 9.05 0 00-.933-.325 23.491 23.491 0 00-1.195-.305 2.648 2.648 0 00-.104-.02.681.681 0 01-.09-.02c-1.643-.37-2.849-.737-3.615-1.097-2.001-.94-3.072-2.471-3.212-4.594a8.304 8.304 0 01-.014-.501c0-1.934.748-3.444 2.247-4.533 1.5-1.088 3.593-1.633 6.282-1.633 2.638 0 4.7.558 6.183 1.674 1.485 1.116 2.226 2.667 2.226 4.654h-7.214c0-.37-.105-.657-.314-.86-.21-.204-.503-.305-.881-.305-.369 0-.655.079-.86.237-.203.158-.305.377-.305.657 0 .217.07.409.208.576.14.167.38.32.718.46.338.14.642.249.91.326a35.569 35.569 0 001.405.359c.826.199 1.473.364 1.942.495.468.13 1.077.363 1.83.697.752.334 1.331.696 1.74 1.084.408.389.774.92 1.098 1.592.323.674.485 1.439.485 2.297 0 2.078-.794 3.697-2.382 4.858-1.588 1.16-3.801 1.74-6.64 1.74z" fill="#000"/><path d="M106 14.44L90.746 0l-5.168 5.018L95.727 14.5l-10.149 9.482L90.746 29 106 14.56l-.063-.06.063-.06z" fill="#E35358"/></g><defs><clipPath id="clip0_590_3057"><path fill="#fff" d="M0 0h106v29H0z"/></clipPath></defs></svg>