<svg xmlns="http://www.w3.org/2000/svg" width="107" height="23" fill="none"><path d="M16.87 0l-4.233 21.71 22.831 1V4.57L16.87 0z" fill="#FBE244"/><path d="M77.139 13.642v.396h-1.123v.797h1.034v.396h-1.034v1.286h-.387v-2.875h1.51zm2.076 2.931a1.554 1.554 0 01-.598-.112 1.673 1.673 0 01-.498-.31 1.44 1.44 0 01-.47-1.072 1.418 1.418 0 01.468-1.072 1.628 1.628 0 011.104-.421c.206-.002.411.036.603.112.184.073.353.178.498.31a1.41 1.41 0 01.468 1.072h-.008a1.42 1.42 0 01-.469 1.071 1.67 1.67 0 01-.498.31c-.19.077-.394.115-.6.112zm-.01-2.57a1.272 1.272 0 00-.469.08 1.106 1.106 0 00-.624.574 1.013 1.013 0 000 .854 1.104 1.104 0 00.624.574c.15.056.31.083.47.081.16 0 .319-.03.468-.087a1.111 1.111 0 00.624-.574.973.973 0 00.094-.42v-.005a.983.983 0 00-.093-.417 1.112 1.112 0 00-.625-.574 1.3 1.3 0 00-.469-.087zm2.675 2.515h-.388v-2.875h.941a.947.947 0 01.344.06.878.878 0 01.276.169.73.73 0 01.183.257c.042.107.063.22.062.335a.802.802 0 01-.182.534.792.792 0 01-.484.27l.754 1.248h-.473l-.734-1.233h-.3v1.235zm0-2.48v.847h.596v.005a.383.383 0 00.297-.127.444.444 0 000-.602.396.396 0 00-.297-.122h-.596zm6.082 1.997a1.053 1.053 0 01-.469.396 1.73 1.73 0 01-.733.147 1.67 1.67 0 01-.594-.108 1.46 1.46 0 01-.947-1.385 1.458 1.458 0 01.947-1.385c.19-.072.393-.11.599-.108.257-.002.512.056.743.167.097.045.187.104.266.173a.89.89 0 01.172.203l-.12.351a1.024 1.024 0 00-.181-.188 1.319 1.319 0 00-.245-.157 1.322 1.322 0 00-.604-.148 1.462 1.462 0 00-.484.076.993.993 0 00-.615.557 1.128 1.128 0 00-.083.452c-.001.156.03.312.089.457.054.13.137.247.245.34.109.095.236.167.374.214.156.052.32.078.484.076.222.005.442-.044.64-.142.166-.078.311-.195.422-.34l.115.345-.021.007zm1.09.483h-.388v-2.875h.941a.946.946 0 01.343.06.877.877 0 01.277.169.73.73 0 01.183.257c.042.107.063.22.062.335a.802.802 0 01-.182.534.792.792 0 01-.484.27l.754 1.248h-.473l-.734-1.233h-.3v1.235zm0-2.48v.847h.596v.005a.383.383 0 00.297-.127.444.444 0 000-.602.396.396 0 00-.297-.122h-.596zm3.845-.395v.396h-1.273v.797h1.142v.396h-1.142v.889h1.273v.396h-1.66v-2.874h1.66zm.856 2.874h-.417l1.213-2.874h.426l1.213 2.873h-.416l-.277-.669h-1.461l-.281.67zm1.009-2.392l-.562 1.326h1.124l-.562-1.326zm3.798-.482v.396h-.996v2.478h-.388V14.04h-1.01v-.396h2.394zm1.927 2.93a1.554 1.554 0 01-.598-.112 1.663 1.663 0 01-.499-.31 1.412 1.412 0 01-.47-1.072 1.426 1.426 0 01.469-1.072 1.622 1.622 0 011.103-.421 1.59 1.59 0 01.603.112c.184.073.353.178.499.31a1.431 1.431 0 01.468 1.071h-.009a1.416 1.416 0 01-.468 1.072 1.683 1.683 0 01-.498.31 1.56 1.56 0 01-.6.112zm-.011-2.57a1.29 1.29 0 00-.468.08c-.138.05-.264.127-.371.226a1.083 1.083 0 00-.254.349 1.02 1.02 0 000 .853c.06.13.145.247.25.346.11.099.236.176.375.229.15.055.309.083.468.08.161 0 .32-.029.469-.086a1.11 1.11 0 00.625-.574 1.01 1.01 0 00.093-.422v-.004a1.003 1.003 0 00-.093-.417 1.091 1.091 0 00-.625-.574 1.3 1.3 0 00-.469-.087zm2.673 2.515h-.387v-2.875h.941a.945.945 0 01.343.06.887.887 0 01.277.169c.08.071.142.16.182.257.043.107.064.22.063.335a.806.806 0 01-.182.534.796.796 0 01-.485.27l.755 1.248h-.473l-.735-1.233h-.299v1.235zm0-2.48v.847h.596v.005a.372.372 0 00.297-.127.443.443 0 00.12-.304.423.423 0 00-.255-.39.4.4 0 00-.162-.03h-.596zm3.423 1.098c.062.054.119.108.172.157.051.05.096.104.135.162a.78.78 0 01.089.183.72.72 0 01.031.216.691.691 0 01-.245.548.976.976 0 01-.65.209 1.18 1.18 0 01-.333-.046 1.373 1.373 0 01-.282-.113.926.926 0 01-.209-.153.633.633 0 01-.124-.162l.114-.366a1.033 1.033 0 00.844.432.549.549 0 00.359-.097.303.303 0 00.119-.244.332.332 0 00-.083-.229 1.431 1.431 0 00-.203-.193c-.11-.081-.198-.152-.271-.208-.072-.055-.134-.108-.187-.147l-.14-.108a1.575 1.575 0 01-.336-.36.559.559 0 01-.099-.336.625.625 0 01.06-.286.6.6 0 01.172-.205.8.8 0 01.255-.127c.102-.031.209-.047.317-.046.169-.002.335.038.484.117a.88.88 0 01.311.261l-.088.36a1.012 1.012 0 00-.299-.24.855.855 0 00-.403-.102.638.638 0 00-.296.061.204.204 0 00-.115.192c0 .039.009.077.027.112a.26.26 0 00.072.09c.062.058.126.112.193.163.161.117.286.208.38.274.094.066.176.127.244.183l-.015.048zM78.717 8.734l.417 2.875h-.387l-.344-2.189-.888 2.19h-.388l-.911-2.19-.314 2.19h-.406l.422-2.876h.426l.969 2.311.972-2.31h.432zm2.868 0v.396H80.31v.798h1.143v.396H80.31v.889h1.274v.396h-1.661V8.734h1.66zm1.765 2.876h-.979V8.733h.98l-.007.005c.23-.003.458.03.677.096.195.059.377.153.536.278.152.122.273.277.354.452.086.192.129.4.125.61.004.21-.038.42-.125.612-.08.174-.2.327-.349.447-.158.126-.34.22-.535.28a2.22 2.22 0 01-.677.095zm-.599-2.474v2.084h.74l-.007.01h.008a1.23 1.23 0 00.461-.08 1.23 1.23 0 00.364-.224.954.954 0 00.24-.33.976.976 0 00.088-.41.976.976 0 00-.322-.742 1.23 1.23 0 00-.364-.227 1.25 1.25 0 00-.469-.081h-.739zm2.983 2.474h.388V8.733h-.388v2.875zm1.38 0h-.417l1.213-2.876h.427l1.212 2.874h-.415l-.277-.67h-1.462l-.281.671zm1.01-2.393l-.562 1.326h1.124l-.563-1.326zM10.163 7.64l1.292 9.024H9.468l-.74-5.149-2.048 5.15H4.9l-2.017-5.15-.787 5.149H0L1.276 7.64h2.017l2.442 5.873L8.177 7.64h1.986zm11.407 7.796c-.337.49-.813.875-1.37 1.107a5.362 5.362 0 01-2.27.432 5.204 5.204 0 01-1.876-.358 5.04 5.04 0 01-1.592-.968 4.826 4.826 0 01-1.103-1.49 4.358 4.358 0 01-.425-1.921 4.36 4.36 0 01.425-1.922 4.942 4.942 0 011.118-1.507 5.049 5.049 0 011.592-.969 5.197 5.197 0 011.875-.354c.403 0 .804.042 1.198.124a4.64 4.64 0 011.024.324c.287.133.556.298.804.491.22.169.412.371.567.6l-.63 1.69a3.26 3.26 0 00-1.087-.797 3.736 3.736 0 00-1.702-.37 3.979 3.979 0 00-1.245.185c-.363.118-.7.301-.993.54a2.42 2.42 0 00-.668.845 2.364 2.364 0 00-.23 1.043 2.401 2.401 0 00.898 1.891c.293.24.63.423.993.54.402.128.822.19 1.245.185.6.018 1.195-.109 1.733-.369.415-.198.78-.481 1.072-.83l.648 1.75v.108zm2.24-.861a1.345 1.345 0 01.99-.384 1.377 1.377 0 01.991.384 1.288 1.288 0 01.394.966 1.287 1.287 0 01-.394.967 1.35 1.35 0 01-.99.385 1.379 1.379 0 01-.99-.385 1.288 1.288 0 01-.394-.966 1.28 1.28 0 01.394-.967zm8.914 1.399c-.208.278-.484.5-.803.648a2.753 2.753 0 01-1.214.261 2.608 2.608 0 01-1.08-.141 2.561 2.561 0 01-.92-.568 2.822 2.822 0 01-.665-2v-3.35h-1.384v-.631l2.789-3.445h.615v2h2.568v2.075h-2.585v2.921a.952.952 0 00.3.815c.203.153.453.235.71.231.238.007.475-.04.692-.138.214-.111.402-.263.554-.446l.425 1.753-.002.015zm5.595.923a4.298 4.298 0 01-1.654-.324 4.527 4.527 0 01-1.371-.877 4.268 4.268 0 01-.947-1.32A3.907 3.907 0 0134 12.713a3.902 3.902 0 01.347-1.66c.226-.495.547-.944.946-1.323a4.55 4.55 0 011.37-.875 4.393 4.393 0 013.31 0 4.53 4.53 0 011.37.875c.398.379.72.827.946 1.323.236.523.355 1.089.348 1.66v.016a3.854 3.854 0 01-.346 1.66 4.175 4.175 0 01-.946 1.307 4.518 4.518 0 01-1.37.877 4.297 4.297 0 01-1.656.323zm.03-6.258a2.49 2.49 0 00-.898.154 2.265 2.265 0 00-.725.432 1.833 1.833 0 00-.473.657 2.136 2.136 0 00-.172.848v.03c-.001.291.058.579.172.847.106.252.267.477.473.66.211.189.457.335.725.433.286.106.591.158.898.154a2.326 2.326 0 001.592-.585c.205-.187.37-.411.488-.66.127-.265.192-.554.19-.847a1.966 1.966 0 00-.19-.86 2.136 2.136 0 00-.489-.677 2.35 2.35 0 00-.709-.432 2.368 2.368 0 00-.882-.154zm9.736 6.258a4.21 4.21 0 01-1.575-.307 3.995 3.995 0 01-1.324-.862 4.128 4.128 0 01-.897-1.322 4.213 4.213 0 01-.332-1.692l.016.047a4.227 4.227 0 01.332-1.691c.209-.494.513-.943.897-1.323a4.08 4.08 0 011.308-.861 4.062 4.062 0 011.544-.308 3.645 3.645 0 011.545.293c.361.144.661.405.85.738V5.503h2.002v11.194h-1.938v-.83c-.19.338-.497.6-.867.738a3.737 3.737 0 01-1.56.292zm.236-6.227a2.627 2.627 0 00-.944.153 2.3 2.3 0 00-.74.433 1.83 1.83 0 00-.473.66 2.138 2.138 0 00-.174.846v.016c0 .29.059.578.174.846.105.252.267.478.472.661.217.188.468.335.74.432.303.109.623.16.945.154.466.006.926-.1 1.34-.308.34-.148.615-.41.774-.74v-2.107a1.54 1.54 0 00-.775-.74 2.894 2.894 0 00-1.339-.306zm10.099 6.228c-.54 0-1.075-.104-1.575-.307a4.007 4.007 0 01-2.22-2.186 4.201 4.201 0 01-.332-1.667 4.2 4.2 0 01.332-1.669 4.14 4.14 0 01.897-1.323 3.997 3.997 0 011.323-.86 4.206 4.206 0 011.576-.308 3.73 3.73 0 011.56.292c.37.138.676.4.866.738v-.83h1.938v7.918h-1.938v-.83c-.19.338-.497.6-.866.739a3.735 3.735 0 01-1.56.293zm.222-6.227a2.619 2.619 0 00-.944.154 2.3 2.3 0 00-.74.432 1.83 1.83 0 00-.474.661 2.135 2.135 0 00-.173.846v.015c0 .29.059.578.173.846.106.252.267.478.473.662.217.188.468.335.74.432.303.108.623.16.945.153.466.007.926-.1 1.34-.308.34-.15.614-.415.772-.745V11.71a1.544 1.544 0 00-.773-.734 2.89 2.89 0 00-1.34-.308l.001.002zm7.752-1.923l2.126 4.92 2.127-4.92h2.225l-4.856 11.194h-2.19l1.654-3.767-3.246-7.427h2.16z" fill="#000"/></svg>