<svg width="45" height="45" fill="none" xmlns="http://www.w3.org/2000/svg"><rect x=".5" y=".5" width="44" height="44" rx="22" stroke="#F6F1EB"/><path d="M31.073 14.501c.6 0 1.054.532.811 1.52l-2.941 13.982c-.206.994-.801 1.234-1.624.771l-7.015-5.226a.212.212 0 01-.065-.27.211.211 0 01.065-.075l8.101-7.38c.37-.329-.079-.488-.564-.19l-10.168 6.47a.242.242 0 01-.21.026l-4.318-1.377c-.959-.282-.959-.946.216-1.42l17.274-6.72a1.13 1.13 0 01.438-.111z" stroke="#F6F1EB" stroke-linecap="round" stroke-linejoin="round"/></svg>