<svg width="52" height="52" viewBox="0 0 52 52" fill="none" xmlns="http://www.w3.org/2000/svg">
<path d="M6.49346 40.6591C6.49346 40.8709 6.67116 41.0428 6.89011 41.0428H12.349C12.5679 41.0428 12.7456 40.8709 12.7456 40.6591V29.0741H17.8412C17.9914 29.0741 18.1283 28.9922 18.1955 28.8628C18.2627 28.7328 18.2489 28.5773 18.159 28.4612L12.9937 21.7527H17.8406C17.8422 21.7527 17.8443 21.7527 17.8459 21.7527C18.0553 21.7578 18.2479 21.5823 18.2479 21.369C18.2479 21.2544 18.196 21.1515 18.1141 21.0814L13.3475 14.8922H17.8406C17.8422 14.8922 17.8443 14.8922 17.8459 14.8922C18.0553 14.8927 18.2479 14.7218 18.2479 14.5085C18.2479 14.3939 18.196 14.2911 18.1141 14.221L9.93738 3.60235C9.78772 3.40794 9.45083 3.40794 9.30117 3.60235L1.08008 14.2793C0.990698 14.3959 0.97642 14.551 1.04358 14.6809C1.11075 14.8103 1.24825 14.8927 1.39792 14.8927H5.89056L1.07955 21.1403C0.99017 21.2569 0.975891 21.4119 1.04306 21.5419C1.11022 21.6713 1.24772 21.7537 1.39739 21.7537H6.24437L1.07849 28.4617C0.989112 28.5783 0.974833 28.7333 1.042 28.8633C1.10916 28.9927 1.24667 29.0746 1.39633 29.0746H6.49188V40.6591H6.49346ZM2.18803 28.3067L7.35391 21.5987C7.44329 21.482 7.45757 21.327 7.39041 21.1971C7.32324 21.0676 7.18574 20.9853 7.03607 20.9853H2.18856L6.99958 14.7377C7.08896 14.621 7.10324 14.466 7.03607 14.3361C6.96891 14.2067 6.8314 14.1243 6.68174 14.1243H2.18909L9.61954 4.47359L17.0505 14.1248H12.5579C12.4077 14.1248 12.2707 14.2067 12.2035 14.3366C12.1364 14.466 12.1501 14.6216 12.24 14.7382L17.051 20.9858H12.2035C12.0533 20.9858 11.9164 21.0676 11.8492 21.1976C11.782 21.327 11.7958 21.4825 11.8857 21.5992L17.0516 28.3072H12.349C12.13 28.3072 11.9523 28.4791 11.9523 28.6909V40.2764H7.28675V28.6904C7.28675 28.4786 7.10905 28.3067 6.89011 28.3067H2.18803Z" fill="#A88F6B" stroke="#A88F6B"/>
<path d="M19.4727 19.225C19.5399 19.3544 19.6774 19.4368 19.827 19.4368H23.336V27.565C23.336 27.7768 23.5137 27.9487 23.7326 27.9487H27.6145C27.8334 27.9487 28.0111 27.7768 28.0111 27.565V19.4368H31.5201C31.6697 19.4368 31.8072 19.3549 31.8744 19.225C31.9421 19.0956 31.9278 18.94 31.8385 18.8234L28.3015 14.2303H31.5201C31.5238 14.2303 31.528 14.2303 31.5307 14.2303C31.7501 14.2303 31.9273 14.0584 31.9273 13.8466C31.9273 13.732 31.8755 13.6292 31.7935 13.5591L28.5527 9.35125H31.5201C31.5238 9.35125 31.528 9.35125 31.5307 9.35125C31.7501 9.35125 31.9273 9.17935 31.9273 8.96756C31.9273 8.85296 31.8755 8.75013 31.7935 8.68004L25.9919 1.1458C25.8423 0.951399 25.5054 0.951399 25.3557 1.1458L19.5097 8.73887C19.4203 8.85552 19.4061 9.01053 19.4732 9.14047C19.5404 9.26991 19.6779 9.35227 19.8276 9.35227H22.7939L19.5092 13.6185C19.4198 13.7346 19.4055 13.8901 19.4727 14.0195C19.5399 14.149 19.6774 14.2313 19.827 14.2313H23.0457L19.5087 18.8244C19.4198 18.94 19.4055 19.0956 19.4727 19.225ZM24.1547 14.0763C24.2441 13.9597 24.2583 13.8047 24.1912 13.6747C24.124 13.5453 23.9865 13.4629 23.8368 13.4629H20.6182L23.9029 9.19675C23.9923 9.08062 24.0066 8.92509 23.9394 8.79566C23.8723 8.66623 23.7348 8.58386 23.5851 8.58386H20.6187L25.6751 2.01756L30.7316 8.58386H27.7641C27.6145 8.58386 27.477 8.66572 27.4098 8.79566C27.3421 8.92509 27.3564 9.08062 27.4458 9.19726L30.7316 13.4634H27.5129C27.3633 13.4634 27.2258 13.5453 27.1586 13.6752C27.0909 13.8047 27.1052 13.9602 27.1946 14.0768L30.7316 18.6699H27.6161C27.3971 18.6699 27.2194 18.8418 27.2194 19.0536V27.1818H24.1309V19.0531C24.1309 18.8413 23.9532 18.6694 23.7342 18.6694H20.6187L24.1547 14.0763Z" fill="#A88F6B" stroke="#A88F6B"/>
<path d="M36.6039 24.6366C38.9234 16.185 33.8977 8.34948 33.8464 8.27121C33.7295 8.09215 33.4847 8.03843 33.2996 8.1515C33.1139 8.26456 33.0589 8.50194 33.1763 8.68099C33.2255 8.7562 38.0688 16.3083 35.8375 24.4401C34.4017 29.6727 30.384 34.0171 23.8965 37.3527L2.55706 48.3254C2.3635 48.4246 2.29052 48.6569 2.39312 48.8441C2.46452 48.9741 2.60149 49.0478 2.74375 49.0478C2.80669 49.0478 2.87015 49.0334 2.92991 49.0027L24.2693 38.0301C30.9594 34.5896 35.1093 30.0835 36.6039 24.6366Z" fill="#A88F6B" stroke="#A88F6B"/>
<path d="M42.1391 8.26704C42.0196 8.08951 41.7742 8.03887 41.5907 8.15397C41.4072 8.26908 41.3548 8.50646 41.4738 8.6845C41.5039 8.73003 44.5121 13.2847 45.0388 19.3139C45.7433 27.3643 41.9223 34.0959 33.6827 39.3228C17.9497 49.3019 12.5516 50.229 12.5003 50.2371C12.284 50.2694 12.1354 50.4653 12.1687 50.6745C12.1989 50.8638 12.3676 50.9999 12.5601 50.9999C12.5802 50.9999 12.6008 50.9984 12.6209 50.9953C12.8399 50.9631 18.1697 50.0801 34.1174 39.9638C54.4218 27.0845 42.2644 8.45326 42.1391 8.26704Z" fill="#A88F6B" stroke="#A88F6B"/>
<path d="M50.6031 41.7533C49.0895 41.7533 47.9598 41.7554 47.0312 42.138C46.9275 41.1711 46.5129 40.2482 45.7809 39.3877C45.7767 39.3826 45.7704 39.3805 45.7667 39.3765C45.7471 39.356 45.7238 39.3412 45.7 39.3243C45.6815 39.3115 45.6641 39.2966 45.644 39.2874C45.6218 39.2772 45.5974 39.2736 45.5731 39.267C45.5461 39.2603 45.5207 39.2532 45.4938 39.2516C45.4869 39.2516 45.4821 39.248 45.4753 39.248C43.298 39.248 41.4998 41.1118 41.2619 43.5009C40.6293 43.3162 39.872 43.2344 38.882 43.2344C38.663 43.2344 38.4854 43.4063 38.4854 43.6181C38.4854 47.1025 41.9906 49.9373 46.2992 49.9373C48.9351 49.9373 51.0002 46.5111 51.0002 42.1375C50.9997 41.9252 50.822 41.7533 50.6031 41.7533ZM45.287 40.0262C45.9274 40.8319 46.2553 41.6894 46.2643 42.5816C45.5139 43.1622 44.8856 44.1578 44.2451 45.8425C43.4556 44.8756 42.8267 44.2212 42.0356 43.8109C42.1345 41.7712 43.5381 40.1367 45.287 40.0262ZM46.2987 49.1694C42.594 49.1694 39.5584 46.8872 39.3024 44.0084C41.8441 44.08 42.4465 44.8316 44.0616 46.8636C44.0685 46.8723 44.0791 46.8754 44.0865 46.8831C44.1108 46.9092 44.1383 46.9296 44.1695 46.9486C44.1886 46.9598 44.206 46.9726 44.2266 46.9808C44.2356 46.9844 44.2409 46.991 44.2499 46.9936C44.2917 47.0069 44.334 47.0135 44.3758 47.0135C44.3811 47.0135 44.3863 47.0115 44.3911 47.011C44.4276 47.0094 44.4641 47.0048 44.4979 46.9946C44.5101 46.9905 44.5212 46.9828 44.5323 46.9777C44.5598 46.9665 44.5868 46.9547 44.6101 46.9378C44.6122 46.9363 44.6148 46.9358 44.6169 46.9342C44.6238 46.9291 44.627 46.9219 44.6333 46.9163C44.6614 46.8923 44.6862 46.8657 44.7068 46.8345C44.7158 46.8207 44.7227 46.8063 44.7301 46.7915C44.7365 46.7782 44.746 46.7664 44.7513 46.7521C46.1554 42.6993 47.1533 42.5289 50.1937 42.5212C50.079 46.1622 48.3448 49.1694 46.2987 49.1694Z" fill="#A88F6B" stroke="#A88F6B"/>
</svg>
