<svg width="48" height="32" viewBox="0 0 48 32" fill="none" xmlns="http://www.w3.org/2000/svg">
<path d="M11.3042 17.9006C11.4692 17.5196 11.2861 17.0541 10.7441 16.4761C8.50666 14.0905 6.1062 12.632 6.00453 12.5716L5.64011 12.3521L5.55417 12.7686C5.48321 13.1131 4.89271 16.1681 6.06409 17.2819C6.75209 17.9363 8.74313 18.4633 9.93305 18.4633C10.6809 18.4638 11.1425 18.2744 11.304 17.9003L11.3042 17.9006ZM6.06832 13.3281C6.83036 13.8331 8.63328 15.1066 10.3042 16.8881C10.7272 17.3386 10.7837 17.5862 10.7516 17.6601C10.7211 17.7296 10.5122 17.8601 9.93303 17.8601C8.77403 17.8601 6.99799 17.3386 6.47957 16.8451C5.80199 16.2006 5.91253 14.3681 6.06811 13.3281L6.06832 13.3281Z" fill="#A88F6B" stroke="#A88F6B"/>
<path d="M46.8627 15.0826C46.6807 12.4791 45.6667 12.035 43.9872 11.3C43.5332 11.101 43.0132 10.872 42.4322 10.5669C44.8827 10.3688 45.5502 9.53993 45.7237 9.01939C45.9223 8.42239 45.6477 7.75247 45.0067 7.27134C44.0022 6.51726 42.6047 6.46585 41.8352 6.85143C41.3927 7.07246 41.1492 7.42989 41.1492 7.85893C41.1492 8.40335 40.7502 8.64101 40.4757 8.73947C39.6226 7.38093 38.0471 5.07005 36.2644 3.42447C33.7514 1.10547 27.2369 1.10547 25.0965 1.10547L23.999 1.10791L22.9005 1.10547C20.7596 1.10547 14.2455 1.10547 11.7339 3.42447C9.95083 5.07047 8.37337 7.38151 7.52095 8.73947C7.24751 8.641 6.84795 8.40353 6.84795 7.85893C6.84795 7.43039 6.60397 7.07247 6.16241 6.85143C5.39141 6.4665 3.99491 6.51793 2.99037 7.27134C2.34891 7.7518 2.07533 8.42189 2.27391 9.01939C2.44692 9.53989 3.11441 10.3688 5.56541 10.5669C4.98337 10.8715 4.46383 11.1005 4.00941 11.3C2.33037 12.0355 1.31541 12.4796 1.13391 15.0826C0.87496 18.7886 0.809856 21.2476 0.881956 24.4826C0.904906 25.4785 1.08492 26.2121 1.33441 26.7521V29.6896C1.33441 30.3537 1.87541 30.8947 2.54 30.8947H6.83708C7.50212 30.8947 8.04312 30.3537 8.04312 29.6896V28.6361C16.3785 29.2275 23.8985 29.4971 23.9881 29.5L23.9987 29.5009L24.0093 29.5C24.0988 29.497 31.6201 29.2275 39.9543 28.6356V29.6891C39.9543 30.3532 40.4953 30.8942 41.1603 30.8942H45.457C46.122 30.8942 46.663 30.3532 46.663 29.6891V26.7516C46.9125 26.2116 47.0926 25.4782 47.1155 24.4821C47.1878 21.2449 47.1218 18.785 46.8632 15.0825L46.8627 15.0826ZM41.7527 7.85922C41.7527 7.6657 41.8712 7.50766 42.1043 7.3908C42.7013 7.09328 43.8632 7.16831 44.6448 7.75376C44.9793 8.00424 45.2879 8.4188 45.1513 8.8288C45.0603 9.09979 44.5208 9.97234 41.4469 10.0043C41.3364 9.93622 41.2249 9.86624 41.1105 9.7912C41.0564 9.69713 40.9495 9.51125 40.7965 9.25866C41.2571 9.05424 41.7527 8.62664 41.7527 7.85922ZM2.8452 8.82864C2.70914 8.41864 3.01773 8.00459 3.3517 7.75359C4.13329 7.16768 5.29716 7.0931 5.89174 7.39064C6.12531 7.50767 6.24428 7.66522 6.24428 7.85906C6.24428 8.62714 6.73924 9.05451 7.20082 9.25864C7.04783 9.51108 6.94024 9.6971 6.88686 9.79118C6.77244 9.86622 6.66078 9.9362 6.54978 10.0042C3.4762 9.97217 2.93616 9.10014 2.8452 8.82864ZM7.44062 28.5932V29.6897C7.44062 30.0218 7.17011 30.2923 6.83712 30.2923H2.54004C2.208 30.2923 1.93654 30.0218 1.93654 29.6897V27.6313C2.50895 28.1958 3.10645 28.2522 3.15495 28.2563H3.15544C3.264 28.2662 3.37647 28.2749 3.48649 28.2838C3.69255 28.3014 3.89844 28.3188 4.10545 28.3357C4.305 28.3522 4.51089 28.3688 4.71399 28.3857C4.84192 28.3956 4.96904 28.4062 5.09697 28.4161C5.28903 28.4316 5.4845 28.4466 5.67947 28.4622C5.82254 28.4728 5.96446 28.4837 6.10751 28.4943C6.30201 28.5097 6.49895 28.5247 6.69801 28.5392C6.83408 28.5491 6.96949 28.5597 7.10459 28.5696C7.21705 28.5773 7.32692 28.5852 7.44052 28.5932L7.44062 28.5932ZM23.9985 28.8977C23.6571 28.8862 15.7335 28.5958 7.20687 27.9708C7.07438 27.9609 6.94141 27.9513 6.80941 27.9423C6.61898 27.9269 6.42741 27.9129 6.23795 27.8984C6.07796 27.8859 5.91845 27.8738 5.76136 27.8624C5.56589 27.847 5.37188 27.832 5.17737 27.8164C5.05041 27.8064 4.92639 27.7959 4.80139 27.7859C4.26885 27.7439 3.73643 27.7 3.20585 27.6539C3.20178 27.6539 3.19234 27.653 3.18127 27.651C3.1772 27.65 3.17427 27.65 3.1702 27.65C3.16272 27.6481 3.15214 27.646 3.14221 27.644C2.94527 27.603 2.33067 27.4116 1.90671 26.5405L1.87823 26.484C1.6642 26.019 1.5042 25.3745 1.48467 24.4686C1.41159 21.2536 1.47718 18.8086 1.73467 15.1244C1.89173 12.885 2.63117 12.5609 4.25013 11.8519C4.93063 11.5539 5.75259 11.1919 6.71367 10.6104H6.72018V10.6068C6.90215 10.4963 7.08721 10.3814 7.27977 10.2538L7.34031 10.2137L7.3753 10.1498C7.39728 10.1107 9.59439 6.21832 12.1416 3.86728C14.4801 1.70828 20.817 1.70828 22.8991 1.70828L23.9975 1.71121L25.095 1.70828C27.1775 1.70828 33.5146 1.70828 35.8533 3.86728C38.4004 6.21837 40.5967 10.1114 40.6192 10.1502L40.6542 10.2137L40.7152 10.2537C40.9073 10.3812 41.0922 10.4962 41.2736 10.6063V10.6103H41.2806C42.2415 11.1919 43.0637 11.5539 43.7437 11.8519C45.3641 12.5609 46.1032 12.8854 46.2591 15.1243C46.5171 18.8063 46.5827 21.2518 46.5096 24.4685C46.4896 25.3729 46.3296 26.0184 46.1165 26.482L46.0876 26.5404C45.6566 27.426 45.0275 27.6099 44.8417 27.6459C44.8376 27.6469 44.8322 27.6478 44.8291 27.6488C44.8207 27.6498 44.8132 27.6508 44.8067 27.6517C44.7997 27.6527 44.7912 27.6537 44.7881 27.6537C44.4611 27.6822 44.1262 27.7102 43.7876 27.7377C43.6655 27.7483 43.5436 27.7582 43.4216 27.7681C43.1916 27.7867 42.9601 27.8051 42.7251 27.8236C42.6037 27.8326 42.4831 27.8422 42.3607 27.8521C42.1213 27.8706 41.8797 27.889 41.6362 27.9076C41.5117 27.9165 41.3862 27.9261 41.2617 27.9351C41.0412 27.9515 40.8172 27.9681 40.5932 27.9851C32.1428 28.6006 24.3366 28.8858 23.9978 28.8976L23.9985 28.8977ZM45.456 30.2923H41.1594C40.8268 30.2923 40.5563 30.0218 40.5563 29.6897V28.5932C40.6719 28.5853 40.7834 28.5768 40.8983 28.5677C41.0278 28.5587 41.1577 28.5482 41.2868 28.5392C41.4888 28.5247 41.6898 28.5088 41.8888 28.4931C42.0273 28.4826 42.1668 28.4726 42.3058 28.4611C42.5054 28.4466 42.7064 28.4306 42.9028 28.415C43.0189 28.4061 43.1359 28.3965 43.2518 28.3865C43.4658 28.3701 43.6794 28.3525 43.8888 28.3346C43.9668 28.3286 44.0454 28.3221 44.1229 28.3161C44.3623 28.2956 44.6033 28.276 44.8369 28.2555H44.8399C44.9004 28.2505 45.4924 28.1889 46.0589 27.6296V29.6891C46.0589 30.0218 45.7884 30.2924 45.4559 30.2924L45.456 30.2923Z" fill="#A88F6B" stroke="#A88F6B"/>
<path d="M24.0009 9.85192C29.93 9.85192 39.1954 10.2993 39.2875 10.3039L39.8565 10.3314L39.56 9.84543C36.921 5.52251 34.0483 3.39043 33.9275 3.3021L33.871 3.26059L33.8015 3.24855C29.7074 2.52459 24.0673 2.31609 23.9898 2.31396C23.9334 2.31592 18.2927 2.52442 14.199 3.24855L14.129 3.26059L14.0735 3.3021C13.9526 3.39064 11.0805 5.52264 8.44059 9.84543L8.14453 10.3314L8.71307 10.3039C8.80617 10.2994 18.0722 9.85192 24.001 9.85192H24.0009ZM14.3763 3.82942C18.4223 3.12288 23.9559 2.91892 23.99 2.91651C24.045 2.91846 29.5784 3.12305 33.625 3.82942C34.016 4.13134 36.4486 6.08838 38.7421 9.67442C36.6186 9.57693 29.0871 9.24897 24.0009 9.24897C18.9134 9.24897 11.3825 9.57693 9.25961 9.67442C11.5524 6.08851 13.9842 4.13151 14.3759 3.82942H14.3763Z" fill="#A88F6B" stroke="#A88F6B"/>
<path d="M37.2572 16.4764C36.7152 17.0538 36.5323 17.5198 36.6971 17.9009C36.8586 18.2749 37.3202 18.4643 38.0681 18.4643C39.2585 18.4643 41.2495 17.9368 41.937 17.2829C43.1096 16.1689 42.5181 13.1141 42.4476 12.7695L42.3617 12.353L41.9966 12.5726C41.8952 12.6325 39.4941 14.091 37.257 16.4765L37.2572 16.4764ZM41.933 13.3282C42.0885 14.3683 42.1995 16.2008 41.5216 16.8452C41.003 17.3387 39.2276 17.8601 38.0681 17.8601C37.4896 17.8601 37.2802 17.7291 37.2501 17.6601C37.2175 17.586 37.2751 17.3386 37.697 16.8881C39.365 15.1093 41.17 13.8342 41.9329 13.3282L41.933 13.3282Z" fill="#A88F6B" stroke="#A88F6B"/>
<path d="M37.4221 21.4886C37.1076 21.478 36.6897 21.4905 36.2676 21.5236C30.3206 21.9941 24.0872 22.1456 24.0243 22.1476L24.0098 22.1486L23.9778 22.1476C23.9153 22.1456 17.6811 21.9941 11.7357 21.5236C11.3107 21.4905 10.8928 21.4755 10.5803 21.4886L9.82617 21.5161L10.3916 22.0161C11.033 22.5846 12.165 23.3196 13.2446 23.6811C15.9012 24.5696 22.1092 25.6391 24.0017 25.6391C25.8932 25.6391 32.1013 24.5696 34.7588 23.6811C35.8378 23.3196 36.9697 22.5846 37.6123 22.0161L38.1784 21.5141L37.4221 21.4886ZM34.5666 23.1087C31.9522 23.9837 25.8546 25.0363 24.0012 25.0363C22.1472 25.0363 16.0512 23.9837 13.4358 23.1087C12.7613 22.8833 12.0649 22.4991 11.4988 22.1116C11.5608 22.1157 11.6238 22.1196 11.6863 22.1241C17.6505 22.5966 23.9009 22.7491 23.9613 22.7501L24.0098 22.7511L24.0398 22.7501C24.1023 22.7491 30.3527 22.5966 36.3156 22.1241C36.3786 22.1191 36.4416 22.1152 36.5036 22.1116C35.9373 22.4991 35.2397 22.8831 34.5664 23.1087H34.5666Z" fill="#A88F6B" stroke="#A88F6B"/>
<path d="M29.9381 12.5496C29.7847 12.683 29.6426 12.8426 29.4936 13.0081C29.1891 13.337 28.9087 13.7067 28.5566 14.0276C28.2036 14.3421 27.7837 14.5947 27.2921 14.7487C26.8032 14.9096 26.2612 14.9847 25.7062 15.0402C25.1507 15.0937 24.5747 15.1002 24.0011 15.1032C23.4217 15.0991 22.8506 15.0937 22.2956 15.0392C21.741 14.9827 21.1981 14.9087 20.7106 14.7477C20.2186 14.5932 19.7982 14.3406 19.4451 14.0262C19.0926 13.7047 18.8146 13.3382 18.5076 13.0057C18.3612 12.8447 18.2227 12.6881 18.0656 12.5513C17.9167 12.4098 17.7741 12.2803 17.6326 12.1703C17.3576 11.9383 17.0986 11.7622 16.8846 11.6218C16.4531 11.3423 16.1865 11.2202 16.1865 11.2202C16.1865 11.2202 16.4276 11.3862 16.813 11.7178C17.005 11.8828 17.2336 12.0887 17.4775 12.3403C17.604 12.4629 17.7265 12.6009 17.8525 12.7479C17.9826 12.8878 18.1105 13.0529 18.242 13.2279C18.5019 13.5599 18.764 13.9759 19.1325 14.3499C19.5014 14.7254 19.987 15.062 20.534 15.2484C21.0775 15.4448 21.6549 15.5584 22.238 15.6188C22.822 15.6818 23.417 15.6963 24.001 15.7059C25.174 15.6873 26.3755 15.6439 27.4674 15.2479C28.0145 15.0609 28.499 14.724 28.868 14.3495C29.2384 13.9745 29.499 13.5604 29.7594 13.2259C29.8885 13.056 30.014 12.8934 30.147 12.7498C30.2744 12.6009 30.3974 12.4613 30.5244 12.3398C30.7684 12.0889 30.9964 11.8818 31.1889 11.7173C31.5739 11.3862 31.8149 11.2202 31.8149 11.2202C31.8149 11.2202 31.5494 11.3423 31.1175 11.6217C30.903 11.7627 30.6445 11.9388 30.3694 12.1707C30.2272 12.2817 30.0861 12.4107 29.9381 12.5497L29.9381 12.5496Z" fill="#A88F6B" stroke="#A88F6B"/>
</svg>
