<svg width="42" height="53" viewBox="0 0 42 53" fill="none" xmlns="http://www.w3.org/2000/svg">
<path d="M30.6857 12.9816C30.6795 12.9816 30.6739 12.9782 30.6684 12.9782C25.7861 13.1394 21.4793 10.0881 20.164 5.58898C20.1612 5.578 20.1529 5.57046 20.1495 5.56017C20.1405 5.53822 20.1302 5.51902 20.1177 5.49913C20.1053 5.47993 20.0922 5.46278 20.0756 5.44632C20.0618 5.43192 20.0473 5.42026 20.0308 5.4086C20.0094 5.39351 19.9873 5.38117 19.9625 5.37088C19.9535 5.36745 19.9473 5.35991 19.9376 5.35716C19.928 5.35442 19.919 5.35648 19.91 5.35442C19.8859 5.34893 19.8617 5.34619 19.8362 5.34619C19.8113 5.34619 19.7886 5.34756 19.7651 5.35236C19.7554 5.35442 19.7458 5.35236 19.7361 5.35511C19.7265 5.35785 19.7196 5.36471 19.7099 5.36882C19.6857 5.37843 19.6643 5.3894 19.643 5.4038C19.6257 5.41546 19.6098 5.42712 19.5953 5.44152C19.5795 5.45661 19.5664 5.47307 19.5532 5.49159C19.5394 5.51079 19.5284 5.53068 19.5194 5.55263C19.5153 5.56292 19.507 5.56977 19.5043 5.58075C18.3263 9.24244 15.254 11.9645 11.4855 12.6847C11.4786 12.686 11.4731 12.6908 11.4668 12.6922C11.4441 12.6977 11.4234 12.708 11.402 12.7189C11.382 12.7286 11.3626 12.7368 11.3447 12.7498C11.3288 12.7622 11.3157 12.7779 11.3019 12.793C11.2854 12.8109 11.2688 12.828 11.2564 12.8493C11.2529 12.8554 11.2467 12.8589 11.2433 12.865C8.43945 18.2825 10.5546 24.7321 16.0669 27.5529C17.6148 28.2991 19.2537 28.653 20.8692 28.653C24.9745 28.653 28.926 26.3719 30.8354 22.464C32.3722 19.5677 32.4288 16.1817 30.9907 13.175C30.9327 13.0523 30.8113 12.9844 30.6857 12.9816ZM30.2192 22.1533C27.7204 27.2683 21.5055 29.4122 16.3754 26.9391C11.2612 24.3226 9.27307 18.3648 11.7933 13.3177C15.4093 12.5646 18.3987 10.0805 19.8182 6.70003C21.4675 10.8809 25.6281 13.6695 30.3268 13.6695C30.3675 13.6695 30.4076 13.6682 30.449 13.6682C31.6966 16.4273 31.6249 19.5033 30.2192 22.1533Z" fill="#A88F6B" stroke="#A88F6B" stroke-width="1.2"/>
<path d="M16.3254 36.4535C9.02567 38.2319 3.39597 43.7824 1.57829 50.9638L1 50.4679C2.96812 43.2014 8.72479 37.5995 16.1653 35.7862C27.2342 33.2266 38.032 39.6735 41 50.5008L40.418 50.9886C37.6703 40.3328 27.1275 33.9545 16.3254 36.4535Z" fill="#A88F6B"/>
<path d="M40.421 51.0001C40.42 50.9963 40.419 50.9924 40.418 50.9886M40.418 50.9886C37.6703 40.3328 27.1275 33.9545 16.3254 36.4535C9.02567 38.2319 3.39597 43.7824 1.57829 50.9638L1 50.4679C2.96812 43.2014 8.72479 37.5995 16.1653 35.7862C27.2342 33.2266 38.032 39.6735 41 50.5008L40.418 50.9886Z" stroke="#A88F6B" stroke-width="1.2"/>
<path d="M6.12434 35.8221C6.3148 35.8221 6.46938 35.6684 6.46938 35.4791V16.015C6.46938 7.98046 12.8685 1.68584 21.037 1.68584C29.1241 1.68584 35.4577 7.97977 35.4577 16.015V35.4791C35.4577 35.6684 35.6123 35.8221 35.8028 35.8221C35.9932 35.8221 36.1478 35.6684 36.1478 35.4791V16.015C36.1478 7.73561 29.3691 1 21.037 1C12.4814 1 5.7793 7.59502 5.7793 16.015V35.4791C5.7793 35.6684 5.93319 35.8221 6.12434 35.8221Z" fill="#A88F6B" stroke="#A88F6B" stroke-width="1.2"/>
<path d="M28.3477 46.2998H34.9315" stroke="#A88F6B" stroke-width="1.2"/>
</svg>
