<svg width="52" height="52" viewBox="0 0 52 52" fill="none" xmlns="http://www.w3.org/2000/svg">
<path d="M23.1938 12.4458C21.1782 12.7934 19.2536 13.6002 17.5901 14.8045L16.9695 15.2777L16.6626 15.5157L16.3941 15.7667L15.8581 16.2688L15.7242 16.3944L15.6379 16.4773L15.5751 16.5493L15.3237 16.8371C14.9883 17.2205 14.6445 17.5961 14.3661 18.0252L13.9257 18.6491C13.7881 18.8624 13.6712 19.0898 13.5435 19.3093C11.8702 22.2584 11.3337 25.7643 11.9979 28.9828C12.2529 30.2659 12.7006 31.496 13.2947 32.6436C13.2521 32.6494 13.208 32.6625 13.1607 32.6925C12.4082 33.1657 11.7346 33.7392 11.0989 34.3574C10.7811 34.6662 10.4726 34.9866 10.1683 35.3112C9.83073 35.6694 9.49887 36.1248 9.28023 36.5975C8.7827 37.639 8.69701 38.8554 9.0216 39.9384C9.18623 40.4852 9.43707 40.9778 9.79749 41.4369C10.1335 41.8623 10.5505 42.2294 11.0231 42.5036C11.812 42.9542 12.7115 43.1291 13.5554 43.0335C14.4009 42.9427 15.1892 42.6034 15.8176 42.0776C16.1386 41.8229 16.3868 41.5193 16.66 41.2331C16.9285 40.9463 17.2017 40.6637 17.4821 40.3864C18.0435 39.8318 18.6324 39.2976 19.266 38.7908C19.3143 38.7525 19.3221 38.7031 19.3164 38.6553C21.3158 39.669 23.5464 40.2073 25.7956 40.1716C28.9963 40.1501 32.1965 38.93 34.7023 36.7566C35.2611 36.2745 35.2481 35.9425 34.7667 36.2808C34.5008 36.4709 34.2328 36.6631 33.9617 36.8564C33.6812 37.0339 33.392 37.1926 33.1105 37.3638C32.8363 37.5439 32.5304 37.6852 32.2245 37.8312C31.9176 37.9736 31.6252 38.1448 31.2975 38.2519C30.0412 38.7903 28.6634 39.1217 27.2472 39.2635C24.4225 39.5466 21.3564 38.9736 18.8054 37.3554C18.4694 37.1836 18.1874 36.9273 17.8737 36.7178C17.5569 36.5108 17.279 36.2529 16.9955 36.0019L16.5681 35.6274L16.5411 35.6038L16.5343 35.598C16.5265 35.5901 16.5774 35.6437 16.5525 35.6179L16.54 35.6043L16.4891 35.5497L16.3868 35.4394L16.1822 35.2198C15.9194 34.9262 15.6089 34.6363 15.4105 34.3401C14.4866 33.2019 13.7159 31.8238 13.2521 30.4046C12.2971 27.5558 12.3428 24.4444 13.2957 21.8834C13.9262 20.0935 14.9711 18.4138 16.2959 17.0803C16.6579 16.7547 17.0111 16.4022 17.3808 16.0987C17.7657 15.8261 18.1193 15.5162 18.5281 15.2704C19.3351 14.7641 20.1837 14.315 21.0842 14.0009C22.8744 13.3444 24.8073 13.0865 26.7102 13.2457C28.6141 13.4069 30.4738 14.0172 32.1258 14.981C35.4361 16.9091 37.8811 20.3325 38.5386 24.154C39.2329 27.9587 38.2628 32.0633 35.837 35.1022C34.963 36.1232 34.9401 36.8412 36.0427 35.7377C37.3083 34.4288 38.3158 32.8169 38.9509 31.047C39.5892 29.278 39.8577 27.3562 39.7325 25.4534C39.61 23.55 39.0932 21.6665 38.2244 19.9664C38.0146 19.5383 37.7482 19.1402 37.5113 18.7274C37.2569 18.3219 36.9416 17.9369 36.6565 17.5441C36.3626 17.1649 36.0536 16.866 35.7529 16.523L35.6391 16.3986L35.6106 16.3676L35.5779 16.3324L35.5695 16.325L35.5535 16.3103L35.4875 16.251L35.2237 16.013L34.696 15.5398C31.5649 12.8281 27.2114 11.7225 23.1938 12.4458ZM13.5455 33.0974C14.4206 34.6458 15.5684 36.0271 16.9264 37.1311C17.5932 37.6653 18.3104 38.1285 19.0599 38.5282C18.3967 38.7488 17.7797 39.1059 17.2006 39.5529C16.903 39.7829 16.6159 40.0356 16.3359 40.305C16.1962 40.4395 16.0586 40.5781 15.9231 40.7199L15.7205 40.9342L15.6701 40.9888L15.6577 41.0025C15.6317 41.0277 15.6909 40.9705 15.6842 40.9768L15.6826 40.9783L15.6795 40.982L15.6727 40.9883L15.6463 41.0146L15.5413 41.1191C15.3892 41.283 15.2952 41.3439 15.1882 41.4484C15.0578 41.5398 14.9316 41.6475 14.7883 41.7247C14.511 41.8969 14.2041 42.033 13.8826 42.1123C13.2443 42.2867 12.5427 42.2546 11.9699 42.0135C11.5726 41.8565 11.1836 41.5949 10.8876 41.3113L10.6404 41.0445C10.5687 40.9573 10.5126 40.8738 10.4467 40.7893C10.3257 40.6091 10.2098 40.4137 10.1216 40.2094C9.75594 39.3932 9.71024 38.4347 9.98756 37.5796C10.1247 37.1516 10.3397 36.7487 10.6175 36.3947C10.8912 36.0576 11.2677 35.6946 11.584 35.3417C12.243 34.63 12.887 33.9062 13.5061 33.1631C13.5248 33.1426 13.5341 33.12 13.5455 33.0974Z" fill="#A88F6B" stroke="#A88F6B" stroke-width="0.5"/>
<path d="M31.6574 18.1739C31.2804 17.905 30.8722 17.6724 30.4645 17.4612C29.9914 17.2832 29.5401 17.0579 29.0592 16.9229L28.3321 16.748L27.9701 16.6692C27.8476 16.6545 27.7224 16.6492 27.5993 16.6408C25.9416 16.5069 24.4843 16.9833 22.9263 17.04C22.836 17.0379 22.8656 17.2926 22.9497 17.3514C23.3221 17.6114 23.6965 17.7265 24.0689 17.7464C24.2626 17.7443 24.4246 17.769 24.5892 17.7658C24.7539 17.7632 24.9175 17.7417 25.0826 17.7081C25.4056 17.6167 25.7738 17.5925 26.1244 17.5169C26.4807 17.4334 26.8286 17.4276 27.1475 17.4617C27.3687 17.4885 27.5957 17.5001 27.8143 17.5516L28.463 17.7401C28.906 17.8441 29.3022 18.0705 29.7166 18.2533L30.0262 18.3956L30.316 18.5747C30.5097 18.6929 30.7055 18.8084 30.9049 18.9208C31.3027 19.1472 31.6501 19.4455 32.0615 19.6792C32.2017 19.7638 32.574 19.4781 32.493 19.2911C32.3003 18.8552 32.0059 18.4791 31.6574 18.1739Z" fill="#A88F6B" stroke="#A88F6B" stroke-width="0.5"/>
<path d="M48.2985 3.11266C47.4312 2.33796 46.3967 1.74919 45.289 1.39729C45.0137 1.30485 44.727 1.2497 44.4471 1.1767C44.161 1.11367 43.852 1.08478 43.5559 1.04172C43.2635 1.00863 43.02 1.01651 42.7494 1.0018C42.4108 0.991295 42.16 1.02964 41.8619 1.04329C39.5565 1.23815 37.4008 2.46769 35.9689 4.26552C35.77 4.13946 35.5026 3.98873 35.1422 3.80647C30.0288 1.31798 23.8471 0.919865 18.2539 2.62893C15.4484 3.48189 12.8289 4.8879 10.4965 6.71987L9.6225 7.42104C9.35036 7.66159 9.09953 7.90897 8.83726 8.1532L8.44776 8.52033L8.25301 8.70363L8.15589 8.79502L8.13148 8.81813C8.07903 8.86855 8.10396 8.84701 8.0863 8.86487L8.0406 8.91687L7.30833 9.74356L6.57763 10.5708C6.32731 10.8407 6.13723 11.1606 5.91444 11.4532L5.27046 12.3502C5.16451 12.4999 5.05338 12.647 4.95211 12.7998L4.6753 13.2778C2.99473 16.0131 1.85426 19.0867 1.33389 22.2617C0.810399 25.4366 0.90336 28.7124 1.60654 31.8464C2.30816 34.9841 3.61585 37.9647 5.45119 40.5929L6.17047 41.5667L6.53037 42.052C6.65189 42.2116 6.78952 42.3445 6.91831 42.4916L7.70251 43.3561L8.09461 43.7878L8.19276 43.8955L8.2608 43.9695L8.31637 44.0194L8.5376 44.219C9.13432 44.7421 9.70247 45.2999 10.3231 45.7905C10.9665 46.2527 11.5939 46.7374 12.2498 47.1771C14.4679 48.6041 16.9031 49.6183 19.4042 50.2601L20.3473 50.4812C20.661 50.5574 20.9741 50.633 21.2956 50.664L23.2073 50.9187L25.1278 50.9891C25.4472 51.0117 25.7666 50.9959 26.0855 50.9712L27.0416 50.9135C29.5806 50.7076 32.0869 50.1514 34.4286 49.1766C36.762 48.1871 38.9302 46.8483 40.8782 45.2264C44.7172 41.9532 47.5429 37.4642 48.795 32.5045C50.0746 27.5517 49.7724 22.1571 47.8908 17.2495C47.6821 16.7164 47.4904 16.3965 47.3803 16.3067C47.733 16.041 48.0674 15.7489 48.3754 15.4291C49.7121 14.0624 50.568 12.2037 50.757 10.2142C50.8002 9.77665 50.554 9.63799 50.4626 9.98149C50.0902 11.5083 49.4348 12.9905 48.3551 14.2358C47.2967 15.4711 45.8519 16.4722 44.1921 16.874C43.7798 16.9716 43.3591 17.0588 42.9312 17.0809L42.6102 17.1093L42.5905 17.1108L42.5853 17.1114C42.5754 17.1114 42.6497 17.1129 42.6159 17.1124H42.605L42.5609 17.1119L42.4726 17.1103L42.296 17.1071C42.067 17.0993 41.8078 17.1119 41.6204 17.0772C40.8144 17.0126 39.932 16.7868 39.1717 16.417C37.6272 15.6849 36.3595 14.4164 35.703 12.9758C35.2294 11.9878 34.9713 10.8565 34.9697 9.77245C34.9853 9.4841 34.9864 9.1842 35.0149 8.90531C35.0617 8.63587 35.0793 8.36591 35.1468 8.0949C35.2715 7.55129 35.4366 7.01399 35.6781 6.50978C36.145 5.49558 36.8347 4.58433 37.6807 3.85847C38.5288 3.13209 39.5409 2.60897 40.6123 2.31643C42.7593 1.73028 45.1576 2.11316 46.9939 3.40363C48.8397 4.67309 50.1385 6.75874 50.4138 9.04082C50.4818 9.82655 50.9575 10.1548 50.9965 9.20259C51.0681 6.97145 50.0481 4.64893 48.2985 3.11266ZM35.5883 4.7608C34.8731 5.79391 34.3954 6.97933 34.1996 8.22673C34.1653 8.53871 34.0947 8.88588 34.1014 9.16372L34.0884 9.6007L34.0853 9.70995L34.0838 9.79293L34.0879 9.85123L34.1035 10.0839C34.1248 10.3938 34.1393 10.7037 34.2042 11.0083C34.2515 11.315 34.3107 11.6181 34.4047 11.9138C34.9562 13.8981 36.2323 15.6087 37.8796 16.6691C39.5176 17.7416 41.5144 18.1707 43.3887 17.9454C44.7966 17.7663 46.1422 17.2195 47.2848 16.3818C47.2868 16.4711 47.3164 16.6176 47.385 16.8309C48.7493 20.7249 49.2749 25.3179 48.4995 29.9393C47.7423 34.5523 45.5871 39.1538 42.1973 42.7279L41.9133 43.043L41.5643 43.3666L40.8673 44.0152L40.1709 44.6644L39.448 45.2154L38.7256 45.7658C38.4877 45.9528 38.2468 46.1366 37.9772 46.2879L36.4093 47.2553C34.2499 48.4202 31.9321 49.2522 29.5718 49.726C28.9771 49.8226 28.3856 49.9192 27.7962 50.0153C27.2 50.0537 26.6063 50.092 26.0153 50.1309L25.5724 50.1598L25.1304 50.1482C24.8359 50.1382 24.5425 50.1288 24.2496 50.1188C23.9567 50.1088 23.6643 50.0994 23.373 50.0894C23.0827 50.0663 22.796 50.0174 22.5083 49.9833C20.1993 49.7554 18.0113 49.0841 16.0207 48.2212C13.2464 47.0001 10.6954 45.1991 8.58694 43.0052L7.8069 42.1376C7.55554 41.8434 7.26471 41.5709 7.05698 41.2531C6.6171 40.6297 6.13879 40.0362 5.72696 39.3896C5.34576 38.7221 4.93029 38.0713 4.57611 37.3885C4.26191 36.6853 3.91447 35.9956 3.6252 35.2808C1.3422 29.537 1.41646 22.8798 3.81736 17.1765C5.00092 14.3245 6.76147 11.7053 8.90997 9.52612C10.0421 8.43839 11.1826 7.42629 12.469 6.58541C12.7894 6.37428 13.1015 6.14948 13.4287 5.94937L14.4321 5.38476L14.9337 5.10219C15.1046 5.01606 15.2807 4.9399 15.4541 4.85797L16.498 4.37476C19.3221 3.17674 22.3764 2.56433 25.4347 2.4971C28.4967 2.46191 31.5582 3.03177 34.4234 4.12371C34.9386 4.34588 35.379 4.50344 35.7134 4.59746C35.6734 4.65313 35.6267 4.7046 35.5883 4.7608Z" fill="#A88F6B" stroke="#A88F6B" stroke-width="0.5"/>
<path d="M42.8496 4.17863C42.9317 4.18808 42.9681 4.21119 43.034 4.21855C43.0958 4.24638 43.1644 4.27212 43.2282 4.30416C43.4791 4.44649 43.693 4.68862 43.8047 5.01478C43.8447 5.11457 44.3111 5.20386 44.3801 5.00427C44.5598 4.53473 44.3801 3.94175 43.9818 3.5825C43.8831 3.49112 43.7787 3.40498 43.6562 3.34615C43.5409 3.28208 43.4204 3.22273 43.2526 3.18439C43.1747 3.1639 43.0958 3.14762 43.0189 3.13397C42.9499 3.12399 42.9281 3.13081 42.8803 3.12819H42.7562H42.7411H42.7369L42.6606 3.12451L42.6575 3.12504L42.6455 3.12661L42.5967 3.13292L42.4996 3.14762C41.9346 3.2264 41.4251 3.56255 41.1389 4.02842C41.0668 4.14396 41.0164 4.27317 40.9629 4.39607C40.9219 4.53998 40.8798 4.72013 40.873 4.83673L40.8762 4.97434L40.8782 5.04314L40.8788 5.06047L40.8767 5.12508L40.8788 5.13716L40.8871 5.18548C40.9156 5.31363 40.926 5.44283 40.9826 5.55996C41.1338 5.96018 41.4355 6.26638 41.7751 6.42184C41.9465 6.49432 42.1205 6.54842 42.3142 6.56365C42.4134 6.58256 42.4716 6.55998 42.55 6.55893L42.6788 6.54895L42.8003 6.52006C43.4375 6.35934 43.9112 5.88612 44.1345 5.21226C44.1625 5.14608 43.9127 5.10092 43.8338 5.14713C43.6608 5.24693 43.5108 5.39136 43.3872 5.38979C43.3352 5.39871 43.2817 5.40974 43.2272 5.42445C43.1768 5.43706 43.1431 5.45334 43.0974 5.45806C42.9447 5.49168 42.873 5.53632 42.7702 5.59672C42.6954 5.66448 42.4513 5.7107 42.3506 5.7296C42.1787 5.73013 41.9725 5.64399 41.8821 5.48485C41.8458 5.43285 41.8297 5.37088 41.7995 5.31258C41.7892 5.28159 41.7881 5.24903 41.7808 5.21699L41.7725 5.16814L41.7673 5.14398L41.7647 5.1319L41.7637 5.1256L41.7632 5.12402C41.7622 5.13926 41.7647 5.08831 41.7611 5.15764V5.15344C41.7673 5.06678 41.7679 4.96173 41.7803 4.89083C41.8042 4.83883 41.8011 4.79051 41.8333 4.73011C41.9398 4.48273 42.1636 4.28945 42.4227 4.21224C42.4845 4.1802 42.5562 4.19018 42.6232 4.17338C42.6284 4.17128 42.6835 4.16655 42.6476 4.16602L42.7151 4.17075L42.8496 4.17863Z" fill="#A88F6B" stroke="#A88F6B" stroke-width="0.5"/>
<path d="M40.2338 6.58739C40.0587 6.48865 39.877 6.39621 39.6417 6.34211C39.5311 6.31165 39.4194 6.28486 39.3088 6.26123C39.207 6.24232 39.1504 6.24915 39.0689 6.24232L38.8414 6.23129L38.8129 6.23024H38.8061L38.7303 6.22656H38.7282L38.7235 6.22709L38.7048 6.22919L38.63 6.23864L38.482 6.2586C37.6189 6.36049 36.8254 6.85998 36.3637 7.5727C36.2479 7.74918 36.1674 7.94981 36.0759 8.13784C36.0147 8.35475 35.9451 8.60633 35.9238 8.79646L35.9155 9.04699L35.9118 9.17252L35.9108 9.20404L35.9082 9.27547L35.9108 9.29437L35.9217 9.37106C35.9617 9.57379 35.9659 9.78125 36.0495 9.96928C36.2608 10.6132 36.7106 11.1384 37.2533 11.432C37.3925 11.5029 37.5374 11.556 37.6739 11.6153C37.8131 11.672 37.9793 11.6899 38.1253 11.724C38.2816 11.7666 38.4021 11.7398 38.5402 11.7477C38.6155 11.7461 38.6555 11.7529 38.7599 11.7451L38.9718 11.7067C40.093 11.5098 40.9998 10.6037 41.234 9.4157C41.2678 9.2928 41.02 9.23082 40.9364 9.32274C40.8424 9.42358 40.7578 9.52915 40.6809 9.63734C40.6072 9.75499 40.5007 9.80279 40.4327 9.87422L40.3304 9.96718L40.2083 10.0617C40.1309 10.1237 40.0733 10.1936 39.9876 10.2403C39.6962 10.4593 39.4148 10.6557 39.0704 10.7655C38.7568 10.8858 38.2551 10.8968 37.9435 10.8044C37.5618 10.6936 37.1858 10.4288 37.0113 10.0696C36.9412 9.95037 36.9121 9.81277 36.8565 9.68356C36.8383 9.61633 36.8357 9.5449 36.8238 9.47557L36.8093 9.37053L36.8015 9.31801L36.7973 9.29175L36.7952 9.27862L36.7947 9.27599C36.8082 9.12053 36.8118 8.94878 36.8383 8.81065C36.8882 8.68774 36.896 8.56222 36.9656 8.43564C37.1998 7.91357 37.6745 7.50757 38.2239 7.35316C38.3569 7.29171 38.5059 7.30852 38.6461 7.28015C38.67 7.277 38.7438 7.26702 38.7266 7.26912L38.8502 7.27963L39.0974 7.29906C39.2538 7.31955 39.3592 7.37364 39.4979 7.40043C39.6256 7.46293 39.7622 7.52281 39.8889 7.59634C40.3844 7.91409 40.7614 8.44089 40.8985 9.06643C40.9494 9.27179 41.4189 9.39784 41.4765 9.08271C41.6401 8.3432 41.3316 7.48341 40.7256 6.94349C40.5755 6.80693 40.4202 6.6751 40.2338 6.58739Z" fill="#A88F6B" stroke="#A88F6B" stroke-width="0.5"/>
<path d="M47.8299 11.1325C47.8969 11.1398 47.9193 11.1566 47.9707 11.1598L48.126 11.2239C48.3275 11.3315 48.5082 11.5164 48.6152 11.7822C48.6531 11.861 49.1184 11.9429 49.1901 11.7669C49.3729 11.3525 49.2197 10.8121 48.8634 10.4886C48.7746 10.4061 48.6806 10.3294 48.571 10.2764C48.4677 10.2191 48.3592 10.1666 48.2049 10.1314C48.1332 10.113 48.0621 10.0983 47.9909 10.0873C47.9276 10.0789 47.9141 10.0857 47.8725 10.0841L47.7687 10.0857H47.7562H47.7526L47.6778 10.082H47.6752L47.6643 10.0836L47.6207 10.0894L47.5334 10.1025C47.0286 10.1766 46.5747 10.4796 46.3239 10.8966C46.2605 10.9996 46.2159 11.1151 46.1702 11.2249C46.1333 11.3541 46.0969 11.5196 46.0928 11.622L46.1094 11.925C46.1354 12.038 46.1478 12.1519 46.1982 12.2543C46.3374 12.6062 46.6095 12.8688 46.9087 12.997C47.0593 13.0564 47.2114 13.0994 47.3818 13.1089C47.4695 13.1225 47.5152 13.1015 47.5817 13.0984L47.6928 13.0873L47.7957 13.06C48.3358 12.9072 48.7232 12.5212 48.945 11.9497C48.972 11.8951 48.7222 11.8531 48.6438 11.8904C48.2937 12.1388 48.0699 12.059 47.9499 12.0794C47.8248 12.0758 47.7962 12.0905 47.7411 12.1404C47.7136 12.1976 47.5209 12.2507 47.4628 12.2922C47.3329 12.3153 47.161 12.2643 47.0868 12.1456C47.0572 12.1073 47.0447 12.06 47.0187 12.0159C47.0104 11.9928 47.0084 11.9676 47.0027 11.9434L46.9943 11.9061L46.9902 11.8872L46.9876 11.8778L46.9865 11.873V11.872C46.9855 11.8872 46.9881 11.8368 46.9845 11.9061V11.9051V11.9014C46.9886 11.83 46.9886 11.7396 46.998 11.684C47.0172 11.6467 47.011 11.613 47.0364 11.5658C47.1169 11.3735 47.2904 11.2228 47.4913 11.1614C47.5396 11.1356 47.5952 11.144 47.6471 11.1298C47.6487 11.1277 47.7001 11.1235 47.6606 11.123L47.7167 11.1262L47.8299 11.1325Z" fill="#A88F6B" stroke="#A88F6B" stroke-width="0.5"/>
<path d="M41.672 12.7548C41.7805 12.7679 41.8418 12.8026 41.9342 12.8168C42.0199 12.8572 42.1129 12.895 42.1996 12.9418C42.5382 13.1477 42.8109 13.4922 42.9319 13.926C42.976 14.0636 43.4429 14.1666 43.5083 13.9255C43.6823 13.3588 43.4559 12.6697 42.9833 12.2453C42.8649 12.1382 42.7423 12.0352 42.5974 11.9659C42.4603 11.8892 42.318 11.8183 42.1259 11.7742C42.036 11.7506 41.9456 11.7301 41.8563 11.7128C41.7753 11.6996 41.741 11.7065 41.6813 11.7023L41.5198 11.698L41.4995 11.6975H41.4943L41.418 11.6938L41.4144 11.6944L41.3998 11.6959L41.3422 11.7033L41.2264 11.7196C40.5543 11.8068 39.942 12.2012 39.5925 12.7564C39.5048 12.894 39.4435 13.0489 39.3765 13.1949C39.3282 13.3651 39.2768 13.571 39.2643 13.7144L39.2633 13.8924V13.9817V14.0038L39.2617 14.0715L39.2638 14.0862L39.2737 14.1445C39.3064 14.2995 39.3142 14.457 39.3801 14.5994C39.5531 15.0873 39.9083 15.4728 40.3212 15.6776C40.5294 15.7738 40.7429 15.8478 40.9797 15.8735C41.0991 15.9009 41.1801 15.8767 41.2793 15.8793C41.3354 15.8767 41.3557 15.8793 41.4414 15.872L41.5956 15.8394C42.4073 15.6656 43.0368 15.0369 43.2642 14.1776C43.2944 14.091 43.0456 14.04 42.9646 14.1025C42.7885 14.2385 42.6353 14.4208 42.4977 14.4565C42.4317 14.4891 42.3715 14.5185 42.3144 14.5463C42.2541 14.5768 42.2121 14.612 42.1518 14.6319C41.9493 14.7322 41.8023 14.8315 41.6128 14.9098C41.4518 14.997 41.1152 15.03 40.9381 15.0085C40.6909 14.9691 40.424 14.8189 40.303 14.5873C40.2542 14.5111 40.2339 14.4218 40.1944 14.3378C40.182 14.2942 40.1799 14.2475 40.1711 14.2023L40.1597 14.1335L40.1539 14.0988L40.1508 14.0815L40.1493 14.0726L40.1487 14.071C40.1565 13.9633 40.1591 13.8436 40.1757 13.7538C40.2085 13.6766 40.2095 13.5999 40.2547 13.5153C40.4074 13.1692 40.7211 12.8992 41.0851 12.7942C41.1724 12.7516 41.2715 12.7637 41.365 12.7432C41.377 12.7406 41.4393 12.7338 41.4102 12.7343L41.4975 12.7411L41.672 12.7548Z" fill="#A88F6B" stroke="#A88F6B" stroke-width="0.5"/>
<path d="M46.6235 5.92262C46.6947 5.9305 46.7201 5.94888 46.7757 5.95361L46.9403 6.02241C47.1538 6.13849 47.3433 6.33807 47.4514 6.61854C47.4898 6.70257 47.9556 6.78661 48.0263 6.60436C48.2085 6.17578 48.0481 5.6222 47.6819 5.29026C47.5905 5.2057 47.4945 5.12639 47.3812 5.07176C47.2748 5.01294 47.1631 4.95832 47.0052 4.9226C46.932 4.90369 46.8588 4.88899 46.7861 4.87691C46.7222 4.8685 46.7061 4.87481 46.6635 4.87323L46.5545 4.87428H46.541H46.5378L46.4615 4.87061H46.4589L46.448 4.87218L46.4028 4.87848L46.3135 4.89214C45.7936 4.96725 45.3267 5.2787 45.0666 5.70781C45.0011 5.81443 44.9549 5.93313 44.9071 6.04605C44.8697 6.17893 44.8318 6.34857 44.8271 6.45362L44.8432 6.76823C44.8697 6.88535 44.8817 7.00247 44.9336 7.10857C45.0754 7.47202 45.3553 7.74566 45.6643 7.88012C45.8201 7.94262 45.978 7.98884 46.1535 7.99934C46.2444 8.01405 46.2932 7.99251 46.3623 7.99041L46.4781 7.97938L46.5861 7.95155C47.1501 7.79661 47.5589 7.38799 47.7806 6.79134C47.8081 6.73409 47.5583 6.69102 47.4794 6.73041C47.3085 6.8155 47.159 6.94417 47.0411 6.92737C46.9408 6.92422 46.837 6.95363 46.7752 6.951C46.6427 6.95678 46.6033 6.97884 46.5368 7.03136C46.4984 7.09124 46.2922 7.14271 46.2231 7.17842C46.0829 7.19628 45.9022 7.13641 45.8238 7.0072C45.7921 6.96571 45.7791 6.91476 45.7521 6.86697C45.7427 6.84176 45.7412 6.81497 45.7355 6.78871L45.7277 6.75037L45.723 6.73041L45.7209 6.71991L45.7194 6.71465V6.7136V6.71308C45.7183 6.72831 45.7209 6.67789 45.7173 6.74722V6.74354C45.722 6.66843 45.722 6.57442 45.7324 6.51454C45.7526 6.47305 45.7474 6.43629 45.7739 6.38587C45.8611 6.17945 46.0471 6.01821 46.2621 5.95256C46.314 5.92525 46.3737 5.93365 46.4293 5.91947C46.4314 5.91737 46.4838 5.91317 46.4454 5.91264L46.5041 5.91632L46.6235 5.92262Z" fill="#A88F6B" stroke="#A88F6B" stroke-width="0.5"/>
<path d="M44.4869 8.61278C44.5767 8.62381 44.6209 8.65008 44.6946 8.65953C44.7637 8.69157 44.8395 8.72045 44.9107 8.75775C45.188 8.91951 45.4196 9.19315 45.5344 9.55188C45.5754 9.66322 46.0423 9.75671 46.1098 9.54453C46.2879 9.04557 46.0948 8.42318 45.6741 8.04397C45.5692 7.94786 45.4596 7.85647 45.3298 7.79449C45.2082 7.72674 45.081 7.66319 44.906 7.62327C44.8245 7.60174 44.7424 7.58388 44.6609 7.5697C44.5871 7.55867 44.5627 7.5655 44.5113 7.56234L44.3752 7.56129H44.3586H44.3545L44.2781 7.55762H44.275L44.2625 7.55919L44.2106 7.56602L44.1078 7.58073C43.5105 7.66214 42.9694 8.01613 42.6635 8.50932C42.5872 8.63117 42.5331 8.76877 42.476 8.8985C42.4324 9.05029 42.3877 9.2378 42.3789 9.36332L42.3805 9.51301L42.382 9.58812L42.3825 9.60703L42.3799 9.67215L42.3825 9.68476L42.3914 9.73676C42.421 9.87279 42.4308 10.0109 42.4895 10.1359C42.6474 10.5629 42.9652 10.8933 43.3272 11.064C43.51 11.1433 43.6954 11.2042 43.9021 11.2221C44.0081 11.2436 44.073 11.221 44.1576 11.221L44.2968 11.2121L44.4282 11.1816C45.1184 11.0172 45.6398 10.4967 45.8652 9.76617C45.8938 9.69369 45.6445 9.64694 45.5645 9.69841C45.3911 9.80871 45.2399 9.9647 45.1117 9.97415C45.0587 9.98886 45.0021 10.0051 44.9449 10.0256C44.8915 10.0435 44.8551 10.0655 44.8052 10.075C44.637 10.1291 44.5425 10.1905 44.4131 10.2562C44.3119 10.3297 44.0397 10.3723 43.9156 10.3786C43.7209 10.367 43.4965 10.2609 43.3963 10.0797C43.3563 10.0204 43.3397 9.95 43.3059 9.88382C43.295 9.84915 43.2935 9.81239 43.2857 9.77615L43.2758 9.72152L43.2701 9.69369L43.268 9.68056L43.2665 9.67373V9.67215C43.2716 9.58339 43.2737 9.48465 43.2867 9.41322C43.3137 9.35387 43.3111 9.29662 43.3475 9.22887C43.468 8.95155 43.7193 8.73464 44.0101 8.64902C44.0797 8.61383 44.1597 8.62434 44.2345 8.60648C44.2423 8.60438 44.2989 8.5986 44.2657 8.5986L44.3394 8.60386L44.4869 8.61278Z" fill="#A88F6B" stroke="#A88F6B" stroke-width="0.5"/>
</svg>
