<svg width="45" height="45" viewBox="0 0 45 45" fill="none" xmlns="http://www.w3.org/2000/svg">
<rect x="0.5" y="0.5" width="44" height="44" rx="22" stroke="#F6F1EB"/>
<path d="M26.1258 16.7176H27.8871V13.502H24.6863C24.4193 13.4908 21.1645 13.4286 20.3209 16.6457C20.3086 16.6794 20.039 17.4445 20.039 19.2317L17.1123 19.2406V22.6132L20.0427 22.6047V31.5005H24.519V22.6125H27.4816V19.231H24.519V18.167C24.5189 17.5056 24.7978 16.7176 26.1258 16.7176ZM26.7409 19.9713V21.8715H23.7783V30.7594H20.7834V21.8618L17.853 21.8704V19.9791L20.7912 19.9705L20.7834 19.5939C20.7449 17.7008 21.0149 16.9046 21.0271 16.8664C21.7552 14.0956 24.5352 14.2348 24.6545 14.2423L27.1465 14.243V15.9773H26.1258C24.3953 15.9773 23.7787 17.1083 23.7787 18.1667V19.9713H26.7409Z" fill="#F6F1EB" stroke="#F6F1EB" stroke-width="0.3"/>
</svg>
