<svg width="45" height="45" viewBox="0 0 45 45" fill="none" xmlns="http://www.w3.org/2000/svg">
<rect x="0.5" y="0.5" width="44" height="44" rx="22" stroke="#F6F1EB"/>
<path d="M26.338 14.001H18.2675C15.6633 14.001 13.5527 16.112 13.5527 18.7157V26.7862C13.5527 29.3904 15.6637 31.501 18.2678 31.501H26.3376C28.9417 31.501 31.0527 29.39 31.0527 26.7859V18.7157C31.0527 16.1116 28.9421 14.001 26.338 14.001Z" stroke="#F6F1EB" stroke-miterlimit="10"/>
<path d="M22.3 26.9748C24.633 26.9748 26.5243 25.0835 26.5243 22.7506C26.5243 20.4176 24.633 18.5264 22.3 18.5264C19.9671 18.5264 18.0758 20.4176 18.0758 22.7506C18.0758 25.0835 19.9671 26.9748 22.3 26.9748Z" stroke="#F6F1EB" stroke-miterlimit="10"/>
<path d="M27.4249 18.526C27.9248 18.526 28.33 18.1208 28.33 17.6209C28.33 17.1211 27.9248 16.7158 27.4249 16.7158C26.9251 16.7158 26.5199 17.1211 26.5199 17.6209C26.5199 18.1208 26.9251 18.526 27.4249 18.526Z" fill="#F6F1EB"/>
</svg>
