<svg width="752" height="240" viewBox="0 0 752 240" fill="none" xmlns="http://www.w3.org/2000/svg">
<path d="M152 78.9312L76 0L0 78.9312L92.2357 174.725L105.184 161.277L25.8976 78.9312L76 26.8967L126.102 78.9312L115.643 89.7935L128.592 103.242L152 78.9312Z" fill="#A88F6B"/>
<path d="M0 161.068L76 239.999L152 161.068L59.6644 65.4814L46.7155 78.9297L126.102 161.068L76 213.103L25.8976 161.068L36.3561 150.206L23.5073 136.758L0 161.068Z" fill="#A88F6B"/>
<path d="M230.993 125.764L227.602 125.291C213.861 123.023 211.63 118.866 211.63 114.709C211.63 109.417 215.378 105.354 229.565 105.354C233.491 105.354 238.666 106.393 243.128 108.472L241.076 113.008L253.211 119.15L261.42 101.008L261.509 100.913C253.211 93.6376 242.949 89.6689 229.565 89.6689C207.972 89.6689 194.766 99.5905 194.766 115.464C194.766 131.055 203.154 137.669 225.461 140.882L228.762 141.355C242.414 143.244 247.411 146.268 247.411 152.882C247.411 159.874 241.611 164.126 226.888 164.126C221.802 164.126 215.467 162.614 210.202 159.874L212.344 155.055L200.209 148.914L192 167.15C199.317 176.315 213.771 180.001 226.888 180.001C250.802 180.001 264.186 168.851 264.186 151.843C264.275 135.78 254.46 128.976 230.993 125.764Z" fill="#EDEDED"/>
<path d="M326.379 128.504L344.85 107.338H353.326V91.5588H336.909L301.217 134.268V107.338H307.82V91.5588H277.839V107.338H284.531V162.047H277.839V177.827H307.82V162.047H301.217V157.606L315.583 141.166L338.515 177.827H355.647V162.047H348.508L326.379 128.504Z" fill="#EDEDED"/>
<path d="M445.588 60H422.033L407.399 81.2601H424.441L445.588 60Z" fill="#EDEDED"/>
<path d="M415.514 164.032C398.027 164.032 387.498 152.032 387.498 134.74C387.498 116.787 397.667 105.354 415.334 105.354C433.182 105.354 443.355 117.448 443.355 134.835C443.355 152.504 433.002 164.032 415.514 164.032ZM415.334 89.6689C389.55 89.6689 370.632 108.85 370.632 134.835C370.632 159.874 389.1 179.811 415.425 179.811C442.014 179.811 460.128 160.063 460.128 134.929C460.128 109.039 441.749 89.6689 415.334 89.6689Z" fill="#EDEDED"/>
<path d="M539.537 139.465C539.537 158.08 531.507 163.938 517.764 163.938C500.276 163.938 489.747 152.127 489.747 134.835C489.747 116.883 499.92 105.45 517.588 105.45C527.581 105.45 535.166 109.134 539.983 115.56L552.654 105.638C544.624 95.7172 532.398 89.5752 517.588 89.5752C491.89 89.5752 472.885 108.756 472.885 134.93C472.885 159.969 491.354 179.718 517.674 179.718C528.563 179.718 535.076 176.127 538.911 169.797H539.181L543.282 177.828H556.314V134.552H539.537V139.465Z" fill="#EDEDED"/>
<path d="M626.808 107.245H633.407V136.632C633.407 155.246 625.111 163.939 612.886 163.939C599.949 163.939 592.364 155.246 592.364 136.632V107.245H598.967V91.5603H568.898V107.245H575.501V136.632C575.501 161.671 588.439 179.719 612.796 179.719C637.067 179.719 650.094 161.671 650.094 136.632V107.245H656.698V91.5603H626.628V107.245H626.808Z" fill="#EDEDED"/>
<path d="M721.931 132.38H693.734V107.151H721.931C730.587 107.151 735.138 111.498 735.138 120.002C735.138 128.978 730.141 132.38 721.931 132.38ZM736.209 145.797C745.846 141.734 751.914 132.569 751.914 120.096C751.914 102.427 740.224 91.5603 723.448 91.5603H670.268V107.245H677.052V162.049H670.268V177.829H700.337V162.049H693.734V148.254H719.788L732.369 177.923H752V162.144H743.524L736.209 145.797Z" fill="#EDEDED"/>
</svg>
