<svg width="188" height="60" viewBox="0 0 188 60" fill="none" xmlns="http://www.w3.org/2000/svg">
<path d="M38 19.7328L19 0L0 19.7328L23.0589 43.6812L26.2961 40.3191L6.47441 19.7328L19 6.72418L31.5256 19.7328L28.9109 22.4484L32.1481 25.8104L38 19.7328Z" fill="#A88F6B"/>
<path d="M0 40.267L19 59.9999L38 40.267L14.9161 16.3704L11.6789 19.7324L31.5256 40.267L19 53.2757L6.47441 40.267L9.08903 37.5515L5.87682 34.1895L0 40.267Z" fill="#A88F6B"/>
<path d="M57.7482 31.4409L56.9005 31.3228C53.4653 30.7559 52.9075 29.7165 52.9075 28.6772C52.9075 27.3543 53.8444 26.3385 57.3913 26.3385C58.3728 26.3385 59.6666 26.5984 60.7819 27.1181L60.2689 28.2519L63.3027 29.7874L65.3549 25.2519L65.3772 25.2283C63.3027 23.4094 60.7374 22.4172 57.3913 22.4172C51.993 22.4172 48.6915 24.8976 48.6915 28.8661C48.6915 32.7638 50.7884 34.4174 56.3652 35.2205L57.1905 35.3387C60.6034 35.8111 61.8527 36.5669 61.8527 38.2205C61.8527 39.9686 60.4027 41.0316 56.722 41.0316C55.4506 41.0316 53.8668 40.6536 52.5506 39.9686L53.086 38.7638L50.0522 37.2284L48 41.7875C49.8291 44.0788 53.4429 45.0001 56.722 45.0001C62.7004 45.0001 66.0464 42.2127 66.0464 37.9607C66.0687 33.9449 63.615 32.2441 57.7482 31.4409Z" fill="#171717"/>
<path d="M81.5948 32.1259L86.2125 26.8346H88.3316V22.8897H84.2271L75.3043 33.567V26.8346H76.955V22.8897H69.4598V26.8346H71.1328V40.5118H69.4598V44.4567H76.955V40.5118H75.3043V39.4016L78.8957 35.2914L84.6287 44.4567H88.9116V40.5118H87.1271L81.5948 32.1259Z" fill="#171717"/>
<path d="M111.397 15H105.508L101.85 20.315H106.11L111.397 15Z" fill="#171717"/>
<path d="M103.879 41.008C99.5066 41.008 96.8745 38.008 96.8745 33.6851C96.8745 29.1968 99.4166 26.3385 103.834 26.3385C108.296 26.3385 110.839 29.3621 110.839 33.7087C110.839 38.126 108.251 41.008 103.879 41.008ZM103.834 22.4172C97.3876 22.4172 92.658 27.2126 92.658 33.7087C92.658 39.9686 97.2751 44.9529 103.856 44.9529C110.504 44.9529 115.032 40.0158 115.032 33.7323C115.032 27.2598 110.437 22.4172 103.834 22.4172Z" fill="#171717"/>
<path d="M134.884 34.8664C134.884 39.5199 132.877 40.9845 129.441 40.9845C125.069 40.9845 122.437 38.0317 122.437 33.7089C122.437 29.2207 124.98 26.3624 129.397 26.3624C131.895 26.3624 133.792 27.2836 134.996 28.89L138.164 26.4096C136.156 23.9293 133.099 22.3938 129.397 22.3938C122.972 22.3938 118.221 27.1891 118.221 33.7324C118.221 39.9924 122.839 44.9294 129.419 44.9294C132.141 44.9294 133.769 44.0318 134.728 42.4492H134.795L135.821 44.457H139.078V33.638H134.884V34.8664Z" fill="#171717"/>
<path d="M156.702 26.8114H158.352V34.1579C158.352 38.8115 156.278 40.9848 153.221 40.9848C149.987 40.9848 148.091 38.8115 148.091 34.1579V26.8114H149.742V22.8901H142.224V26.8114H143.875V34.1579C143.875 40.4177 147.11 44.9296 153.199 44.9296C159.267 44.9296 162.524 40.4177 162.524 34.1579V26.8114H164.174V22.8901H156.657V26.8114H156.702Z" fill="#171717"/>
<path d="M180.483 33.0949H173.433V26.7878H180.483C182.647 26.7878 183.784 27.8744 183.784 30.0004C183.784 32.2445 182.535 33.0949 180.483 33.0949ZM184.052 36.4493C186.462 35.4335 187.979 33.1422 187.979 30.024C187.979 25.6067 185.056 22.8901 180.862 22.8901H167.567V26.8114H169.263V40.5123H167.567V44.4572H175.084V40.5123H173.433V37.0635H179.947L183.092 44.4808H188V40.5359H185.881L184.052 36.4493Z" fill="#171717"/>
</svg>
