<?xml version="1.0" encoding="UTF-8"?> <svg xmlns="http://www.w3.org/2000/svg" width="107" height="23" viewBox="0 0 107 23" fill="none"><path d="M16.8705 0L12.6367 21.71L35.4684 22.7102V4.57045L16.8705 0Z" fill="#FBE244"></path><path d="M77.1387 13.6416V14.0376H76.0164V14.8351H77.0501V15.2312H76.0164V16.5166H75.6289V13.6416H77.1387Z" fill="black"></path><path d="M79.2154 16.5728C79.0103 16.5753 78.8067 16.5372 78.6172 16.461C78.4334 16.3874 78.2646 16.2826 78.119 16.1514C77.9681 16.0145 77.8489 15.8484 77.7678 15.6638C77.6867 15.4792 77.6462 15.2802 77.6485 15.0794C77.6462 14.8731 77.6886 14.6686 77.7739 14.4797C77.854 14.3011 77.971 14.1404 78.1171 14.0074C78.2627 13.8759 78.4315 13.7711 78.6153 13.6979C78.8076 13.6217 79.0131 13.5837 79.2205 13.586C79.4275 13.5838 79.6325 13.6218 79.8239 13.6979C80.0077 13.7711 80.1765 13.8759 80.3221 14.0074C80.4725 14.1444 80.5917 14.3105 80.6723 14.4951C80.7529 14.6797 80.793 14.8788 80.7902 15.0794H80.7817C80.7845 15.2801 80.744 15.479 80.6634 15.6636C80.5828 15.8482 80.4635 16.0143 80.3136 16.1514C80.1675 16.2829 79.9988 16.3878 79.8154 16.461C79.625 16.5375 79.4213 16.5755 79.2154 16.5728ZM79.2055 14.0021C79.0457 13.9998 78.8863 14.0273 78.7364 14.0831C78.5979 14.1352 78.4706 14.2128 78.3617 14.3116C78.2571 14.4103 78.1722 14.5274 78.1124 14.6569C78.0501 14.7912 78.0186 14.9366 78.0186 15.0838C78.0186 15.2309 78.0501 15.3764 78.1124 15.5106C78.1717 15.6404 78.2566 15.7578 78.3617 15.8564C78.4706 15.9553 78.5979 16.0328 78.7364 16.0849C78.8863 16.1407 79.0457 16.1683 79.2055 16.166C79.3657 16.1662 79.525 16.1369 79.674 16.0795C79.813 16.0277 79.9403 15.9501 80.0487 15.851C80.1538 15.7526 80.2387 15.6353 80.2985 15.5057C80.3608 15.3736 80.3928 15.2298 80.3919 15.0843V15.08C80.3919 14.936 80.3598 14.7938 80.2985 14.6629C80.2387 14.5333 80.1538 14.4161 80.0487 14.3176C79.9403 14.2185 79.813 14.1408 79.674 14.0891C79.525 14.0316 79.3657 14.002 79.2055 14.0021Z" fill="black"></path><path d="M81.8796 16.5182H81.4922V13.6426H82.4335C82.5509 13.6416 82.6673 13.6623 82.7767 13.7037C82.8789 13.7423 82.9727 13.7993 83.0533 13.8717C83.1325 13.9435 83.1952 14.0313 83.2362 14.1289C83.2782 14.2359 83.2994 14.3498 83.298 14.4644C83.3041 14.6576 83.2395 14.8466 83.116 14.9977C82.994 15.1423 82.8219 15.2384 82.6319 15.2679L83.3861 16.5165H82.9129L82.179 15.283H81.8796V16.5176V16.5182ZM81.8796 14.0387V14.8853H82.4759V14.8902C82.532 14.892 82.5876 14.8815 82.639 14.8595C82.6904 14.8376 82.7361 14.8047 82.7729 14.7632C82.8502 14.6799 82.8926 14.5714 82.8921 14.459C82.8936 14.3482 82.8507 14.2412 82.7729 14.1608C82.7347 14.1211 82.689 14.0897 82.6376 14.0686C82.5867 14.0476 82.5315 14.0373 82.4759 14.0387H81.8796Z" fill="black"></path><path d="M87.9617 16.0351C87.8495 16.2096 87.6864 16.3475 87.4932 16.4311C87.2632 16.5329 87.0124 16.5831 86.7597 16.5781C86.5566 16.5787 86.3553 16.542 86.1663 16.47C85.9839 16.4016 85.8175 16.2979 85.677 16.1653C85.5295 16.0248 85.4131 15.8566 85.3343 15.6709C85.2556 15.4851 85.2165 15.2857 85.2189 15.0847C85.2165 14.8837 85.2556 14.6843 85.3343 14.4985C85.4131 14.3128 85.5295 14.1446 85.677 14.0041C85.8175 13.8717 85.9834 13.7683 86.1658 13.6999C86.3567 13.6275 86.5594 13.5909 86.7645 13.5918C87.0223 13.5901 87.2773 13.6475 87.5083 13.7593C87.6049 13.8043 87.6945 13.8625 87.7741 13.9322C87.8415 13.9911 87.8995 14.0596 87.9462 14.1354L87.8269 14.486C87.7746 14.416 87.7133 14.3528 87.6445 14.298C87.5691 14.2368 87.4871 14.1841 87.3999 14.1408C87.3094 14.0934 87.2132 14.0571 87.1137 14.0327C87.0096 14.0067 86.903 13.9935 86.7956 13.9933C86.6311 13.9912 86.4675 14.0167 86.3119 14.0689C86.1729 14.1144 86.0452 14.188 85.9372 14.285C85.8335 14.3809 85.752 14.4968 85.6973 14.6254C85.6388 14.7692 85.6106 14.923 85.6143 15.0777C85.6129 15.2342 85.6431 15.3895 85.7029 15.5347C85.7567 15.6651 85.8401 15.7816 85.9476 15.8751C86.0569 15.9698 86.1842 16.0423 86.3223 16.0886C86.4779 16.141 86.6419 16.1668 86.8064 16.1648C87.0279 16.1696 87.2476 16.121 87.4456 16.0232C87.6124 15.9447 87.7572 15.8279 87.8675 15.6828L87.9825 16.028L87.9617 16.0351Z" fill="black"></path><path d="M89.0515 16.5182H88.6641V13.6426H89.6054C89.7227 13.6416 89.8392 13.6623 89.9485 13.7037C90.0508 13.7423 90.1446 13.7993 90.2252 13.8717C90.3044 13.9435 90.3671 14.0313 90.4081 14.1289C90.4501 14.2359 90.4713 14.3498 90.4699 14.4644C90.476 14.6576 90.4114 14.8466 90.2879 14.9977C90.1658 15.1423 89.9938 15.2384 89.8038 15.2679L90.558 16.5165H90.0852L89.3508 15.283H89.0515V16.5176V16.5182ZM89.0515 14.0387V14.8853H89.6478V14.8902C89.7039 14.892 89.7595 14.8815 89.8109 14.8595C89.8623 14.8376 89.908 14.8047 89.9448 14.7632C90.0221 14.6799 90.0645 14.5714 90.064 14.459C90.0654 14.3482 90.0225 14.2412 89.9448 14.1608C89.9066 14.1211 89.8609 14.0897 89.8095 14.0686C89.7586 14.0476 89.7034 14.0373 89.6478 14.0387H89.0515Z" fill="black"></path><path d="M92.8969 13.6426V14.0386H91.6238V14.8361H92.7664V15.2322H91.6238V16.121H92.8969V16.517H91.2363V13.6426H92.8969Z" fill="black"></path><path d="M93.7526 16.5175H93.3359L94.5488 13.6426H94.9753L96.1882 16.5165H95.772L95.4953 15.847H94.0336L93.7526 16.5175ZM94.7618 14.1251L94.2004 15.451H95.3242L94.7618 14.1251Z" fill="black"></path><path d="M98.5601 13.6426V14.0386H97.5636V16.5175H97.1761V14.0386H96.166V13.6426H98.5601Z" fill="black"></path><path d="M100.487 16.5728C100.282 16.5753 100.078 16.5372 99.8887 16.461C99.7048 16.3877 99.5361 16.2828 99.3904 16.1514C99.2396 16.0147 99.1199 15.8486 99.0388 15.664C98.9577 15.4794 98.9177 15.2802 98.92 15.0794C98.9177 14.8732 98.9601 14.6687 99.0449 14.4797C99.1251 14.3011 99.2424 14.1404 99.3886 14.0074C99.5342 13.8757 99.703 13.7708 99.8868 13.6979C100.079 13.6216 100.285 13.5837 100.492 13.586C100.699 13.5838 100.904 13.6218 101.095 13.6979C101.279 13.7709 101.448 13.8758 101.594 14.0074C101.74 14.1404 101.857 14.3011 101.937 14.4797C102.022 14.6686 102.065 14.8731 102.062 15.0794H102.053C102.056 15.2801 102.015 15.479 101.935 15.6636C101.854 15.8482 101.735 16.0143 101.585 16.1514C101.439 16.2827 101.27 16.3875 101.087 16.461C100.896 16.5374 100.693 16.5754 100.487 16.5728ZM100.476 14.0021C100.317 13.9998 100.158 14.0273 100.008 14.0831C99.8703 14.1335 99.744 14.2103 99.6365 14.3089C99.529 14.4076 99.4428 14.526 99.3829 14.6575C99.3211 14.7917 99.2896 14.9372 99.2896 15.0843C99.2896 15.2315 99.3211 15.3769 99.3829 15.5111C99.4432 15.6409 99.5281 15.7582 99.6332 15.8569C99.7421 15.9558 99.8693 16.0334 100.008 16.0855C100.158 16.1413 100.317 16.1688 100.476 16.1666C100.637 16.1667 100.796 16.1374 100.945 16.0801C101.083 16.0296 101.209 15.9528 101.316 15.8542C101.423 15.7556 101.51 15.6371 101.57 15.5058C101.631 15.3735 101.663 15.2297 101.663 15.0843V15.08C101.662 14.9361 101.631 14.7938 101.57 14.6629C101.51 14.5316 101.423 14.4132 101.316 14.3147C101.209 14.2162 101.083 14.1395 100.945 14.0891C100.796 14.0316 100.637 14.002 100.476 14.0021Z" fill="black"></path><path d="M103.149 16.5181H102.762V13.6426H103.703C103.82 13.6415 103.936 13.6622 104.046 13.7037C104.148 13.7423 104.242 13.7993 104.323 13.8717C104.403 13.9433 104.465 14.0311 104.505 14.1289C104.548 14.2358 104.569 14.3497 104.568 14.4644C104.574 14.6576 104.509 14.8465 104.386 14.9977C104.263 15.1424 104.091 15.2385 103.901 15.2679L104.656 16.5165H104.183L103.448 15.283H103.149V16.5176V16.5181ZM103.149 14.0386V14.8853H103.745V14.8902C103.802 14.892 103.857 14.8815 103.909 14.8596C103.96 14.8376 104.006 14.8046 104.042 14.7632C104.12 14.68 104.162 14.5715 104.162 14.459C104.163 14.3482 104.12 14.2411 104.042 14.1608C104.004 14.121 103.959 14.0896 103.907 14.0685C103.856 14.0475 103.801 14.0373 103.745 14.0386H103.149Z" fill="black"></path><path d="M106.572 15.1361C106.634 15.1901 106.691 15.2441 106.744 15.2933C106.795 15.3424 106.84 15.3968 106.879 15.4554C106.917 15.5122 106.946 15.5736 106.968 15.638C106.989 15.7081 107 15.781 106.999 15.8541C107.003 15.9576 106.983 16.0605 106.94 16.1554C106.898 16.2503 106.834 16.3348 106.754 16.4025C106.571 16.5474 106.339 16.6215 106.104 16.6106C105.991 16.6112 105.879 16.5957 105.771 16.5646C105.673 16.5374 105.578 16.4995 105.489 16.4517C105.412 16.4107 105.342 16.3594 105.28 16.2994C105.23 16.252 105.188 16.1971 105.156 16.1367L105.27 15.7709C105.362 15.8993 105.483 16.0053 105.624 16.0805C105.773 16.1629 105.942 16.2051 106.114 16.2026C106.241 16.2131 106.369 16.1788 106.473 16.1059C106.51 16.0765 106.54 16.0393 106.561 15.9971C106.582 15.9548 106.592 15.9086 106.592 15.8617C106.594 15.7781 106.565 15.6967 106.509 15.6332C106.448 15.5626 106.38 15.498 106.306 15.4403C106.196 15.3587 106.108 15.2879 106.035 15.2323C105.963 15.1766 105.901 15.1242 105.848 15.0847C105.795 15.0453 105.749 15.0086 105.708 14.9767C105.667 14.9455 105.629 14.9116 105.593 14.8751C105.51 14.7968 105.436 14.7098 105.372 14.6158C105.304 14.5167 105.269 14.3997 105.273 14.2808C105.27 14.1824 105.291 14.0847 105.333 13.9955C105.374 13.9156 105.432 13.8455 105.505 13.7902C105.581 13.7329 105.668 13.6897 105.76 13.6626C105.862 13.6317 105.969 13.6164 106.077 13.6173C106.246 13.6149 106.412 13.6551 106.561 13.734C106.684 13.7962 106.791 13.8857 106.872 13.9955L106.784 14.3559C106.701 14.2577 106.6 14.1759 106.485 14.1149C106.362 14.0486 106.223 14.0136 106.082 14.0133C105.98 14.0097 105.878 14.0306 105.786 14.0744C105.75 14.0921 105.72 14.1195 105.7 14.1535C105.679 14.1874 105.67 14.2264 105.671 14.2657C105.671 14.3045 105.68 14.3429 105.698 14.3779C105.715 14.413 105.739 14.4441 105.77 14.4688C105.832 14.5259 105.896 14.58 105.963 14.6309C106.124 14.7476 106.249 14.8389 106.343 14.9048C106.437 14.9708 106.519 15.0318 106.587 15.088L106.572 15.1361Z" fill="black"></path><path d="M78.7174 8.73438L79.1341 11.6093H78.7466L78.4035 9.42L77.5154 11.6093H77.1275L76.2159 9.42L75.9015 11.6093H75.4961L75.9175 8.73438H76.3441L77.3127 11.0452L78.2852 8.73438H78.7174Z" fill="black"></path><path d="M81.5849 8.73438V9.13039H80.3113V9.92789H81.4539V10.324H80.3113V11.2128H81.5849V11.6088H79.9238V8.73438H81.5849Z" fill="black"></path><path d="M83.3501 11.6093H82.3711V8.73438H83.3501L83.3445 8.73925C83.574 8.73626 83.8022 8.76869 84.0209 8.83539C84.216 8.89353 84.398 8.98765 84.5568 9.11259C84.7086 9.23508 84.8297 9.38974 84.9108 9.56481C84.9971 9.75686 85.0395 9.96469 85.0357 10.1743C85.04 10.3851 84.9975 10.5943 84.9108 10.7875C84.8316 10.9608 84.7119 11.1137 84.562 11.2344C84.4036 11.3601 84.2217 11.4549 84.0265 11.5137C83.8078 11.5802 83.5792 11.6125 83.3501 11.6093ZM82.751 9.13582V11.2198H83.4901L83.4845 11.2301H83.492C83.6494 11.233 83.8064 11.2056 83.953 11.1495C84.0869 11.0966 84.2104 11.021 84.3174 10.9264C84.4206 10.8342 84.5021 10.7217 84.5568 10.5963C84.6157 10.4667 84.6459 10.3267 84.6454 10.1851C84.6478 10.0436 84.6195 9.90333 84.562 9.77338C84.5073 9.64816 84.4258 9.53583 84.323 9.44379C84.216 9.3476 84.093 9.27078 83.9587 9.21687C83.8092 9.16015 83.6504 9.1326 83.4901 9.13582H82.751Z" fill="black"></path><path d="M85.7344 11.6093H86.1218V8.73438H85.7344V11.6093Z" fill="black"></path><path d="M87.1135 11.6093H86.6973L87.9101 8.73438H88.3367L89.5495 11.6082H89.1338L88.8566 10.9388H87.3949L87.1135 11.6093ZM88.1232 9.21687L87.5617 10.5428H88.6855L88.1232 9.21687Z" fill="black"></path><path d="M10.1629 7.64062L11.4551 16.6637H9.46752L8.72894 11.5152L6.68043 16.6659H4.90041L2.88344 11.5152L2.09559 16.6637H0L1.27618 7.64062H3.29314L5.73534 13.5143L8.17749 7.64062H10.1629Z" fill="black"></path><path d="M21.5709 15.4359C21.2333 15.9265 20.7571 16.3111 20.2 16.5429C19.4857 16.8499 18.7102 16.9976 17.93 16.9752C17.287 16.9726 16.6504 16.8512 16.0537 16.6175C15.4654 16.3951 14.9254 16.0664 14.4619 15.6488C13.9998 15.226 13.6254 14.7205 13.359 14.1597C13.0721 13.5581 12.9269 12.9014 12.9338 12.2378C12.9269 11.5743 13.0722 10.9176 13.359 10.3159C13.6305 9.74898 14.0101 9.23755 14.4774 8.80901C14.941 8.39152 15.481 8.06289 16.0692 7.84025C16.6657 7.60781 17.302 7.48771 17.9444 7.48633C18.3469 7.48679 18.7482 7.52805 19.142 7.60956C19.4952 7.67796 19.8391 7.7868 20.1662 7.93372C20.4526 8.06671 20.7222 8.23171 20.9696 8.42542C21.1908 8.59378 21.3824 8.79636 21.5365 9.02512L20.9065 10.7152C20.6055 10.3779 20.2352 10.1062 19.8196 9.91775C19.291 9.66277 18.7072 9.53613 18.1177 9.54869C17.6953 9.54395 17.2749 9.60633 16.8731 9.73347C16.5103 9.85105 16.1735 10.0344 15.8804 10.2738C15.5959 10.503 15.3675 10.7915 15.2121 11.1181C15.0567 11.4447 14.9782 11.801 14.9823 12.1611C14.9776 12.5218 15.0558 12.8789 15.2112 13.2062C15.3666 13.5335 15.5953 13.8226 15.8804 14.0521C16.1735 14.2916 16.5103 14.4749 16.8731 14.5925C17.2749 14.7196 17.6953 14.782 18.1177 14.7772C18.7178 14.7949 19.3132 14.6682 19.8512 14.4082C20.2657 14.2103 20.6312 13.927 20.9225 13.5777L21.5709 15.3284V15.4359Z" fill="black"></path><path d="M23.8108 14.5752C23.9402 14.4485 24.0948 14.3491 24.265 14.283C24.4353 14.217 24.6176 14.1856 24.8008 14.191C24.984 14.186 25.1663 14.2174 25.3365 14.2835C25.5068 14.3496 25.6615 14.4489 25.7911 14.5754C25.9206 14.7018 26.0224 14.8527 26.0902 15.0189C26.1578 15.1851 26.1901 15.363 26.1849 15.5418C26.1901 15.7205 26.1578 15.8985 26.0902 16.0646C26.0224 16.2308 25.9206 16.3817 25.7911 16.5082C25.6615 16.6347 25.5068 16.734 25.3365 16.8001C25.1663 16.8662 24.984 16.8976 24.8008 16.8926C24.6176 16.8975 24.4353 16.866 24.2651 16.7999C24.0949 16.7338 23.9402 16.6345 23.8106 16.508C23.6811 16.3816 23.5793 16.2307 23.5115 16.0646C23.4438 15.8984 23.4115 15.7205 23.4166 15.5418C23.4111 15.3629 23.4432 15.1849 23.5111 15.0186C23.5789 14.8524 23.6809 14.7014 23.8108 14.5752Z" fill="black"></path><path d="M32.7241 15.9738C32.5158 16.2518 32.2396 16.4747 31.9207 16.6221C31.5425 16.8001 31.1269 16.8895 30.7071 16.8831C30.341 16.9123 29.9728 16.864 29.6275 16.7416C29.2823 16.6192 28.9682 16.4254 28.7068 16.1737C28.234 15.6134 27.9966 14.899 28.0424 14.1745V10.8246H26.6582V10.1925L29.447 6.74805H30.0616V8.74716H32.6299V10.823H30.0455V13.7445C30.0276 13.8936 30.0453 14.0448 30.0972 14.1862C30.1492 14.3275 30.234 14.4552 30.345 14.5592C30.5478 14.7123 30.7979 14.7937 31.0543 14.79C31.2931 14.7965 31.5303 14.7491 31.7474 14.6516C31.9606 14.5406 32.1489 14.389 32.3011 14.2059L32.7263 15.9586L32.7241 15.9738Z" fill="black"></path><path d="M38.3189 16.8969C37.7506 16.8989 37.1879 16.7887 36.6646 16.5727C36.1567 16.3646 35.692 16.0676 35.2937 15.6963C34.895 15.3187 34.5737 14.8703 34.347 14.3753C34.1109 13.8523 33.9927 13.2858 34.0004 12.7144C33.9926 12.1431 34.1108 11.5768 34.347 11.054C34.5732 10.5585 34.8941 10.1096 35.2926 9.73137C35.6911 9.36051 36.1557 9.06391 36.6634 8.85608C37.1876 8.64291 37.7499 8.5332 38.3178 8.5332C38.8856 8.5332 39.4479 8.64291 39.9721 8.85608C40.4799 9.06372 40.9446 9.36038 41.343 9.73137C41.7415 10.1095 42.0625 10.5584 42.2886 11.054C42.5255 11.5767 42.6445 12.1429 42.6374 12.7144V12.7301C42.6468 13.3015 42.5285 13.8681 42.2908 14.3904C42.0649 14.8815 41.7438 15.3253 41.3451 15.6974C40.9469 16.0688 40.4823 16.3659 39.9743 16.5738C39.4505 16.7895 38.8874 16.8995 38.3189 16.8969ZM38.3488 10.6391C38.0422 10.6346 37.7375 10.6867 37.4508 10.7925C37.1833 10.8905 36.9373 11.0372 36.726 11.2248C36.5206 11.407 36.3591 11.6313 36.2532 11.8818C36.1382 12.1505 36.0795 12.4389 36.0805 12.7301V12.7608C36.0799 13.0513 36.1386 13.3389 36.2532 13.607C36.3587 13.8587 36.5202 14.0844 36.726 14.2677C36.9372 14.4555 37.1832 14.6023 37.4508 14.7C37.7375 14.806 38.0422 14.8581 38.3488 14.8535C38.9365 14.8651 39.5062 14.656 39.9405 14.2694C40.146 14.0824 40.3119 13.8579 40.4288 13.6086C40.5563 13.344 40.6211 13.0548 40.6182 12.7625C40.6212 12.4652 40.5565 12.1711 40.4288 11.9012C40.3128 11.6469 40.1469 11.417 39.9405 11.2248C39.7326 11.0403 39.4924 10.8939 39.2313 10.7925C38.9502 10.6858 38.6504 10.6337 38.3488 10.6391Z" fill="black"></path><path d="M48.0853 16.8969C47.5446 16.8963 47.0092 16.7919 46.5097 16.5895C46.0138 16.392 45.5638 16.0992 45.1864 15.7282C44.8028 15.348 44.4982 14.8988 44.2895 14.4056C44.0632 13.8695 43.9502 13.2942 43.9574 12.7144L43.9728 12.7609C43.9661 12.1811 44.079 11.6059 44.305 11.0697C44.5138 10.5764 44.8184 10.1271 45.2019 9.74652C45.5762 9.37917 46.0205 9.08679 46.5097 8.88582C46.9984 8.68378 47.5234 8.57927 48.0542 8.57835C48.5849 8.56234 49.1129 8.66221 49.5993 8.87068C49.9604 9.01494 50.2602 9.27557 50.4487 9.60926V5.50293H52.4506V16.697H50.5128V15.8671C50.3224 16.2054 50.0155 16.4668 49.646 16.6052C49.1539 16.8129 48.6212 16.9124 48.0853 16.8969ZM48.3214 10.6699C47.9995 10.6628 47.679 10.7149 47.3768 10.8233C47.1041 10.9203 46.8529 11.067 46.6365 11.2556C46.4305 11.439 46.2689 11.6649 46.1637 11.9169C46.0489 12.1848 45.99 12.4722 45.9904 12.7625V12.7782C45.9899 13.0685 46.0488 13.356 46.1637 13.6238C46.2689 13.8758 46.4305 14.1017 46.6365 14.2851C46.853 14.4734 47.1042 14.6201 47.3768 14.7173C47.679 14.8256 47.9995 14.8776 48.3214 14.8708C48.7872 14.8772 49.2472 14.7716 49.6611 14.5633C50.0014 14.4152 50.2762 14.1527 50.435 13.8236V11.7165C50.2757 11.3873 50.0009 11.1249 49.6601 10.9768C49.2463 10.7689 48.7867 10.6635 48.3214 10.6699Z" fill="black"></path><path d="M58.4209 16.8984C57.8802 16.898 57.3447 16.7935 56.8451 16.591C56.3497 16.3934 55.8995 16.1005 55.522 15.7298C55.1383 15.3489 54.8338 14.8992 54.625 14.4055C54.4015 13.8768 54.2889 13.3099 54.2931 12.7381C54.2884 12.1657 54.4015 11.5982 54.625 11.0691C54.8338 10.5759 55.1383 10.1267 55.5215 9.74641C55.8991 9.37542 56.3492 9.08254 56.8451 8.88516C57.3447 8.68266 57.8802 8.5782 58.4209 8.57774C58.9568 8.56224 59.4894 8.66201 59.9811 8.87002C60.3506 9.00816 60.6575 9.26972 60.8474 9.60809V8.77765H62.7852V16.6964H60.8474V15.8659C60.6575 16.2043 60.3502 16.466 59.9811 16.6045C59.4894 16.8129 58.9568 16.9132 58.4209 16.8984ZM58.6424 10.6709C58.3205 10.6638 57.9999 10.7161 57.6978 10.8249C57.4253 10.9219 57.1736 11.0685 56.9573 11.2571C56.7513 11.4405 56.5896 11.6665 56.4845 11.9184C56.3695 12.1863 56.3106 12.4737 56.311 12.764V12.7791C56.3106 13.0696 56.3695 13.3573 56.4845 13.6253C56.5896 13.8772 56.7513 14.1031 56.9573 14.2866C57.1741 14.4749 57.4253 14.6216 57.6978 14.7189C57.9999 14.8272 58.3205 14.8793 58.6424 14.8723C59.1081 14.8786 59.5682 14.7728 59.9816 14.5643C60.3223 14.414 60.5962 14.1494 60.7537 13.8187V11.7115C60.5939 11.3847 60.32 11.1243 59.9811 10.9767C59.5672 10.7681 59.1072 10.6623 58.6415 10.6687L58.6424 10.6709Z" fill="black"></path><path d="M66.3937 8.74805L68.5205 13.6686L70.6468 8.74805H72.8717L68.0161 19.9421H65.8257L67.4802 16.1746L64.2344 8.74805H66.3937Z" fill="black"></path></svg> 