<svg width="200" height="100" viewBox="0 0 200 100" fill="none" xmlns="http://www.w3.org/2000/svg">
<g clip-path="url(#clip0)">
<path d="M18.4426 96.4704H16.2707L14.0469 88.6623H13.8838L11.7045 96.4704H9.55486L6.66394 85.8817H8.78395L10.6593 93.9567H10.815L13.0166 85.8817H15.0254L17.2047 93.9715H17.3752L19.258 85.8817H21.3558L18.4426 96.4704Z" fill="black"/>
<path d="M22.5862 91.1612C22.5862 87.7428 24.4913 85.6592 27.5898 85.6592C30.6882 85.6592 32.5859 87.7428 32.5859 91.1612C32.5859 94.5796 30.6882 96.678 27.5898 96.678C24.4913 96.678 22.5862 94.6018 22.5862 91.1612ZM30.4362 91.1612C30.4362 88.8625 29.4059 87.5204 27.5898 87.5204C25.7737 87.5204 24.7433 88.8477 24.7433 91.1612C24.7433 93.4747 25.7663 94.8169 27.5898 94.8169C29.4133 94.8169 30.4362 93.4747 30.4362 91.1612Z" fill="black"/>
<path d="M34.5799 91.1612C34.5799 87.7428 36.4849 85.6592 39.5834 85.6592C42.6819 85.6592 44.5795 87.7428 44.5795 91.1612C44.5795 94.5796 42.6819 96.678 39.5834 96.678C36.4849 96.678 34.5799 94.6018 34.5799 91.1612ZM42.4224 91.1612C42.4224 88.8625 41.3921 87.5204 39.5834 87.5204C37.7747 87.5204 36.737 88.8625 36.737 91.1612C36.737 93.4599 37.7599 94.8169 39.5834 94.8169C41.4069 94.8169 42.4224 93.4747 42.4224 91.1612Z" fill="black"/>
<path d="M46.5661 91.1612C46.5661 87.8096 48.2858 85.6889 50.9618 85.6889C51.625 85.6575 52.2834 85.8159 52.8597 86.1456C53.4361 86.4752 53.9066 86.9624 54.2159 87.5501H54.3938V81.7218H56.4694V96.4704H54.4605V94.7798H54.2975C53.9618 95.3623 53.474 95.8426 52.8864 96.1691C52.2989 96.4956 51.6336 96.6562 50.9618 96.6336C48.271 96.6484 46.5661 94.5277 46.5661 91.1612ZM48.7232 91.1612C48.7232 93.3857 49.7832 94.765 51.5622 94.765C53.3412 94.765 54.3938 93.3932 54.3938 91.1761C54.3938 88.9589 53.2894 87.5723 51.54 87.5723C49.7906 87.5723 48.7232 88.9293 48.7232 91.1612Z" fill="black"/>
<path d="M68.5742 93.6082C68.0998 95.5065 66.4023 96.678 63.9784 96.678C60.9392 96.678 59.0786 94.5944 59.0786 91.1983C59.0786 87.8022 60.9837 85.6592 63.9709 85.6592C66.9582 85.6592 68.7002 87.6761 68.7002 91.0055V91.747H61.2134V91.8657C61.2802 93.7268 62.3624 94.8984 64.0377 94.8984C65.3052 94.8984 66.1725 94.4461 66.558 93.6156L68.5742 93.6082ZM61.2134 90.1898H66.5728C66.5209 88.5214 65.5128 87.4388 63.9635 87.4388C63.6013 87.4349 63.2419 87.5033 62.9064 87.6402C62.571 87.777 62.2662 87.9795 62.0101 88.2357C61.7539 88.492 61.5515 88.7968 61.4147 89.1324C61.2779 89.4679 61.2095 89.8275 61.2134 90.1898Z" fill="black"/>
<path d="M71.2131 85.8816H73.2367V87.5649H73.385C73.6508 86.9598 74.0985 86.4527 74.6657 86.1138C75.2329 85.7749 75.8916 85.6212 76.5502 85.674C78.9148 85.674 80.2565 87.0977 80.2565 89.6188V96.4852H78.1142V90.1453C78.1142 88.4398 77.373 87.5945 75.8311 87.5945C75.4809 87.5776 75.1311 87.6367 74.8058 87.7677C74.4805 87.8987 74.1874 88.0986 73.9466 88.3536C73.7058 88.6086 73.523 88.9126 73.4107 89.245C73.2984 89.5773 73.2593 89.9299 73.296 90.2788V96.4852H71.1982L71.2131 85.8816Z" fill="black"/>
<path d="M95.5635 89.3297C95.4308 88.779 95.1049 88.2942 94.6451 87.9636C94.1853 87.6329 93.6222 87.4783 93.0581 87.5278C91.3087 87.5278 90.2339 88.8773 90.2339 91.1315C90.2339 93.3857 91.3161 94.8391 93.0581 94.8391C93.6173 94.9037 94.1808 94.7614 94.6423 94.439C95.1038 94.1166 95.4315 93.6365 95.5635 93.0891H97.5946C97.3277 95.2247 95.6895 96.7077 93.0729 96.7077C89.9818 96.7077 88.0916 94.624 88.0916 91.1612C88.0916 87.6983 89.9744 85.6888 93.0581 85.6888C95.7192 85.6888 97.3277 87.2386 97.5946 89.3964L95.5635 89.3297Z" fill="black"/>
<path d="M99.4626 91.1612C99.4626 87.7428 101.368 85.6592 104.466 85.6592C107.565 85.6592 109.462 87.7428 109.462 91.1612C109.462 94.5796 107.565 96.678 104.466 96.678C101.368 96.678 99.4626 94.6018 99.4626 91.1612ZM107.313 91.1612C107.313 88.8625 106.282 87.5204 104.466 87.5204C102.65 87.5204 101.627 88.8625 101.627 91.1612C101.627 93.4599 102.65 94.8169 104.466 94.8169C106.282 94.8169 107.313 93.4747 107.313 91.1612Z" fill="black"/>
<path d="M111.975 85.8817H113.991V87.5056H114.147C114.373 86.9415 114.771 86.4633 115.285 86.1396C115.799 85.8159 116.402 85.6633 117.008 85.7037C117.324 85.6998 117.64 85.7296 117.95 85.7927V87.8541C117.564 87.7757 117.172 87.7335 116.778 87.728C116.433 87.697 116.084 87.7387 115.755 87.8504C115.426 87.9621 115.124 88.1414 114.869 88.3767C114.613 88.612 114.41 88.8982 114.272 89.2168C114.133 89.5354 114.063 89.8795 114.065 90.2269V96.4853H111.975V85.8817Z" fill="black"/>
<path d="M130.003 91.1612C130.003 94.5351 128.298 96.6484 125.622 96.6484C124.963 96.6923 124.306 96.5476 123.727 96.231C123.148 95.9145 122.671 95.4394 122.353 94.8613H122.19V99.9703H120.099V85.8817H122.116V87.6316H122.271C122.597 87.0364 123.079 86.542 123.666 86.202C124.253 85.8621 124.921 85.6897 125.599 85.7037C128.32 85.6889 130.003 87.7948 130.003 91.1612ZM127.845 91.1612C127.845 88.9367 126.785 87.5723 125.014 87.5723C123.242 87.5723 122.153 88.9515 122.153 91.176C122.153 93.4006 123.257 94.7649 125.006 94.7649C126.756 94.7649 127.868 93.4154 127.868 91.1612H127.845Z" fill="black"/>
<path d="M132.501 95.1876C132.511 94.907 132.603 94.6356 132.767 94.4071C132.93 94.1787 133.157 94.0034 133.419 93.903C133.681 93.8026 133.967 93.7816 134.241 93.8425C134.515 93.9034 134.765 94.0437 134.96 94.2457C135.155 94.4478 135.286 94.7027 135.337 94.9788C135.388 95.2549 135.357 95.54 135.247 95.7985C135.138 96.057 134.954 96.2775 134.72 96.4326C134.486 96.5876 134.212 96.6704 133.931 96.6706C133.738 96.6739 133.546 96.6374 133.368 96.5634C133.189 96.4894 133.028 96.3794 132.894 96.2403C132.759 96.1012 132.655 95.9359 132.588 95.7548C132.52 95.5737 132.49 95.3806 132.501 95.1876Z" fill="black"/>
<path d="M17.7237 22.2676H31.6223V31.2102H17.7237V75.0483H6.66404V31.2102H-0.00732422V22.2676H6.66404V18.1596C6.66404 12.7614 8.31705 8.38654 11.6231 5.03491C13.1996 3.39911 15.0974 2.10735 17.1972 1.24086C19.297 0.374376 21.5533 -0.0480811 23.8243 6.19881e-05C28.6458 -0.000405116 33.2768 1.88347 36.7296 5.24995L32.1931 13.0432C29.9249 10.7816 27.6492 9.63969 25.3809 9.63969C24.3423 9.58947 23.3049 9.76198 22.3384 10.1456C21.3719 10.5293 20.4986 11.1153 19.777 11.8642C18.4032 13.3472 17.7187 15.3567 17.7237 17.8927V22.2676Z" fill="black"/>
<path d="M53.4673 52.3506V75.0482H42.4002V22.2675H53.4673V32.7673C55.2074 29.517 57.7136 26.7401 60.7687 24.6774C63.6206 22.6715 66.9949 21.5403 70.4792 21.4222L70.6275 32.6264H70.0567C64.6702 32.6264 60.5587 34.3764 57.7221 37.8763C54.8855 41.3762 53.4673 46.201 53.4673 52.3506Z" fill="black"/>
<path d="M199.993 48.6579C199.958 56.6069 197.467 63.1692 192.521 68.345C187.574 73.5207 181.698 76.0913 174.893 76.0567C168.183 76.027 162.193 73.061 156.925 67.1585L156.636 97.1155L145.717 97.0562L146.095 22.2675L157.155 22.3269L157.103 31.5512C161.58 24.8529 167.318 21.5236 174.315 21.5631C177.729 21.5027 181.119 22.1471 184.274 23.4561C187.428 24.7651 190.278 26.7105 192.647 29.171C197.583 34.2231 200.032 40.7188 199.993 48.6579ZM172.395 66.113C174.556 66.1594 176.702 65.7533 178.696 64.9207C180.69 64.0881 182.488 62.8474 183.974 61.2784C187.161 58.0306 188.767 53.9003 188.792 48.8877C188.817 43.8751 187.258 39.7054 184.115 36.3785C182.676 34.7871 180.917 33.5173 178.954 32.6523C176.99 31.7873 174.867 31.3464 172.722 31.3584C170.601 31.3157 168.497 31.7391 166.558 32.5988C164.618 33.4585 162.891 34.7336 161.499 36.334C158.434 39.7245 156.786 44.1621 156.896 48.732C156.896 53.7446 158.378 57.8822 161.343 61.1671C162.721 62.7392 164.421 63.995 166.329 64.8487C168.236 65.7023 170.306 66.1336 172.395 66.113Z" fill="black"/>
<path d="M108.343 21.5631C103.824 21.5558 99.3768 22.6996 95.4216 24.8868C91.4663 27.0739 88.1329 30.2325 85.7354 34.0647C83.3379 37.897 81.9553 42.2767 81.7178 46.7913C81.4803 51.3059 82.3957 55.8067 84.3779 59.8695C86.3719 63.4955 89.4407 62.272 90.7824 61.486C91.0109 61.3563 91.2312 61.2126 91.4421 61.0559L91.4792 60.915C93.9847 58.5941 93.6807 53.0698 93.6807 53.0698H93.6437C93.713 51.7268 93.4428 50.3879 92.8579 49.1769C91.9165 47.8274 90.7898 46.8189 89.8929 45.3507C89.6009 44.9248 89.3968 44.445 89.2924 43.9393C89.1879 43.4335 89.1853 42.912 89.2847 42.4053C89.3841 41.8985 89.5835 41.4167 89.8712 40.9879C90.1589 40.5591 90.5291 40.192 90.9603 39.908C93.3991 38.425 97.1498 39.1146 97.8985 42.6071C98.536 45.5287 96.6236 46.248 95.7933 48.3835C95.1929 49.8665 95.1188 53.1069 95.8749 54.5751C97.3574 57.5411 100.411 54.1599 101.805 52.7732C104.207 50.3707 107.201 47.3676 108.106 43.9196C108.78 41.4059 108.254 38.4769 111.071 37.1274C114.295 35.6444 120.07 38.2545 118.046 42.4218C117.063 44.3956 115.355 45.9128 113.28 46.6558C112.791 46.7816 112.296 46.8831 111.797 46.9598C110.481 47.2167 109.271 47.8594 108.321 48.8062C104.57 52.4396 97.7058 61.219 105.17 61.182C108.541 61.0554 111.837 60.1574 114.807 58.557C116.156 57.8155 116.638 56.3325 117.876 55.3685C119.603 54.0931 122.457 53.715 124.25 55.109C126.578 56.8664 125.829 59.9807 123.88 61.7826C123.095 62.4926 122.119 62.9568 121.073 63.1176C120.026 63.2784 118.956 63.1287 117.994 62.6872C117.124 62.1303 116.206 61.6514 115.251 61.2561C113.939 60.9966 110.804 62.1608 109.514 62.7391C107.565 63.6734 103.532 65.9573 102.101 67.6034C101.3 68.3171 100.654 69.1878 100.204 70.1616C99.7665 71.5186 100.945 73.8173 103.591 74.4179C107.229 75.0798 110.965 74.9767 114.56 74.1153C118.156 73.2538 121.533 71.6529 124.477 69.4145C127.42 67.176 129.865 64.349 131.656 61.1134C133.448 57.8779 134.546 54.3047 134.881 50.6213C135.216 46.9379 134.781 43.225 133.604 39.7191C132.426 36.2131 130.531 32.9908 128.041 30.2574C125.55 27.524 122.517 25.3393 119.136 23.8425C115.755 22.3456 112.1 21.5693 108.402 21.5631H108.343Z" fill="#02A64D"/>
</g>
<defs>
<clipPath id="clip0">
<rect width="200" height="100" fill="white"/>
</clipPath>
</defs>
</svg>
