<?xml version="1.0" encoding="UTF-8"?> <svg xmlns="http://www.w3.org/2000/svg" width="106" height="29" viewBox="0 0 106 29" fill="none"><g clip-path="url(#clip0_590_3057)"><path fill-rule="evenodd" clip-rule="evenodd" d="M36.864 22.0386C35.1047 23.5617 32.7801 24.3235 29.8906 24.3235C27.0005 24.3235 24.6734 23.5617 22.9093 22.0386C21.1451 20.5155 20.2637 18.4843 20.2637 15.9474V4.20117H27.4547V15.9746C27.4547 16.6748 27.6772 17.2451 28.1216 17.6868C28.566 18.1272 29.1558 18.3483 29.8906 18.3483C30.6247 18.3483 31.214 18.1272 31.659 17.6868C32.1034 17.2451 32.3259 16.6748 32.3259 15.9746V4.20117H39.5022V15.9474C39.5022 18.4843 38.6232 20.5155 36.864 22.0386Z" fill="black"></path><path fill-rule="evenodd" clip-rule="evenodd" d="M19.2392 23.9043H11.3189L6.75455 16.4156V23.9043H0V4.20117H6.75455V11.3732L10.921 4.20117H18.8412L12.4278 13.8878L19.2392 23.9043Z" fill="black"></path><path fill-rule="evenodd" clip-rule="evenodd" d="M48.93 9.80761V13.545H50.6391C51.3213 13.545 51.8592 13.3692 52.2535 13.0163C52.6484 12.6641 52.8458 12.2122 52.8458 11.663C52.8458 11.1132 52.6484 10.6667 52.2535 10.323C51.8592 9.97979 51.3213 9.80761 50.6391 9.80761H48.93ZM53.05 23.9046L50.3616 18.5602H48.93V23.9046H41.9902V4.20215H51.7645C54.2187 4.20215 56.2151 4.88848 57.7543 6.26296C59.2935 7.63684 60.0625 9.43725 60.0625 11.663C60.0625 12.7898 59.8088 13.809 59.3027 14.7195C58.7959 15.6312 58.0801 16.3942 57.1559 17.0075L60.8076 23.9046H53.05Z" fill="black"></path><path fill-rule="evenodd" clip-rule="evenodd" d="M70.4429 24.4079C67.625 24.4079 65.4262 23.814 63.8479 22.6262C62.2696 21.4384 61.4805 19.792 61.4805 17.6871H68.9789C68.9789 18.1113 69.111 18.446 69.375 18.6894C69.6391 18.9335 69.9949 19.0556 70.4429 19.0556C70.8513 19.0556 71.1826 18.9583 71.4362 18.7638C71.6899 18.5704 71.8171 18.3058 71.8171 17.9717C71.8171 17.7367 71.7425 17.5288 71.5933 17.3482C71.4442 17.1681 71.2217 17.0165 70.9283 16.8939C70.6343 16.7724 70.3237 16.6643 69.9949 16.5688C69.666 16.474 69.2681 16.3725 68.7998 16.2643C68.7601 16.2559 68.7246 16.2486 68.6959 16.2438C68.6654 16.2389 68.6354 16.2329 68.6054 16.2238C66.963 15.8535 65.7575 15.4874 64.991 15.1267C62.9897 14.1866 61.9194 12.6556 61.7794 10.5326C61.7696 10.3707 61.7647 10.2033 61.7647 10.0317C61.7647 8.0984 62.5135 6.58798 64.0124 5.49927C65.5112 4.41057 67.6048 3.86621 70.2938 3.86621C72.932 3.86621 74.9932 4.42446 76.4774 5.53975C77.9616 6.65565 78.703 8.20715 78.703 10.1943H71.4888C71.4888 9.8239 71.3843 9.53692 71.1746 9.33392C70.9656 9.13032 70.6722 9.02882 70.2938 9.02882C69.9252 9.02882 69.6391 9.10796 69.4349 9.26565C69.2308 9.42394 69.1287 9.64325 69.1287 9.92298C69.1287 10.1399 69.1984 10.332 69.3371 10.4988C69.4771 10.6661 69.7161 10.8196 70.0548 10.9597C70.3934 11.0999 70.6966 11.208 70.9656 11.2848C71.2351 11.3615 71.6477 11.4678 72.2058 11.6032C72.2749 11.6213 72.3299 11.6346 72.3697 11.6436C73.1961 11.843 73.8428 12.008 74.3117 12.1385C74.7799 12.2696 75.3893 12.5022 76.1418 12.8363C76.8937 13.1704 77.4732 13.5323 77.8815 13.9201C78.2898 14.3086 78.656 14.8391 78.9799 15.5121C79.3027 16.1858 79.4653 16.9506 79.4653 17.8092C79.4653 19.8869 78.6706 21.5061 77.0826 22.6667C75.4945 23.8273 73.2817 24.4079 70.4429 24.4079Z" fill="black"></path><path fill-rule="evenodd" clip-rule="evenodd" d="M106 14.4408L90.7463 0L85.5781 5.01838L95.7266 14.5003L85.5781 23.9816L90.7463 29L106 14.5592L105.937 14.5003L106 14.4408Z" fill="#E35358"></path></g><defs><clipPath id="clip0_590_3057"><rect width="106" height="29" fill="white"></rect></clipPath></defs></svg> 