<?xml version="1.0" encoding="UTF-8"?> <svg xmlns="http://www.w3.org/2000/svg" width="106" height="23" viewBox="0 0 106 23" fill="none"><path d="M44.7591 7.59461C44.7417 6.59157 44.5216 5.60169 44.1116 4.68151C43.7015 3.76133 43.1094 2.92889 42.369 2.23172C41.6287 1.53455 40.7547 0.986317 39.7969 0.618333C38.8391 0.250349 37.8162 0.0698229 36.7868 0.0870659H34.2927C32.2134 0.13257 30.2358 0.972396 28.7861 2.42549C27.3365 3.87858 26.5309 5.82854 26.5431 7.85499L26.6767 15.3191C26.7119 17.3488 27.5702 19.2823 29.064 20.6972C30.5579 22.1121 32.5658 22.8933 34.649 22.8701H37.0986C39.1816 22.8358 41.166 21.9995 42.6181 20.544C44.0702 19.0884 44.872 17.1319 44.8481 15.1022L44.7591 7.59461ZM36.6087 18.3135H34.8271C34.0434 18.3136 33.2911 18.0132 32.7327 17.4773C32.1743 16.9414 31.8548 16.2129 31.8431 15.4493L31.7095 7.37763C31.6977 6.60651 32.0008 5.86241 32.552 5.30901C33.1033 4.7556 33.8576 4.43823 34.649 4.42669H36.4305C37.2185 4.42636 37.9757 4.72532 38.5411 5.26009C39.1066 5.79487 39.4359 6.52334 39.4591 7.29084L39.5481 15.3625C39.5601 15.7459 39.4929 16.1277 39.3505 16.4853C39.2081 16.8428 38.9935 17.1689 38.7193 17.4441C38.4452 17.7194 38.1171 17.9381 37.7545 18.0875C37.3919 18.2368 37.0023 18.3137 36.6087 18.3135Z" fill="#ED3237"></path><path fill-rule="evenodd" clip-rule="evenodd" d="M9.35294 0.0869141H14.8756V1.73597H18.0824C19.7797 1.74734 21.4042 2.40937 22.6045 3.57884C23.8047 4.74831 24.4841 6.33118 24.4958 7.98503V13.236C24.484 14.8858 23.8032 16.4641 22.6017 17.6267C21.4002 18.7892 19.7756 19.4417 18.0824 19.4416H14.8756V22.8439H9.35294V19.4416H6.41344C4.72018 19.4417 3.09561 18.7892 1.89413 17.6267C0.692647 16.4641 0.0117588 14.8858 0 13.236L0 7.98503C0.011666 6.33118 0.691112 4.74831 1.89135 3.57884C3.09158 2.40937 4.7161 1.74734 6.41344 1.73597H9.35294V0.0869141ZM9.35294 5.68503H8.10588C7.69858 5.67928 7.29417 5.75248 6.91617 5.90038C6.53817 6.04828 6.19412 6.26793 5.90402 6.54656C5.61392 6.82518 5.38356 7.15722 5.22635 7.52337C5.06913 7.88952 4.98819 8.28246 4.98823 8.67937V12.5416C4.98819 12.9385 5.06913 13.3315 5.22635 13.6976C5.38356 14.0638 5.61392 14.3958 5.90402 14.6744C6.19412 14.9531 6.53817 15.1727 6.91617 15.3206C7.29417 15.4685 7.69858 15.5417 8.10588 15.536H9.35294V5.68503ZM14.8756 15.536H16.1227C16.53 15.5417 16.9344 15.4685 17.3124 15.3206C17.6904 15.1727 18.0345 14.9531 18.3246 14.6744C18.6147 14.3958 18.845 14.0638 19.0022 13.6976C19.1594 13.3315 19.2404 12.9385 19.2403 12.5416V8.67937C19.2404 8.28246 19.1594 7.88952 19.0022 7.52337C18.845 7.15722 18.6147 6.82518 18.3246 6.54656C18.0345 6.26793 17.6904 6.04828 17.3124 5.90038C16.9344 5.75248 16.53 5.67928 16.1227 5.68503H14.8756V15.536Z" fill="#ED3237"></path><path d="M82.0395 0.0867924L77.7193 10.0679L72.7756 0.0867924H66.8075L75.1361 16.0566L72.2412 22.7396H78.2092L87.8294 0.0867924H82.0395ZM66.5403 22.7396L57.9445 10.3717L65.605 0.0867924H59.637L52.9563 9.89434V0H47.4336V22.7396H52.9563V11.8038L60.6168 22.7396H66.5403ZM100.3 15.8396C100.213 16.526 99.8694 17.1572 99.3356 17.6132C98.8019 18.0693 98.1149 18.3184 97.405 18.3132H95.6235C94.8398 18.3132 94.0875 18.0128 93.5292 17.4769C92.9709 16.941 92.6513 16.2126 92.6395 15.4491L92.5059 7.37736C92.4946 6.60637 92.7978 5.86253 93.3489 5.30923C93.9001 4.75593 94.6541 4.43841 95.4454 4.42641H97.2269C97.9176 4.43195 98.5857 4.66734 99.1203 5.09355C99.6549 5.51976 100.024 6.11119 100.166 6.76981H105.466C105.225 4.90643 104.288 3.19487 102.834 1.96209C101.38 0.729306 99.5105 0.0616983 97.5832 0.0867924H95.0891C93.0098 0.132296 91.0322 0.972122 89.5825 2.42521C88.1328 3.8783 87.3273 5.82827 87.3395 7.85472L87.4731 15.3189C87.5083 17.3485 88.3666 19.282 89.8604 20.6969C91.3543 22.1118 93.3622 22.893 95.4454 22.8698H97.8949C99.84 22.8444 101.706 22.1152 103.13 20.8239C104.554 19.5326 105.434 17.7715 105.6 15.883L100.3 15.8396Z" fill="#ED3237"></path></svg> 