<?xml version="1.0" encoding="UTF-8"?> <svg xmlns="http://www.w3.org/2000/svg" width="104" height="13" viewBox="0 0 104 13" fill="none"><path d="M17.9688 12.6839V0.0273438H21.4021V12.6839H17.9688Z" fill="#00557B"></path><path d="M32.6588 2.37012V12.6842H29.5255L27.7804 9.77896C27.5929 9.47004 26.9551 8.14467 26.6737 7.47265C26.7299 7.87212 26.8613 9.30695 26.8613 9.74263V12.6842H23.8594V2.37012H26.8424L28.5685 5.23921C28.8123 5.63868 29.5441 7.10954 29.8068 7.65431C29.7318 7.07314 29.6568 6.07455 29.6568 5.60232V2.37012H32.6588Z" fill="#00557B"></path><path d="M41.0806 12.6839H38.0597L33.6133 0.0273438H37.3094L39.0355 5.51131C39.2044 6.07425 39.4108 6.61898 39.5797 7.61779H39.5985C39.8234 6.47376 40.0675 5.76552 40.2923 5.14798L42.1501 0.0273438H45.6957L41.0806 12.6839Z" fill="#518FBA"></path><path d="M46.0898 12.6842V2.37012H52.9377L52.7125 4.69447H49.2229V6.21986H52.0743V8.45322H49.2229V10.3419H53.1442V12.6842H46.0898Z" fill="#518FBA"></path><path d="M63.6489 2.37012V12.6842H60.5155L58.7705 9.77896C58.5832 9.47004 57.945 8.14467 57.6637 7.47265C57.7202 7.87212 57.8514 9.30695 57.8514 9.74263V12.6842H54.8496V2.37012H57.8326L59.5584 5.23921C59.8025 5.63868 60.5343 7.10954 60.7968 7.65431C60.722 7.07314 60.6467 6.07455 60.6467 5.60232V2.37012H63.6489Z" fill="#518FBA"></path><path d="M73.1227 4.71264H70.459V12.6842H67.288V4.71264H64.6055V2.37012H73.4984L73.1227 4.71264Z" fill="#518FBA"></path><path d="M83.4026 2.37012V9.47003C83.4026 9.97859 83.4214 10.5779 83.1021 11.177C82.746 11.8491 81.5824 12.8659 78.9751 12.8659C76.8924 12.8659 75.7853 12.2486 75.2603 11.7038C74.5849 11.0136 74.5469 10.3056 74.5469 9.36127V2.37012H77.7179V9.07056C77.7179 9.65173 77.8492 9.97859 78.0176 10.1784C78.2997 10.5054 78.7119 10.5415 78.9935 10.5415C79.5561 10.5415 79.8566 10.3781 80.0067 10.1964C80.2131 9.94245 80.2696 9.43381 80.2696 9.1253V2.37012H83.4026Z" fill="#518FBA"></path><path d="M89.8556 6.61929C90.0429 6.61929 90.493 6.60113 90.7751 6.38314C91.094 6.12893 91.1124 5.76582 91.1124 5.58416C91.1124 5.38433 91.094 5.13031 90.8872 4.93048C90.6247 4.6765 90.1561 4.6583 89.8368 4.6583H89.105V6.61929H89.8556ZM91.5062 12.6842L90.287 9.74263C90.0809 9.2522 89.912 8.88909 89.6304 8.74401C89.4991 8.67128 89.2926 8.61668 89.105 8.61668V12.6842H85.9531V2.37012H90.0245C91.8067 2.37012 92.7826 2.69687 93.3644 3.05998C94.2831 3.64115 94.5836 4.44008 94.5836 5.36631C94.5836 6.25618 94.3395 6.96424 93.7393 7.49081C93.3452 7.83594 92.8014 8.09011 92.2196 8.18104C92.5385 8.28979 92.9702 8.52598 93.3452 9.234L95.1466 12.6842H91.5062Z" fill="#518FBA"></path><path d="M96.5723 12.6842V2.37012H103.421L103.195 4.69447H99.7053V6.21986H102.557V8.45322H99.7053V10.3419H103.627V12.6842H96.5723Z" fill="#518FBA"></path><path d="M4.19116 0.0185547C4.19116 4.23873 4.19116 8.45909 4.19116 12.6798C2.8012 12.6798 1.41085 12.6798 0.0195312 12.6798C0.0195312 8.45909 0.0195312 4.23873 0.0195312 0.0185547C1.41085 0.0185547 2.8012 0.0185547 4.19116 0.0185547Z" fill="#D91920"></path><path d="M13.7788 0.0185547C13.7788 2.33845 13.7788 4.65815 13.7788 7.00587C13.7452 6.96736 13.728 6.94956 13.7132 6.93021C11.9333 4.63319 10.1536 2.33573 8.3743 0.0384636C8.3695 0.0322732 8.36666 0.0251413 8.36328 0.0185547C10.1684 0.0185547 11.9735 0.0185547 13.7788 0.0185547Z" fill="#D91920"></path><path fill-rule="evenodd" clip-rule="evenodd" d="M8.38672 12.6795C8.38672 10.3778 8.38672 8.07627 8.38672 5.74805C8.42648 5.79292 8.4515 5.8181 8.47303 5.84596C10.2198 8.09715 11.9665 10.3482 13.7132 12.5992C13.7344 12.6265 13.757 12.6526 13.7788 12.6795C11.9813 12.6795 10.1838 12.6795 8.38672 12.6795Z" fill="#00557B"></path></svg> 