<?xml version="1.0" encoding="UTF-8"?> <svg xmlns="http://www.w3.org/2000/svg" width="105" height="30" viewBox="0 0 105 30" fill="none"><g clip-path="url(#clip0_590_3070)"><path d="M71.8448 29.9006H69.0273L69.6398 27.1914H72.4573L71.8448 29.9006ZM74.3736 29.6838L76.6923 18.1607H79.3173L79.0111 20.8699H79.0723C79.3866 20.2365 79.9071 19.7376 80.5423 19.4611C81.2359 19.0601 82.0139 18.84 82.8086 18.8199C83.2232 18.7857 83.6401 18.8438 84.0311 18.9902C84.4221 19.1367 84.778 19.3681 85.0748 19.6688C85.5384 20.2242 85.7794 20.9412 85.7486 21.6736C85.7486 22.0529 85.6873 22.4051 85.6873 22.6579L84.2786 29.8825H81.5311L82.8173 23.3262C82.8712 23.0897 82.8918 22.8464 82.8786 22.6038C82.8921 22.4013 82.8605 22.1984 82.7862 22.0105C82.7119 21.8227 82.5968 21.6549 82.4498 21.5201C82.306 21.3833 82.1357 21.2796 81.9502 21.2158C81.7647 21.1519 81.5682 21.1295 81.3736 21.1498C80.7382 21.1528 80.1221 21.3754 79.6236 21.782C78.9578 22.3557 78.5061 23.1507 78.3461 24.0306L77.1823 29.9006H74.3736V29.6838ZM89.2486 25.322C89.2486 25.5116 89.3098 25.5749 89.3098 25.7645C89.3223 26.0652 89.4023 26.3588 89.5435 26.6221C89.6847 26.8854 89.8833 27.1112 90.1236 27.2817C90.7178 27.6745 91.4132 27.8729 92.1186 27.8506C92.7111 27.8596 93.3013 27.7743 93.8686 27.5977C94.4198 27.4713 94.9186 27.2817 95.5311 27.092L95.1023 29.2413C93.9468 29.6906 92.7234 29.926 91.4886 29.9367C90.1942 29.9884 88.9208 29.5875 87.8748 28.7988C87.4432 28.3676 87.1076 27.8445 86.8916 27.2659C86.6755 26.6873 86.584 26.0672 86.6236 25.4484C86.5976 23.7328 87.2262 22.0754 88.3736 20.8337C88.981 20.1951 89.7053 19.6875 90.5044 19.3402C91.3035 18.9929 92.1615 18.813 93.0286 18.8109C93.5597 18.778 94.0916 18.8617 94.5891 19.0565C95.0866 19.2514 95.5384 19.5529 95.9146 19.9412C96.2909 20.3296 96.583 20.7958 96.7718 21.3093C96.9606 21.8227 97.0417 22.3717 97.0098 22.9198C96.9825 23.4831 96.9212 24.0441 96.8261 24.5995L96.7036 25.3942H89.2486V25.322ZM94.1486 23.5791C94.2098 22.676 94.2098 22.965 94.2098 22.676C94.2415 22.1943 94.1118 21.7161 93.8423 21.3214C93.679 21.1185 93.4723 20.9575 93.2385 20.851C93.0047 20.7444 92.7502 20.6952 92.4948 20.7073C92.1513 20.7257 91.8161 20.8228 91.5134 20.9915C91.2107 21.1602 90.9482 21.3963 90.7448 21.6826C90.3089 22.2249 89.9951 22.8603 89.8261 23.543H94.1136L94.1486 23.5791ZM97.9986 20.7615L98.2611 18.1607H99.9148L100.405 16.1107L103.161 15.5508L102.549 18.1607H104.999L104.631 20.8699H102.181L101.201 25.9722C101.129 26.2678 101.088 26.5706 101.079 26.8753C101.068 27.0109 101.084 27.1474 101.126 27.2763C101.168 27.4053 101.235 27.5239 101.324 27.6248C101.56 27.7861 101.836 27.8739 102.12 27.8777C102.514 27.8608 102.904 27.7971 103.284 27.688L102.855 29.7109C102.19 29.8574 101.513 29.942 100.834 29.9638C100.109 30.0071 99.3922 29.783 98.8123 29.3316C98.5873 29.1142 98.4106 28.8491 98.2943 28.5544C98.178 28.2598 98.1249 27.9427 98.1386 27.6248C98.1416 27.281 98.1827 26.9386 98.2611 26.6044L99.3636 20.8337H97.9986V20.7615Z" fill="#E04D29"></path><path d="M36.12 14.5488L33.25 29.901H27.8512L29.9337 18.1611H27.3087L26.8187 21.0419C26.0837 24.6542 25.5325 29.5669 20.2037 29.5669C19.2939 29.6002 18.3839 29.5029 17.5 29.2779L18.235 25.5934C18.6187 25.6726 19.0078 25.7209 19.3987 25.7379C19.6982 25.7298 19.9906 25.6425 20.248 25.4844C20.5053 25.3262 20.7191 25.1026 20.8687 24.8348C21.175 24.3923 21.6038 23.3718 22.3387 19.5157L23.3187 14.5759H36.12V14.5488ZM43.5312 14.5488H38.15L37.3537 18.1611H42.805L43.5312 14.5488ZM35.5687 28.0949L35.2625 29.901H40.6525L42.6212 19.5157C38.0275 20.1208 36.365 23.7511 35.5687 28.0497V28.0949ZM67.3137 29.901H61.6175L61.25 27.1918H56.9625L55.4312 29.901H50.0325L57.9075 14.5488H65.1962L67.3137 29.901ZM61.3112 22.6765L60.76 18.1611H60.6987L58.31 22.6765H61.3112ZM53.7162 18.1611L55.9212 14.5488H45.5612L42.6825 29.901H48.0725L50.155 18.1611H53.7075H53.7162Z" fill="#1A1F3B"></path><path d="M8.12144 20.1297C6.99839 19.9305 5.91942 19.5236 4.93644 18.9287C7.38644 18.8022 10.8777 17.7908 11.4289 14.9461C11.4907 14.6333 11.4907 14.3108 11.4289 13.9979C13.8177 13.9347 17.6152 12.9232 18.1052 9.95215C18.5339 7.29712 15.3489 6.41211 14.5527 4.32602C14.3077 3.56744 14.3077 2.17671 14.9202 1.61681C16.6077 2.66944 17.9486 4.22255 18.7681 6.07352C19.5875 7.92448 19.8475 9.98738 19.5139 11.9931C19.0122 14.6074 17.5444 16.9175 15.4213 18.4345C13.2982 19.9515 10.6865 20.5563 8.13894 20.1207L8.12144 20.1297ZM4.69144 18.8022C2.7438 17.5688 1.27306 15.674 0.531824 13.4432C-0.209409 11.2124 -0.174872 8.78478 0.629503 6.57738C1.43388 4.36998 2.95789 2.52053 4.93978 1.3467C6.92167 0.172861 9.23774 -0.2521 11.4902 0.144801C12.5862 0.37285 13.6405 0.778209 14.6139 1.34588C12.2514 1.45425 8.75144 2.49278 8.24394 5.33745C8.18242 5.67161 8.18242 6.01474 8.24394 6.34889C5.79394 6.41211 2.05769 7.36033 1.56769 10.3314C1.13894 13.0406 4.32394 13.8715 5.12019 15.9576C5.28175 16.4314 5.32715 16.9392 5.25233 17.4355C5.17752 17.9319 4.98483 18.4014 4.69144 18.8022ZM8.30519 6.47532C8.73394 8.28146 11.1839 9.25678 11.8052 10.9907C12.0502 11.7493 12.0502 13.2032 11.3764 13.7721C10.9477 11.966 8.49769 10.9907 7.87644 9.25678C7.68691 8.79853 7.62661 8.29435 7.70246 7.80229C7.77831 7.31022 7.98723 6.85025 8.30519 6.47532Z" fill="#E04D29"></path></g><defs><clipPath id="clip0_590_3070"><rect width="105" height="30" fill="white"></rect></clipPath></defs></svg> 