<svg width="1386" height="177" viewBox="0 0 1386 177" fill="none" xmlns="http://www.w3.org/2000/svg">
<path d="M363.508 27.7219L363.102 16.8796H363.205L369.688 28.7349L395.523 70.8828H408.39V4.01318H398.36V47.1741L398.765 58.1155H398.664L392.078 46.0599L366.343 4.01318H353.578V70.8828H363.508V27.7219Z" fill="#101010"/>
<path d="M435.071 41.7024H464.454V32.5849H435.071V13.3349H472.659V4.01318H424.231V70.8828H474.077V61.5611H435.071V41.7024Z" fill="#101010"/>
<path d="M531.398 43.9327C531.398 50.2153 530.045 54.8761 527.344 57.9133C524.642 60.9524 520.489 62.473 514.884 62.473C509.279 62.473 505.222 60.9524 502.523 57.9133C499.821 54.8741 498.471 50.2133 498.471 43.9327V4.01318H487.628V45.2491C487.628 54.0976 489.976 60.7502 494.669 65.2089C499.364 69.6675 506.1 71.8958 514.884 71.8958C523.668 71.8958 530.587 69.6675 535.248 65.2089C539.909 60.7502 542.238 54.0976 542.238 45.2491V4.01318H531.398V43.9327Z" fill="#101010"/>
<path d="M607.446 61.5611H568.44V41.7024H597.823V32.5849H568.44V13.3349H606.028V4.01318H557.6V70.8828H607.446V61.5611Z" fill="#101010"/>
<path d="M698.713 4.01318L683.111 48.5916L679.059 61.7633L675.005 48.4905L659.403 4.01318H647.853L672.675 70.8828H685.34L710.162 4.01318H698.713Z" fill="#101010"/>
<path d="M730.644 4.01318H719.804V70.8828H730.644V4.01318Z" fill="#101010"/>
<path d="M796.268 62.4728C798.496 59.4337 799.61 55.8546 799.61 51.7337C799.61 47.275 798.26 43.5949 795.558 40.6912C792.857 37.7875 788.263 35.6259 781.78 34.2064L768.204 31.1673C764.216 30.2897 761.499 29.0744 760.047 27.5195C758.593 25.9665 757.869 24.1426 757.869 22.0478C757.869 20.2239 758.358 18.588 759.339 17.1341C760.318 15.6823 761.852 14.5176 763.949 13.638C766.04 12.7604 768.711 12.3216 771.953 12.3216C776.342 12.3216 780.144 13.183 783.351 14.9058C786.56 16.6286 789.445 19.4494 792.015 23.3661L799.311 16.3759C796.272 11.986 792.555 8.65968 788.165 6.39497C783.776 4.13431 778.575 3.00195 772.563 3.00195C767.158 3.00195 762.499 3.9321 758.583 5.78836C754.664 7.64663 751.677 10.1115 749.617 13.183C747.554 16.2586 746.525 19.684 746.525 23.4672C746.525 26.3729 747.168 28.9895 748.45 31.3189C749.732 33.6483 751.694 35.6239 754.328 37.2456C756.963 38.8653 760.306 40.1169 764.36 40.9945L779.05 44.337C782.629 45.1478 785.08 46.2963 786.396 47.7825C787.715 49.2688 788.372 50.9916 788.372 52.9489C788.372 54.9063 787.779 56.716 786.598 58.1679C785.415 59.6217 783.693 60.7177 781.43 61.4598C779.167 62.2039 776.482 62.5739 773.376 62.5739C769.862 62.5739 766.671 62.0684 763.802 61.0533C760.928 60.0403 758.415 58.6066 756.253 56.7484C754.09 54.8921 752.302 52.7811 750.883 50.4153L743.385 57.9131C745.211 60.6146 747.54 63.0147 750.375 65.1076C753.212 67.2024 756.52 68.8565 760.305 70.0717C764.087 71.287 768.343 71.8956 773.073 71.8956C778.407 71.8956 783.054 71.0848 787.003 69.4631C790.954 67.8434 794.044 65.512 796.274 62.4728H796.268Z" fill="#101010"/>
<path d="M824.819 4.01318H813.979V70.8828H824.819V4.01318Z" fill="#101010"/>
<path d="M885.813 7.15332C881.083 4.38511 875.478 3 868.993 3C862.509 3 857.005 4.38511 852.275 7.15332C847.547 9.92354 843.898 13.8767 841.334 19.0066C838.766 24.1407 837.482 30.2877 837.482 37.4479C837.482 44.608 838.764 50.755 841.334 55.887C843.898 61.0211 847.547 64.9722 852.275 67.7404C857.002 70.5106 862.573 71.8937 868.993 71.8937C875.413 71.8937 881.081 70.5106 885.813 67.7404C890.538 64.9722 894.188 61.019 896.754 55.887C899.32 50.755 900.604 44.608 900.604 37.4479C900.604 30.2877 899.322 24.1407 896.754 19.0066C894.188 13.8747 890.538 9.92354 885.813 7.15332ZM886.824 50.9734C885.204 54.7223 882.889 57.5775 879.884 59.5348C876.877 61.4942 873.248 62.4729 868.993 62.4729C864.739 62.4729 861.208 61.4942 858.204 59.5348C855.197 57.5755 852.884 54.7223 851.262 50.9734C849.642 47.2245 848.831 42.7153 848.831 37.4479C848.831 32.1804 849.64 27.5863 851.262 23.8717C852.884 20.1572 855.197 17.3223 858.204 15.3609C861.208 13.4035 864.804 12.4228 868.993 12.4228C873.183 12.4228 876.877 13.4035 879.884 15.3609C882.889 17.3223 885.204 20.1572 886.824 23.8717C888.446 27.5883 889.256 32.1137 889.256 37.4479C889.256 42.7821 888.448 47.2245 886.824 50.9734Z" fill="#101010"/>
<path d="M959.129 47.1741L959.531 58.1155H959.43L952.844 46.0599L927.111 4.01318H914.346V70.8828H924.277V27.7219L923.87 16.8796H923.971L930.456 28.7349L956.29 70.8828H969.156V4.01318H959.129V47.1741Z" fill="#101010"/>
<path d="M408.39 105.187H395.117L364.418 138.472V105.187H353.578V172.057H364.418V151.462L375.242 139.817L396.233 172.057H408.998L383.094 132.548L408.39 105.187Z" fill="#101010"/>
<path d="M463.728 139.584C467.95 136.175 470.059 131.326 470.059 125.046C470.059 118.765 467.948 114.139 463.728 110.558C459.504 106.979 453.815 105.187 446.655 105.187H419.402V172.057H430.141V145.309H444.52L461.55 172.057H474.01L455.536 143.614C458.695 142.769 461.435 141.437 463.728 139.584ZM430.141 114.408H445.844C450.234 114.408 453.494 115.32 455.621 117.143C457.748 118.967 458.814 121.703 458.814 125.351C458.814 128.999 457.748 131.82 455.621 133.609C453.494 135.399 450.234 136.294 445.844 136.294H430.141V114.41V114.408Z" fill="#101010"/>
<path d="M496.74 142.876H526.122V133.759H496.74V114.509H534.328V105.187H485.9V172.057H535.745V162.735H496.74V142.876Z" fill="#101010"/>
<path d="M569.461 105.187L544.234 172.057H555.378L561.761 154.529H589.825L596.207 172.057H607.656L582.429 105.187H569.459H569.461ZM564.8 145.713L575.845 114.507L586.786 145.713H564.8Z" fill="#101010"/>
<path d="M605.021 114.509H627.919V172.057H638.759V114.509H661.655V105.187H605.021V114.509Z" fill="#101010"/>
<path d="M685.16 105.187H674.319V172.057H685.16V105.187Z" fill="#101010"/>
<path d="M748.276 108.327C743.547 105.559 737.941 104.174 731.457 104.174C724.972 104.174 719.468 105.559 714.738 108.327C710.011 111.097 706.361 115.051 703.797 120.18C701.229 125.314 699.945 131.462 699.945 138.622C699.945 145.782 701.227 151.929 703.797 157.061C706.361 162.195 710.011 166.146 714.738 168.914C719.466 171.684 725.037 173.068 731.457 173.068C737.877 173.068 743.545 171.684 748.276 168.914C753.002 166.146 756.652 162.193 759.218 157.061C761.784 151.929 763.068 145.782 763.068 138.622C763.068 131.462 761.786 125.314 759.218 120.18C756.652 115.048 753.002 111.097 748.276 108.327ZM749.287 152.147C747.668 155.896 745.352 158.751 742.348 160.709C739.341 162.668 735.711 163.647 731.457 163.647C727.202 163.647 723.672 162.668 720.667 160.709C717.66 158.749 715.347 155.896 713.725 152.147C712.106 148.398 711.295 143.889 711.295 138.622C711.295 133.354 712.104 128.76 713.725 125.046C715.347 121.331 717.66 118.496 720.667 116.535C723.672 114.577 727.267 113.597 731.457 113.597C735.646 113.597 739.341 114.577 742.348 116.535C745.352 118.496 747.668 121.331 749.287 125.046C750.909 128.762 751.72 133.287 751.72 138.622C751.72 143.956 750.911 148.398 749.287 152.147Z" fill="#101010"/>
<path d="M823.044 148.348L823.446 159.289H823.345L816.761 147.234L791.027 105.187H778.261V172.057H788.192V128.896L787.785 118.055H787.886L794.371 129.909L820.207 172.057H833.071V105.187H823.044V148.348Z" fill="#101010"/>
<path d="M859.437 142.876H888.82V133.759H859.437V114.509H897.025V105.187H848.597V172.057H898.443V162.735H859.437V142.876Z" fill="#101010"/>
<path d="M953.861 148.348L954.266 159.289H954.165L947.579 147.234L921.844 105.187H909.081V172.057H919.009V128.896L918.605 118.055H918.706L925.189 129.909L951.024 172.057H963.891V105.187H953.861V148.348Z" fill="#101010"/>
<path d="M1035 146.423H1054.45V148.348C1054.45 150.983 1053.99 153.261 1053.08 155.186C1052.17 157.111 1050.9 158.701 1049.28 159.948C1047.66 161.2 1045.77 162.144 1043.61 162.785C1041.45 163.428 1039.12 163.748 1036.62 163.748C1032.03 163.748 1028.16 162.769 1025.02 160.81C1021.88 158.85 1019.53 155.997 1017.98 152.248C1016.42 148.499 1015.65 143.958 1015.65 138.622C1015.65 133.285 1016.53 128.845 1018.28 125.096C1020.04 121.347 1022.49 118.496 1025.63 116.535C1028.77 114.577 1032.43 113.597 1036.62 113.597C1040.81 113.597 1044.37 114.527 1047.31 116.383C1050.25 118.241 1052.36 121.028 1053.64 124.74L1063.67 119.98C1061.11 114.577 1057.68 110.592 1053.39 108.024C1049.1 105.458 1043.48 104.174 1036.52 104.174C1030.17 104.174 1024.55 105.577 1019.65 108.378C1014.75 111.182 1010.97 115.152 1008.3 120.282C1005.63 125.416 1004.3 131.528 1004.3 138.62C1004.3 145.711 1005.58 152.01 1008.15 157.109C1010.72 162.209 1014.3 166.144 1018.89 168.912C1023.48 171.682 1028.92 173.065 1035.2 173.065C1040.88 173.065 1045.59 171.885 1049.34 169.519C1051.94 167.877 1054 165.748 1055.58 163.194L1055.97 172.05H1064.08V137.603H1035V146.417L1035 146.423Z" fill="#101010"/>
<path d="M1122.84 139.584C1127.06 136.175 1129.17 131.326 1129.17 125.046C1129.17 118.765 1127.06 114.139 1122.84 110.558C1118.61 106.979 1112.93 105.187 1105.77 105.187H1078.51V172.057H1089.25V145.309H1103.63L1120.66 172.057H1133.12L1114.65 143.614C1117.81 142.769 1120.55 141.437 1122.84 139.584ZM1089.25 114.408H1104.96C1109.35 114.408 1112.61 115.32 1114.73 117.143C1116.86 118.967 1117.93 121.703 1117.93 125.351C1117.93 128.999 1116.86 131.82 1114.73 133.609C1112.61 135.399 1109.35 136.294 1104.96 136.294H1089.25V114.41V114.408Z" fill="#101010"/>
<path d="M1187.66 145.107C1187.66 151.389 1186.31 156.05 1183.61 159.087C1180.91 162.126 1176.76 163.647 1171.15 163.647C1165.54 163.647 1161.49 162.126 1158.79 159.087C1156.09 156.048 1154.74 151.387 1154.74 145.107V105.187H1143.89V146.423C1143.89 155.271 1146.24 161.924 1150.94 166.383C1155.63 170.841 1162.37 173.07 1171.15 173.07C1179.93 173.07 1186.85 170.841 1191.51 166.383C1196.18 161.924 1198.5 155.271 1198.5 146.423V105.187H1187.66V145.107Z" fill="#101010"/>
<path d="M1252.49 107.721C1249.01 106.032 1244.87 105.187 1240.08 105.187H1214.34V172.057H1225.18V147.133H1240.08C1244.87 147.133 1249.01 146.289 1252.49 144.599C1255.97 142.913 1258.68 140.496 1260.64 137.356C1262.6 134.214 1263.58 130.483 1263.58 126.16C1263.58 121.837 1262.6 118.021 1260.64 114.915C1258.68 111.809 1255.97 109.411 1252.49 107.721ZM1248.94 134.822C1246.68 136.816 1243.15 137.811 1238.35 137.811H1225.18V114.408H1238.35C1243.15 114.408 1246.68 115.404 1248.94 117.396C1251.21 119.39 1252.34 122.31 1252.34 126.16C1252.34 130.01 1251.21 132.831 1248.94 134.822Z" fill="#101010"/>
<path d="M1314.9 107.721C1311.42 106.032 1307.28 105.187 1302.49 105.187H1276.75V172.057H1287.59V147.133H1302.49C1307.28 147.133 1311.42 146.289 1314.9 144.599C1318.38 142.913 1321.09 140.496 1323.06 137.356C1325.01 134.214 1325.99 130.483 1325.99 126.16C1325.99 121.837 1325.01 118.021 1323.06 114.915C1321.09 111.809 1318.38 109.411 1314.9 107.721ZM1311.35 134.822C1309.09 136.816 1305.56 137.811 1300.76 137.811H1287.59V114.408H1300.76C1305.56 114.408 1309.09 115.404 1311.35 117.396C1313.62 119.39 1314.75 122.31 1314.75 126.16C1314.75 130.01 1313.62 132.831 1311.35 134.822Z" fill="#101010"/>
<path d="M1346.99 162.735V142.876H1376.38V133.759H1346.99V114.509H1384.58V105.187H1336.15V172.057H1386V162.735H1346.99Z" fill="#101010"/>
<path d="M1347.38 50.1891C1351.11 52.3446 1355.45 53.4223 1360.39 53.4223C1365.33 53.4223 1369.6 52.3446 1373.36 50.1891C1377.11 48.0356 1380.04 45.0914 1382.15 41.3607C1384.26 37.6321 1385.31 33.4161 1385.31 28.7168C1385.31 24.0175 1384.26 19.7328 1382.15 16C1380.04 12.2714 1377.11 9.34139 1373.36 7.20811C1369.6 5.07686 1365.28 4.01123 1360.39 4.01123C1355.5 4.01123 1351.11 5.08899 1347.38 7.24451C1343.65 9.40003 1340.73 12.33 1338.63 16.0364C1336.52 19.7429 1335.47 23.969 1335.47 28.7168C1335.47 33.4646 1336.52 37.63 1338.63 41.3607C1340.73 45.0914 1343.65 48.0335 1347.38 50.1891ZM1343.42 18.7278C1345.04 15.7493 1347.32 13.4118 1350.25 11.7153C1353.18 10.0208 1356.56 9.17355 1360.39 9.17355C1364.22 9.17355 1367.66 10.0208 1370.56 11.7153C1373.47 13.4118 1375.72 15.7493 1377.32 18.7278C1378.92 21.7063 1379.72 25.0387 1379.72 28.7188C1379.72 32.399 1378.92 35.7313 1377.32 38.7098C1375.72 41.6883 1373.47 44.0258 1370.56 45.7223C1367.66 47.4188 1364.26 48.2661 1360.39 48.2661C1356.51 48.2661 1353.18 47.4188 1350.25 45.7223C1347.32 44.0278 1345.05 41.6883 1343.42 38.7098C1341.8 35.7313 1340.99 32.401 1340.99 28.7188C1340.99 25.0366 1341.8 21.7063 1343.42 18.7278Z" fill="#101010"/>
<path d="M1355.59 32.5687H1359.64L1365.62 42.0865H1372.09L1365.21 32.0369C1366.52 31.6567 1367.68 31.0784 1368.67 30.2777C1370.56 28.751 1371.51 26.6561 1371.51 23.9931C1371.51 22.2015 1371.08 20.6749 1370.24 19.4151C1369.39 18.1554 1368.22 17.1626 1366.75 16.4346C1365.27 15.7087 1363.54 15.3447 1361.55 15.3447H1350V42.0885H1355.59V32.5707V32.5687ZM1355.59 19.7791H1360.97C1362.52 19.7791 1363.72 20.133 1364.57 20.8326C1365.41 21.5343 1365.84 22.6383 1365.84 24.1387C1365.84 25.639 1365.41 26.7431 1364.57 27.4447C1363.72 28.1484 1362.52 28.4982 1360.97 28.4982H1355.59V19.7791Z" fill="#101010"/>
<path d="M256.26 18.7021V41.5008C256.26 42.5179 254.931 42.894 254.398 42.0265C243.02 23.5611 225.007 8.72722 203.165 0V15.7276C203.165 16.4333 202.465 16.9146 201.806 16.6658C184.584 10.175 165.047 6.71527 144.79 6.71527C124.533 6.71527 104.987 10.175 87.7656 16.6739C87.1064 16.9226 86.4047 16.4414 86.4047 15.7357V0C64.5746 8.72722 46.56 23.5611 35.1839 42.0185C34.6501 42.8839 33.3216 42.5098 33.3216 41.4927V18.7021C12.7734 36.2616 0 60.8398 0 88.0325C0 115.225 12.7734 139.803 33.3216 157.373V134.582C33.3216 133.565 34.6501 133.189 35.1839 134.057C46.562 152.514 64.5746 167.348 86.4047 176.085V160.348C86.4047 159.642 87.1044 159.161 87.7656 159.409C104.998 165.908 124.535 169.37 144.79 169.37C165.045 169.37 184.584 165.91 201.806 159.419C202.465 159.171 203.165 159.652 203.165 160.358V176.085C225.005 167.34 243.02 152.514 254.396 134.049C254.929 133.183 256.258 133.557 256.258 134.574V157.373C276.806 139.803 289.569 115.235 289.569 88.0325C289.569 60.8297 276.806 36.2616 256.258 18.7021H256.26ZM223.141 120.254C220.132 123.01 216.719 125.637 212.921 128.079C212.871 128.11 212.82 128.14 212.78 128.17C194.745 139.753 170.622 146.145 144.792 146.145C118.962 146.145 94.8388 139.753 76.8141 128.17C76.7635 128.14 76.713 128.11 76.6726 128.079C72.8751 125.637 69.4538 123.01 66.4531 120.254C56.0334 110.732 50.4282 99.5947 50.4282 88.0325C50.4282 76.4703 56.0313 65.3328 66.4531 55.8109C69.4619 53.0549 72.8751 50.4383 76.6726 47.9957C76.713 47.9653 76.7635 47.935 76.8141 47.9148C94.8388 36.3223 118.972 29.9407 144.792 29.9407C170.611 29.9407 194.745 36.3223 212.78 47.9148C212.82 47.935 212.871 47.9653 212.921 47.9957C216.719 50.4403 220.132 53.0549 223.141 55.8109C233.552 65.3328 239.165 76.4805 239.165 88.0325C239.165 99.5845 233.552 110.732 223.141 120.254Z" fill="#FFAD28"/>
</svg>
