<svg width="45" height="45" viewBox="0 0 45 45" fill="none" xmlns="http://www.w3.org/2000/svg">
<rect x="0.5" y="0.5" width="44" height="44" rx="22" stroke="#F6F1EB"/>
<path d="M31.0725 14.501C31.6734 14.501 32.1267 15.0326 31.8842 16.0214L28.9429 30.0033C28.7373 30.9975 28.1417 31.2367 27.3194 30.7742L20.3036 25.5483C20.2763 25.5286 20.2542 25.5026 20.2389 25.4726C20.2236 25.4426 20.2156 25.4093 20.2156 25.3755C20.2156 25.3417 20.2236 25.3084 20.2389 25.2784C20.2542 25.2483 20.2763 25.2224 20.3036 25.2027L28.4053 17.8237C28.7742 17.4941 28.3262 17.3346 27.8413 17.6323L17.6733 24.1022C17.6424 24.1225 17.6074 24.1355 17.5709 24.1401C17.5344 24.1447 17.4973 24.1408 17.4624 24.1288L13.1454 22.7519C12.186 22.4701 12.186 21.8056 13.3615 21.3324L30.6349 14.6126C30.7719 14.5463 30.9207 14.5084 31.0725 14.501Z" stroke="#F6F1EB" stroke-linecap="round" stroke-linejoin="round"/>
</svg>
